<?xml version="1.0" encoding="utf-8"?>
<!-- Generator: Adobe Illustrator 19.2.1, SVG Export Plug-In . SVG Version: 6.00 Build 0)  -->
<svg version="1.1" xmlns="http://www.w3.org/2000/svg" xmlns:xlink="http://www.w3.org/1999/xlink" x="0px" y="0px"
	 viewBox="0 0 841.9 595.3" style="enable-background:new 0 0 841.9 595.3;" xml:space="preserve">
<style type="text/css">
    * {font-family: Roboto, Helvetica, Helvetica, Arial, "Helvetica Neue", "Lucida Sans", "Microsoft Yahei", "Microsoft YaHei UI", SimHei, sans-serif;}
    * {user-select: none; cursor: default;}
	.st0{display:none;}
	.st1{display:inline;fill:#15182E;}
	.st2{display:inline;fill:#15192E;}
	.st3{display:inline;fill:#237FC3;}
	.st4{display:inline;}
	.st5{display:inline;fill:#FFFFFF;}
	.st6{display:inline;fill:none;}
	.st7{fill:none;stroke:#FFFFFF;stroke-width:2;stroke-miterlimit:10;}
	.st8{fill:url(#);}
	.st9{display:inline;fill:#E94E1B;}
	.st10{display:inline;fill:none;stroke:#FFFFFF;stroke-width:2;stroke-miterlimit:10;}
	.st11{display:inline;fill:none;stroke:#E94E1B;stroke-width:2;stroke-miterlimit:10;}
	.st12{fill:none;stroke:#FFFFFF;stroke-miterlimit:10;stroke-dasharray:5.0487,5.0487;}
	.st13{display:inline;opacity:0.8;fill:#E94E1B;}
	.st14{fill:#237FC3;}
	.st15{display:inline;fill:#227FC3;}
	.st16{fill:#E02D3A;}
	.st17{fill:#FFED00;}
	.st18{display:inline;fill:#F1AD1B;}
	.st19{display:inline;fill:none;stroke:#E1A317;stroke-miterlimit:10;}
	.st20{display:inline;fill:#E02D3A;}
	.st21{display:inline;fill:#E1A317;}
	.st22{display:inline;opacity:0.6;fill:#F1AD1B;}
	.st23{display:inline;fill:none;stroke:#15182E;stroke-miterlimit:10;}
	.st24{fill:none;stroke:#15182E;stroke-width:2;stroke-miterlimit:10;}
	.st25{fill:none;stroke:#15182E;stroke-width:2;stroke-miterlimit:10;stroke-dasharray:4.9906,4.9906;}
	.st26{display:inline;fill:none;stroke:#F1AD1B;stroke-width:3;stroke-miterlimit:10;}
	.st27{fill:none;stroke:#FFFFFF;stroke-miterlimit:10;}
	.st28{fill:#15182E;}
	.st29{fill:#E94E1B;}
	.st30{display:inline;fill:none;stroke:#FFFFFF;stroke-miterlimit:10;}
	.st31{display:inline;fill:#9FD2F3;}
	.st32{display:inline;fill:#75C3EA;}
	.st33{display:inline;fill:#49A1D9;}
	.st34{display:inline;fill:#EFB1A0;}
	.st35{display:inline;fill:#F18970;}
	.st36{display:inline;fill:#EE7250;}
	.st37{display:inline;fill:#83A429;}
	.st38{display:inline;fill:#BC97C6;}
	.st39{display:inline;fill:#9762A6;}
	.st40{fill:#FFFFFF;}
	.st41{fill:#272B36;}
	.st42{fill:#ECCFCB;}
	.st43{fill:#DD3A15;}
	.st44{fill:#FEE3C0;}
	.st45{fill:#F4981A;}
	.st46{fill:#8A2E88;}
	.st47{fill:#0099C6;}
	.st48{fill:#E5C5DE;}
	.st49{fill:#149739;}
	.st50{fill:#B3C5E7;}
	.st51{fill:#CBE4CC;}
	.st52{fill:#3D64AD;}
	.st53{fill:#8ABBE5;}
	.st54{fill:#B09CCB;}
	.st55{fill:#8CB5B8;}
	.st56{fill:#124D99;}
	.st57{fill:#B78CB8;}
	.st58{fill:#FEFEFE;}
	.st59{fill:#C6D4A1;}
	.st60{fill:#91A5C2;}
	.st61{fill:#C0C4A6;}
	.st63{font-size:12px;}
	.st65{font-size:21px;}
	.st66{letter-spacing:4;}
	.st68{letter-spacing:1;}
	.st69{display:inline;fill:#15182E;stroke:#FFFFFF;stroke-miterlimit:10;}
	.st70{display:inline;opacity:0.5;}
	.st71{display:inline;opacity:0.5;fill:#FFFFFF;}
	.st72{display:inline;opacity:0.5;fill:none;stroke:#E94E1B;stroke-width:2;stroke-miterlimit:10;}
	.st73{display:inline;opacity:0.5;fill:#E94E1B;}
	.st74{display:inline;fill:url(#SVGID_1_);stroke:#FFFFFF;stroke-miterlimit:10;}
	.st75{fill:none;stroke:#237FC3;stroke-width:3;stroke-miterlimit:10;}
	.st76{fill:none;stroke:#E94E1B;stroke-width:3;stroke-miterlimit:10;}
	.st77{fill:none;stroke:#FFFFFF;stroke-width:3;stroke-miterlimit:10;}
	.st78{fill:none;stroke:#FFFFFF;stroke-miterlimit:10;stroke-dasharray:11.6796,11.6796;}
	.st79{stroke:#FFFFFF;stroke-miterlimit:10;}
	.st80{opacity:0.5;fill:none;stroke:#237FC3;stroke-width:3;stroke-miterlimit:10;}
	.st81{opacity:0.5;fill:none;stroke:#E94E1B;stroke-width:3;stroke-miterlimit:10;}
	.st82{opacity:0.5;fill:#237FC3;}
	.st83{fill:none;stroke:#FFFFFF;stroke-miterlimit:10;stroke-dasharray:11.7564,11.7564;}
	.st84{fill:#D54491;}
	.st85{fill:#4994C6;}
	.st86{fill:#AE197F;}
	.st87{fill:#F28D4D;}
	.st88{fill:#2A75B5;}
	.st89{fill:#782578;}
	.st90{fill:#71B0D5;}
	.st91{fill:#A2CCE2;}
	.st92{fill:#ED6EA3;}
	.st93{fill:#6B57A1;}
	.st94{fill:#F3A1B6;}
	.st95{fill:#FCD1A8;}
	.st96{fill:#8181BA;}
	.st97{fill:#F7AF75;}
	.st98{fill:#17559C;}
	.st99{fill:#D74C1E;}
	.st100{fill:#CB2228;}
	.st101{fill:#B0C9E8;}
	.st102{fill:#A73A1A;}
	.st103{fill:#233867;}
	.st104{fill:#BEC0DD;}
	.st105{fill:#ED6E57;}
	.st106{fill:#F8C6C3;}
	.st107{fill:#A39FC9;}
	.st108{fill:#15192E;}
	.st109{fill:none;stroke:#15192E;stroke-width:3;stroke-miterlimit:10;}
	.st110{fill:#15192E;stroke:#FFFFFF;stroke-width:3;stroke-miterlimit:10;}
	.st111{fill:none;stroke:#237FC3;stroke-miterlimit:10;}
	.st112{font-size:14.4964px;}
	.st113{font-size:8.6978px;}
</style>
<g id="Layer_3" class="st0">
	
		<image style="display:inline;overflow:visible;" width="960" height="548" xlink:href="../../Desktop/world-110m-countries.png"  transform="matrix(0.8699 0 0 0.8699 0 77.3711)">
	</image>
	<rect x="-0.8" y="1.1" class="st1" width="843.3" height="597.1"/>
</g>
<g id="Layer_1" class="st0">
	<line class="st30" x1="12.6" y1="151.9" x2="34.7" y2="142.3"/>
	<line class="st30" x1="74.6" y1="149.3" x2="34.7" y2="142.3"/>
	<line class="st30" x1="36" y1="189.3" x2="12.6" y2="151.9"/>
	<line class="st30" x1="74.6" y1="178.8" x2="36" y2="189.3"/>
	<line class="st30" x1="74.6" y1="149.3" x2="74.6" y2="178.8"/>
	<line class="st30" x1="177.9" y1="151.2" x2="74.6" y2="149.3"/>
	<line class="st30" x1="176.9" y1="143.9" x2="177.9" y2="151.2"/>
	<line class="st30" x1="211.2" y1="152.9" x2="176.9" y2="143.9"/>
	<line class="st30" x1="180.1" y1="182" x2="211.2" y2="152.9"/>
	<line class="st30" x1="210.1" y1="195.3" x2="180.1" y2="182"/>
	<line class="st30" x1="217" y1="209.2" x2="210.1" y2="195.3"/>
	<line class="st30" x1="218.1" y1="195.9" x2="217" y2="209.2"/>
	<line class="st30" x1="219.6" y1="182.1" x2="226.5" y2="191.1"/>
	<line class="st30" x1="218.1" y1="195.9" x2="226.5" y2="191.1"/>
	<line class="st30" x1="221.2" y1="171.2" x2="219.6" y2="182.1"/>
	<line class="st30" x1="240.5" y1="176.7" x2="221.2" y2="171.2"/>
	<line class="st30" x1="244.6" y1="185.2" x2="240.5" y2="176.7"/>
	<line class="st30" x1="252.3" y1="178" x2="245.3" y2="185.2"/>
	<line class="st30" x1="273.1" y1="203.9" x2="252.3" y2="178"/>
	<line class="st30" x1="238.9" y1="220.7" x2="273.1" y2="203.9"/>
	<line class="st30" x1="207.8" y1="233.8" x2="238.9" y2="220.7"/>
	<line class="st30" x1="195.7" y1="213.5" x2="207.8" y2="233.8"/>
	<line class="st30" x1="108.8" y1="213.5" x2="195.7" y2="213.5"/>
	<line class="st30" x1="74.6" y1="178.8" x2="108.8" y2="213.5"/>
	<line class="st30" x1="121.5" y1="255.6" x2="110.8" y2="238.3"/>
	<line class="st30" x1="108.8" y1="213.5" x2="110.8" y2="238.3"/>
	<line class="st30" x1="146" y1="284.2" x2="128.7" y2="258.2"/>
	<line class="st30" x1="139.9" y1="262.3" x2="147.9" y2="282.5"/>
	<line class="st30" x1="159.8" y1="286.3" x2="139.9" y2="262.3"/>
	<line class="st30" x1="156.4" y1="291.1" x2="159.8" y2="286.3"/>
	<line class="st30" x1="220.4" y1="319.7" x2="156.4" y2="291.1"/>
	<line class="st30" x1="177.1" y1="269.7" x2="178.7" y2="291.1"/>
	<line class="st30" x1="198.8" y1="287.3" x2="178.7" y2="291.1"/>
	<line class="st30" x1="200.5" y1="296.8" x2="198.8" y2="287.3"/>
	<line class="st30" x1="207.9" y1="301.3" x2="200.5" y2="296.8"/>
	<line class="st30" x1="222.7" y1="317" x2="208.2" y2="311.2"/>
	<line class="st30" x1="207.9" y1="301.3" x2="208.2" y2="311.2"/>
	<line class="st30" x1="208.1" y1="266.3" x2="177.1" y2="269.7"/>
	<line class="st30" x1="213.5" y1="277.5" x2="208.1" y2="266.3"/>
	<line class="st30" x1="213.5" y1="261.4" x2="215.7" y2="275.1"/>
	<line class="st30" x1="226.7" y1="252" x2="213.5" y2="261.4"/>
	<line class="st30" x1="223.3" y1="242.9" x2="226.7" y2="252"/>
	<line class="st30" x1="248.8" y1="225.9" x2="223.3" y2="242.9"/>
	<line class="st30" x1="243.6" y1="218.4" x2="248.8" y2="225.9"/>
	<line class="st30" x1="238.9" y1="306.8" x2="222.7" y2="317"/>
	<line class="st30" x1="280.3" y1="324.9" x2="238.9" y2="306.8"/>
	<line class="st30" x1="320.6" y1="350" x2="285.9" y2="334.9"/>
	<line class="st30" x1="285.9" y1="334.9" x2="280.3" y2="324.9"/>
	<line class="st30" x1="220.6" y1="329.9" x2="220.4" y2="319.7"/>
	<line class="st30" x1="210.8" y1="347.9" x2="220.6" y2="329.9"/>
	<line class="st30" x1="238.1" y1="379.9" x2="222.3" y2="370.2"/>
	<line class="st30" x1="210.8" y1="347.9" x2="222.3" y2="370.2"/>
	<line class="st30" x1="226.8" y1="460.5" x2="238.1" y2="379.9"/>
	<line class="st30" x1="229.6" y1="473.6" x2="226.8" y2="460.5"/>
	<line class="st30" x1="250.6" y1="480.9" x2="229.6" y2="473.6"/>
	<line class="st30" x1="241.3" y1="467.3" x2="250.6" y2="480.9"/>
	<line class="st30" x1="249.7" y1="457.5" x2="241.3" y2="467.3"/>
	<line class="st30" x1="250.8" y1="437.5" x2="249.7" y2="457.5"/>
	<line class="st30" x1="269.9" y1="426.7" x2="250.8" y2="437.5"/>
	<line class="st30" x1="267.6" y1="421.3" x2="269.9" y2="426.7"/>
	<line class="st30" x1="275.1" y1="421.5" x2="267.6" y2="421.3"/>
	<line class="st30" x1="289.7" y1="403.6" x2="275.1" y2="421.5"/>
	<line class="st30" x1="288.9" y1="398.5" x2="289.7" y2="403.6"/>
	<line class="st30" x1="303.9" y1="392.2" x2="288.9" y2="398.5"/>
	<line class="st30" x1="311.2" y1="368.9" x2="303.9" y2="392.2"/>
	<line class="st30" x1="322.9" y1="356.1" x2="311.2" y2="368.9"/>
	<line class="st30" x1="320.6" y1="350" x2="322.9" y2="356.1"/>
	<line class="st30" x1="213.5" y1="281.4" x2="204.2" y2="285.3"/>
	<line class="st30" x1="221.6" y1="290" x2="204.2" y2="286.1"/>
	<line class="st30" x1="230.2" y1="289.2" x2="213.5" y2="281.4"/>
	<line class="st30" x1="221.6" y1="290" x2="230.2" y2="289.2"/>
	<line class="st30" x1="242.5" y1="293.2" x2="237.1" y2="289.6"/>
	<line class="st30" x1="231.9" y1="290.4" x2="237.1" y2="289.6"/>
	<line class="st30" x1="235.2" y1="296" x2="231.9" y2="290.4"/>
	<line class="st30" x1="242.5" y1="293.2" x2="236.1" y2="296"/>
	<line class="st30" x1="177.6" y1="276.2" x2="121.5" y2="255.6"/>
	<line class="st30" x1="562.6" y1="152.3" x2="528.9" y2="150.3"/>
	<line class="st30" x1="559.7" y1="143.5" x2="562.6" y2="152.3"/>
	<line class="st30" x1="564.4" y1="137.3" x2="559.7" y2="143.5"/>
	<line class="st30" x1="590.6" y1="141.4" x2="564.4" y2="137.3"/>
	<line class="st30" x1="645.9" y1="125.4" x2="590.6" y2="141.4"/>
	<line class="st30" x1="656.7" y1="135" x2="666.3" y2="130.6"/>
	<line class="st30" x1="645.9" y1="125.4" x2="666.3" y2="130.6"/>
	<line class="st30" x1="725.5" y1="141.4" x2="656.7" y2="135"/>
	<line class="st30" x1="818.9" y1="148.6" x2="725.5" y2="141.4"/>
	<line class="st30" x1="785" y1="178.4" x2="824" y2="165.4"/>
	<line class="st30" x1="818.9" y1="148.6" x2="824" y2="165.4"/>
	<line class="st30" x1="766.7" y1="207.8" x2="785" y2="178.4"/>
	<line class="st30" x1="782.7" y1="173.3" x2="761" y2="194.8"/>
	<line class="st30" x1="766.7" y1="207.8" x2="761" y2="194.8"/>
	<line class="st30" x1="730.8" y1="181.9" x2="782.7" y2="173.3"/>
	<line class="st30" x1="715.2" y1="196.4" x2="730.8" y2="181.9"/>
	<line class="st30" x1="728.9" y1="200.6" x2="715.2" y2="196.4"/>
	<line class="st30" x1="712.2" y1="232.1" x2="729.3" y2="212.3"/>
	<line class="st30" x1="728.9" y1="200.6" x2="729.3" y2="212.3"/>
	<line class="st30" x1="694.8" y1="243.5" x2="712.2" y2="232.1"/>
	<line class="st30" x1="703.5" y1="250.5" x2="694.8" y2="243.5"/>
	<line class="st30" x1="687.2" y1="240.7" x2="695.2" y2="256"/>
	<line class="st30" x1="703.5" y1="250.5" x2="695.2" y2="256"/>
	<line class="st30" x1="675.1" y1="241.9" x2="687.2" y2="240.7"/>
	<line class="st30" x1="678.1" y1="253.2" x2="675.1" y2="241.9"/>
	<line class="st30" x1="685.7" y1="265.1" x2="678.1" y2="253.2"/>
	<line class="st30" x1="656.1" y1="285.5" x2="676.6" y2="280.2"/>
	<line class="st30" x1="685.7" y1="265.1" x2="676.6" y2="280.2"/>
	<line class="st30" x1="646.7" y1="292.9" x2="656.1" y2="285.5"/>
	<line class="st30" x1="654.8" y1="301.9" x2="646.7" y2="292.9"/>
	<line class="st30" x1="655" y1="310.1" x2="654.8" y2="301.9"/>
	<line class="st30" x1="645.6" y1="316.9" x2="655" y2="310.1"/>
	<line class="st30" x1="638.1" y1="306.8" x2="645.6" y2="316.9"/>
	<line class="st30" x1="633.5" y1="308" x2="638.1" y2="306.8"/>
	<line class="st30" x1="632.4" y1="315.3" x2="633.5" y2="308"/>
	<line class="st30" x1="641.8" y1="326.1" x2="632.4" y2="315.3"/>
	<line class="st30" x1="642.7" y1="334.1" x2="641.8" y2="326.1"/>
	<line class="st30" x1="628.5" y1="317.4" x2="633" y2="324.5"/>
	<line class="st30" x1="635.8" y1="331.3" x2="633" y2="324.5"/>
	<line class="st30" x1="642.7" y1="334.1" x2="635.8" y2="331.3"/>
	<line class="st30" x1="626.8" y1="297.4" x2="628.5" y2="317.4"/>
	<line class="st30" x1="620.1" y1="301.1" x2="626.8" y2="297.4"/>
	<line class="st30" x1="615.5" y1="288.1" x2="619.9" y2="292.9"/>
	<line class="st30" x1="620.1" y1="301.1" x2="619.9" y2="292.9"/>
	<line class="st30" x1="588.8" y1="299.2" x2="603.4" y2="287.9"/>
	<line class="st30" x1="614.3" y1="284.2" x2="603.4" y2="287.9"/>
	<line class="st30" x1="615.5" y1="288.1" x2="614.3" y2="284.2"/>
	<line class="st30" x1="586.1" y1="313.5" x2="588.8" y2="299.2"/>
	<line class="st30" x1="580.3" y1="319.7" x2="586.1" y2="313.5"/>
	<line class="st30" x1="569.2" y1="289.2" x2="580.3" y2="319.7"/>
	<line class="st30" x1="563.8" y1="288.3" x2="569.2" y2="289.2"/>
	<line class="st30" x1="555.4" y1="277.5" x2="563.8" y2="288.3"/>
	<line class="st30" x1="534.5" y1="276.2" x2="555.4" y2="277.5"/>
	<line class="st30" x1="512.5" y1="265.5" x2="534.5" y2="276.2"/>
	<line class="st30" x1="521.1" y1="281.2" x2="512.5" y2="265.5"/>
	<line class="st30" x1="530.1" y1="277.5" x2="521.1" y2="281.2"/>
	<line class="st30" x1="540.8" y1="286" x2="530.1" y2="277.5"/>
	<line class="st30" x1="525.6" y1="299.2" x2="540.8" y2="286"/>
	<line class="st30" x1="502.2" y1="307.4" x2="525.6" y2="299.2"/>
	<line class="st30" x1="482.9" y1="270.8" x2="500.4" y2="297.4"/>
	<line class="st30" x1="502.2" y1="307.4" x2="500.4" y2="297.4"/>
	<line class="st30" x1="477.2" y1="270.8" x2="502.2" y2="311.8"/>
	<line class="st30" x1="482.9" y1="270.8" x2="477.2" y2="270.8"/>
	<line class="st30" x1="518.8" y1="309.6" x2="502.2" y2="311.8"/>
	<line class="st30" x1="513.9" y1="327.2" x2="518.8" y2="309.6"/>
	<line class="st30" x1="491.1" y1="348.1" x2="513.9" y2="327.2"/>
	<line class="st30" x1="496" y1="374.6" x2="491.1" y2="348.1"/>
	<line class="st30" x1="482.9" y1="384.7" x2="496" y2="374.6"/>
	<line class="st30" x1="483.9" y1="395.1" x2="482.9" y2="384.7"/>
	<line class="st30" x1="477.2" y1="398.8" x2="483.9" y2="395.1"/>
	<line class="st30" x1="467.4" y1="417.6" x2="477.2" y2="398.8"/>
	<line class="st30" x1="444" y1="421.6" x2="467.4" y2="417.6"/>
	<line class="st30" x1="429.2" y1="379.6" x2="444" y2="421.6"/>
	<line class="st30" x1="433.4" y1="362.5" x2="429.2" y2="379.6"/>
	<line class="st30" x1="422.1" y1="340.9" x2="433.4" y2="362.5"/>
	<line class="st30" x1="424.3" y1="328.5" x2="422.1" y2="340.9"/>
	<line class="st30" x1="387.2" y1="253" x2="377.4" y2="261.6"/>
	<line class="st30" x1="377.9" y1="267.7" x2="377.4" y2="261.6"/>
	<line class="st30" x1="362.3" y1="281.8" x2="377.9" y2="267.7"/>
	<line class="st30" x1="361.8" y1="306.8" x2="362.3" y2="281.8"/>
	<line class="st30" x1="382.3" y1="327.2" x2="361.8" y2="306.8"/>
	<line class="st30" x1="411.1" y1="322.2" x2="382.3" y2="327.2"/>
	<line class="st30" x1="424.3" y1="328.5" x2="411.1" y2="322.2"/>
	<line class="st30" x1="424.4" y1="246.7" x2="393.9" y2="253.5"/>
	<line class="st30" x1="387.2" y1="253" x2="393.9" y2="253.5"/>
	<line class="st30" x1="428.2" y1="259.4" x2="424.4" y2="246.7"/>
	<line class="st30" x1="448.4" y1="264.6" x2="428.2" y2="259.4"/>
	<line class="st30" x1="447.9" y1="258.9" x2="448.4" y2="264.6"/>
	<line class="st30" x1="480.5" y1="263" x2="447.9" y2="258.9"/>
	<line class="st30" x1="485.2" y1="249.7" x2="480.5" y2="263"/>
	<line class="st30" x1="213.5" y1="277.5" x2="215.7" y2="275.1"/>
	<line class="st30" x1="146" y1="284.2" x2="147.9" y2="282.5"/>
	<polyline class="st30" points="404.7,200.7 397.3,192.4 394.2,183.4 387.9,183.9 390.3,194.3 393.8,195 394.7,198.1 394.9,198.1 
		391.6,198.7 391.1,204.7 389.6,209.3 403.8,206.6 404.7,200.2 	"/>
	<polygon class="st30" points="380.2,204.6 387.2,202.2 388.9,195.3 384.1,193.8 379.9,197.5 	"/>
	<polygon class="st30" points="358.6,169.4 370.2,163.6 366.2,158.1 347.8,159.4 351,166.7 	"/>
	<polyline class="st30" points="485.7,249.8 478.7,250.6 469,249.1 461.5,242 466.5,239.3 472.7,238.1 472,236.8 479.1,234.3 
		484.2,234.6 490.7,237.3 497.9,236.5 497.8,232.4 495.1,230.5 488.1,225.3 493.5,218.4 483,221.9 485.8,225.5 481.3,227.3 
		478.7,224.2 480.6,222.2 473.1,220.7 469.4,224.1 470.3,229.1 468.4,233.3 464.6,236.3 461.1,237.3 454.4,239.7 457.2,246.1 
		456.2,249.5 452.9,248.9 449.1,241.6 447.6,239.2 447.5,234.7 436.1,232.3 426.9,225 426.9,225 426.9,225 424,224.6 427.7,230 
		431.7,233.3 432.7,234.6 435.2,235.7 441.8,238.7 440.1,240.4 437.6,238.5 436.5,240.7 437.7,243 435.1,245.7 434.8,240.3 
		425,233.2 425,233.2 423,228.3 420,227.3 417.3,229 414.4,231.3 408.7,230.3 408.2,234.6 402.8,237.8 400.6,241.4 401.6,243.7 
		397.1,248.4 388.6,250.4 385.3,247.8 382.2,248.2 381,243.4 382.3,234.1 382.5,229.4 397.4,230.3 397.8,230.2 398.8,221.6 
		391.8,216.4 391.6,214.3 398.4,214.2 397,211.1 398.8,210.4 399.2,211.8 404.6,209 405.1,206.6 408.6,205.1 412.9,200.8 
		416.2,200.2 422.1,199.5 420.6,197.1 421.4,189.9 424.5,189.1 425,197.6 427.2,199.3 430.3,198 433.9,199.4 433.9,199.4 
		443.5,196.8 446.8,197 446.3,197.2 450.2,196.1 449.6,193.7 451,189.8 453.1,189.2 455.7,191.3 457.5,190.3 457.2,189 455.2,185.8 
		460.7,183.7 466.8,184.5 471,182.8 465.5,181 454.5,182.9 450.4,180.7 449.9,173.9 459.5,166.5 457.1,163.6 451.1,165 449.5,169.3 
		441.5,175.7 445.8,180.1 440.2,183.6 438.7,190.3 432.4,192.6 432,192.5 427.3,182.6 427.3,182.3 418.7,185.4 413.8,183.6 
		412.7,173.4 424,167.4 440.7,148.7 459.9,141.5 472.8,145.7 467.8,146.6 474,148.3 496.7,157.7 490.4,162.7 475.7,159.9 488.3,171 
		487.1,166.6 495.1,167.3 493.7,164.3 499.5,161 504.6,162.7 503.7,152.2 509.6,154.1 507.2,158.4 512,159.9 	"/>
	<line class="st30" x1="529.3" y1="150.3" x2="512" y2="159.9"/>
	<polygon class="st30" points="634.4,333.5 627.6,325.6 623.5,325.4 644.9,352.1 646.8,341.3 639.2,334.5 	"/>
	<polygon class="st30" points="651.4,356.9 647,352.2 663.2,353.6 669.8,358.2 	"/>
	<line class="st30" x1="675.1" y1="335.5" x2="678.1" y2="325.5"/>
	<polyline class="st30" points="675.1,335.5 671.9,346.7 658.2,345.1 655.1,334 672.1,320.9 678.1,325.5 	"/>
	<polygon class="st30" points="687.8,349.7 683.7,342.6 687.8,338.8 683.3,337.7 692.3,332.7 681.1,334.7 676.6,343 678.8,351.3 
		681.1,344.5 	"/>
	<polygon class="st30" points="671.8,358.9 672.8,357.5 677.7,357.5 675.2,359.3 	"/>
	<polygon class="st30" points="691,357.5 687.8,361.6 696.8,357 	"/>
	<polygon class="st30" points="689.4,306 693.9,310.9 686.7,316.6 686.7,312.8 690.4,309.9 683.9,305.1 680.9,308.3 680,301.9 
		681.9,293.6 682.6,293.6 685.7,295 683.9,302.1 	"/>
	<polygon class="st30" points="688.6,318.7 693,314.7 695.6,322 690.3,324.3 687.2,320.7 684.2,322.5 686.7,318.3 	"/>
	<polygon class="st30" points="723.2,351.5 711.9,345.9 710.6,347.1 704,339.6 711.9,339.6 713.7,344.7 716.1,345.3 721,341.1 
		738,347.1 743.4,352.9 742.5,355.4 752,362 745.6,362 739.6,357.5 736.4,355.9 733.9,359.3 725.5,357.6 720.8,357.6 722.8,355.1 	
		"/>
	<polygon class="st30" points="711.9,354.2 712.8,350.7 714.9,352 	"/>
	<polygon class="st30" points="696.9,332.8 696.7,337 699.6,339.6 700,333.7 	"/>
	<polygon class="st30" points="682.6,383.2 665.2,390.9 667.4,419.9 674.8,422.6 679.2,419.1 687.8,420.4 692.3,416.1 709.5,414.8 
		715.7,422 720.6,417.9 718.8,423 725,424.7 726.5,429.9 734.2,432.6 737.4,430.1 740.2,432.9 748.8,428.1 756.2,414.6 756.9,397.5 
		740.7,381.9 738.5,373.1 736.3,372.1 731.2,364.8 726.8,379.3 715.9,372.9 719.9,366.4 706.7,363.3 708.1,367.1 704.9,366.9 
		701.5,372.6 700.9,372.6 696.8,369.7 685.1,376.1 	"/>
	<polygon class="st30" points="737.4,438.4 745.8,438.1 742.7,445.6 738.8,443.4 	"/>
	<polygon class="st30" points="794.4,454.1 786.8,452.2 793.5,445.6 796.6,445.6 802,437.3 805.8,439.9 	"/>
	<line class="st30" x1="807.9" y1="437.3" x2="808.9" y2="440.1"/>
	<polyline class="st30" points="808.9,440.1 813.9,432.9 814.9,428.5 810.7,428.4 803.8,422.8 806.5,428.2 805.1,432.9 807.9,437.3 
			"/>
	<line class="st30" x1="708.7" y1="252.4" x2="716.7" y2="250.9"/>
	<line class="st30" x1="718.9" y1="245.9" x2="716.7" y2="250.9"/>
	<line class="st30" x1="726.2" y1="243.9" x2="718.9" y2="245.9"/>
	<line class="st30" x1="726.9" y1="236.8" x2="726.2" y2="243.9"/>
	<line class="st30" x1="729.7" y1="236.5" x2="726.9" y2="236.8"/>
	<line class="st30" x1="731.3" y1="242.1" x2="729.7" y2="236.5"/>
	<line class="st30" x1="727.6" y1="246.4" x2="731.3" y2="242.1"/>
	<line class="st30" x1="727.4" y1="252.6" x2="727.6" y2="246.4"/>
	<line class="st30" x1="718.8" y1="254.6" x2="727.4" y2="252.6"/>
	<line class="st30" x1="715.7" y1="258" x2="718.8" y2="254.6"/>
	<line class="st30" x1="701.1" y1="258" x2="708.7" y2="252.4"/>
	<line class="st30" x1="703.5" y1="263.2" x2="701.1" y2="258"/>
	<line class="st30" x1="707.9" y1="259.2" x2="703.5" y2="263.2"/>
	<line class="st30" x1="715.7" y1="258" x2="707.9" y2="259.2"/>
	<polygon class="st30" points="586.2,321.2 585.9,317.7 588,314.6 591.1,318.6 590.3,322.9 587.5,323.2 	"/>
	<polygon class="st30" points="501.6,388 504.1,384.1 503.7,377 516.5,366.3 518.9,373.8 509.5,396.9 502.8,396 	"/>
	<polygon class="st30" points="759.9,348.8 763.8,352.4 760.3,353.8 	"/>
	<polygon class="st30" points="768.7,354.9 775.6,357.9 779.7,363.6 776,363.3 775.8,361 770.8,361.3 770.6,359.7 774,359.3 
		768.5,356.4 768.5,356.4 	"/>
	<polyline class="st30" points="220.4,165.6 229.3,163.7 234.5,169.4 248.1,173.1 242.5,167.5 252,169.4 250.2,164.7 243.8,161.5 
		243.8,159.2 252.3,163.7 257.9,158.1 242.5,151.9 245.1,150.2 213.5,138.5 194.1,138.5 195.1,146.1 216.5,148.4 233.5,155 
		230.1,161.5 221.1,160.9 220.4,164.7 	"/>
	<polygon class="st30" points="223.9,121.7 226,124.6 217.6,128.1 201.5,129.7 195.1,126.3 202.2,122.7 190.3,117 254.5,113.8 
		233.8,121.4 	"/>
	<polyline class="st30" points="350.9,145.8 346.9,138.5 356.4,135.2 352.2,128.8 356.8,127.3 359,121.1 373.9,116.8 349.1,117.6 
		352.8,113.8 259,116.3 245.9,119 247.8,122.4 232.5,125.1 241.5,131 260.9,129.7 273.8,140.3 271.9,142.2 275.7,144.8 275.7,150.2 
		284.2,148.4 276.5,158.1 289.7,176.7 293.9,176.7 297.3,179.9 300.8,178.4 308.1,161.8 321,159.1 326.5,154.3 351.7,146.1 	"/>
	<g class="st4">
		<text transform="matrix(1 0 0 1 715.782 97.6206)"><tspan x="0" y="0" class="st14 st62 st63">% of the population </tspan><tspan x="0" y="14.4" class="st14 st62 st63">who are daily smokers</tspan></text>
		<g>
			<path class="st14" d="M708.4,99.9c0.1,7.5-4.9,12.5-11,12.5c-6.2,0-11.1-4.9-11-11.1c0-6.3,4.9-10.4,9.9-10.9
				c2.8-0.3,5.4,0.4,7.7,2.1C706.9,94.6,708.4,97.6,708.4,99.9z M691.3,108.1c0.1-0.1,0.3-0.1,0.4-0.2c1.6-0.7,3.2-1.4,4.9-2.2
				c3.1-1.4,6.3-2.8,9.4-4.2c0.7-0.3,0.8-0.4,0.4-1.1c-0.2-0.5-0.4-0.9-0.6-1.4c-0.3-0.6-0.4-0.7-1-0.4c-3,1.3-6,2.7-9,4
				c-1.8,0.8-3.6,1.6-5.3,2.4c-0.3,0.1-0.6,0.3-0.4,0.7c0.3,0.7,0.6,1.3,0.9,2C690.9,107.9,691,108.1,691.3,108.1z M700.2,95.9
				c0,0.3,0.2,0.5,0.3,0.8c0.2,0.6,0.9,1,1,1.7c0,0.4,0.3,0.5,0.6,0.4c0.2-0.1,0.4-0.3,0.3-0.6c-0.1-0.5-0.4-0.8-0.6-1.2
				c-0.2-0.4-0.6-0.7-0.6-1.2c0-0.3-0.1-0.6-0.4-0.5C700.3,95.3,700.2,95.6,700.2,95.9z M704.1,97.3c-0.1-0.4-0.4-0.8-0.7-1.3
				c-0.2-0.3-0.5-0.6-0.5-1c0-0.3-0.1-0.6-0.4-0.5c-0.4,0-0.4,0.3-0.4,0.7c0,0.4,0.2,0.7,0.4,1c0.3,0.5,0.8,0.8,0.8,1.4
				c0,0.3,0.1,0.5,0.4,0.4C704,97.9,704.1,97.7,704.1,97.3z"/>
			<path class="st28" d="M691.3,108.1c-0.2,0-0.4-0.1-0.5-0.3c-0.3-0.7-0.6-1.3-0.9-2c-0.2-0.4,0.1-0.6,0.4-0.7
				c1.8-0.8,3.6-1.6,5.3-2.4c3-1.3,6-2.7,9-4c0.6-0.3,0.7-0.3,1,0.4c0.2,0.5,0.4,0.9,0.6,1.4c0.3,0.8,0.3,0.8-0.4,1.1
				c-3.1,1.4-6.3,2.8-9.4,4.2c-1.6,0.7-3.2,1.4-4.9,2.2C691.5,107.9,691.4,108,691.3,108.1z M693.6,104.5c-0.9,0.4-1.9,0.8-2.8,1.3
				c0.2,0.5,0.4,0.9,0.6,1.4c1-0.4,1.9-0.8,2.8-1.3C694,105.4,693.8,104.9,693.6,104.5z"/>
			<path class="st28" d="M700.2,95.9c0-0.3,0.1-0.6,0.4-0.6c0.3,0,0.4,0.2,0.4,0.5c0,0.5,0.4,0.8,0.6,1.2c0.2,0.4,0.5,0.7,0.6,1.2
				c0.1,0.3,0,0.5-0.3,0.6c-0.3,0.1-0.5,0-0.6-0.4c-0.1-0.7-0.7-1.1-1-1.7C700.4,96.4,700.3,96.1,700.2,95.9z"/>
			<path class="st28" d="M704.1,97.3c0,0.4-0.1,0.6-0.4,0.7c-0.3,0-0.4-0.2-0.4-0.4c-0.1-0.6-0.5-0.9-0.8-1.4
				c-0.2-0.3-0.4-0.6-0.4-1c0-0.3,0.1-0.6,0.4-0.7c0.3,0,0.4,0.2,0.4,0.5c0,0.4,0.3,0.7,0.5,1C703.7,96.4,704,96.9,704.1,97.3z"/>
			<path class="st14" d="M693.6,104.5c0.2,0.5,0.4,0.9,0.6,1.4c-0.9,0.4-1.8,0.8-2.8,1.3c-0.2-0.5-0.4-0.9-0.6-1.4
				C691.7,105.3,692.6,104.9,693.6,104.5z"/>
		</g>
	</g>
	<g class="st4">
		<g>
			<text transform="matrix(1 0 0 1 713.628 64.0741)"><tspan x="0" y="0" class="st29 st62 st63">% of the population </tspan><tspan x="0" y="14.4" class="st29 st62 st63">that is overweight</tspan></text>
		</g>
		<g>
			<circle class="st29" cx="697.3" cy="67.8" r="10.9"/>
			<g>
				<path class="st28" d="M700.2,69.5c-0.1,0.7-0.3,1.4-0.4,2.1c-0.2,1.1-0.4,2.2-0.6,3.3c-0.1,0.4-0.5,0.7-0.9,0.6
					c-0.5,0-0.8-0.3-0.8-0.8c0-1.3,0-2.6,0-3.9c0-0.1,0-0.2,0-0.3c-0.1,0-0.2,0-0.3,0c0,0.1,0,0.2,0,0.3c0,1.3,0,2.6,0,3.9
					c0,0.5-0.4,0.8-0.8,0.8c-0.5,0-0.8-0.2-0.9-0.7c-0.3-1.7-0.7-3.4-1-5.1c0,0,0,0,0-0.1c-0.1,0.1-0.1,0.1-0.1,0.2
					c-0.2,0.2-0.4,0.3-0.6,0.2c-0.2-0.1-0.4-0.2-0.5-0.4c-0.2-1.7-0.3-3.3,0.4-4.9c0.4-0.9,1-1.6,2-2c0.2-0.1,0.3-0.1,0.5,0.1
					c0.8,0.8,2,0.8,2.7-0.1c0.1-0.1,0.2-0.1,0.4-0.1c1,0.3,1.6,1,2.1,2c0.4,1,0.6,2.1,0.5,3.1c0,0.5-0.1,1.1-0.1,1.6
					c0,0.4-0.2,0.6-0.5,0.6C700.7,70.2,700.4,70,700.2,69.5C700.3,69.6,700.3,69.6,700.2,69.5z M700.2,69.1c1-0.7,0.9-3,0.3-3.7
					C700.9,66.9,700.9,67.4,700.2,69.1z M694.4,69.1c-0.3-0.5-0.5-1.1-0.6-1.7c0-0.6,0-1.2,0.3-1.8
					C693.6,66.3,693.4,68.3,694.4,69.1z"/>
				<path class="st28" d="M699,61.7c0,1-0.8,1.7-1.7,1.7c-0.9,0-1.7-0.8-1.7-1.7c0-1,0.8-1.7,1.7-1.7C698.3,59.9,699,60.7,699,61.7z
					"/>
			</g>
		</g>
	</g>
	<g class="st4">
		<text transform="matrix(1 0 0 1 211.2171 30.9944)"><tspan x="0" y="0" class="st40 st64 st65 st66">POLICIES AROUND THE WORLD</tspan><tspan x="59" y="14.4" class="st40 st67 st63 st68">While tobacco consumption is highly controlled, </tspan><tspan x="120.4" y="28.8" class="st40 st67 st63 st68">obesity rates keep increasing</tspan></text>
	</g>
</g>
<g id="Layer_2" class="st0">
	<line class="st30" x1="233.5" y1="321" x2="232.5" y2="310.8"/>
	<line class="st30" x1="244.6" y1="323.4" x2="233.5" y2="321"/>
	<line class="st30" x1="247.7" y1="336.5" x2="244.6" y2="323.4"/>
	<line class="st30" x1="252.5" y1="327.3" x2="254.1" y2="332.3"/>
	<line class="st30" x1="247.7" y1="336.5" x2="254.1" y2="332.3"/>
	<line class="st30" x1="261" y1="325.9" x2="252.5" y2="327.3"/>
	<line class="st30" x1="262" y1="316.9" x2="261" y2="325.9"/>
	<line class="st30" x1="264.9" y1="334.4" x2="261" y2="325.9"/>
	<line class="st30" x1="270.5" y1="320.7" x2="268.7" y2="328.6"/>
	<line class="st30" x1="269.6" y1="332.9" x2="268.7" y2="328"/>
	<line class="st30" x1="264.9" y1="334.4" x2="269.6" y2="332.9"/>
	<line class="st30" x1="185.7" y1="304.2" x2="199.7" y2="292.1"/>
	<line class="st30" x1="200.5" y1="296.8" x2="190.9" y2="306.5"/>
	<line class="st30" x1="208.2" y1="301.1" x2="195.6" y2="308.4"/>
	<line class="st30" x1="209.1" y1="314.6" x2="208.2" y2="311.2"/>
	<line class="st30" x1="216.5" y1="315.1" x2="214.8" y2="317.2"/>
	<line class="st30" x1="222.7" y1="317" x2="220.4" y2="319.7"/>
	<line class="st30" x1="231.7" y1="343" x2="218.6" y2="333.7"/>
	<line class="st30" x1="240.5" y1="343.6" x2="231.7" y2="343"/>
	<line class="st30" x1="239.8" y1="333.7" x2="240.5" y2="343.6"/>
	<line class="st30" x1="246.9" y1="332.9" x2="239.8" y2="333.7"/>
	<line class="st30" x1="214.1" y1="341.9" x2="216.5" y2="349.3"/>
	<line class="st30" x1="226.8" y1="339.7" x2="216.5" y2="349.3"/>
	<line class="st30" x1="239.1" y1="343.5" x2="239.1" y2="347.4"/>
	<line class="st30" x1="230.2" y1="354.9" x2="239.1" y2="347.4"/>
	<line class="st30" x1="240.1" y1="363.7" x2="230.2" y2="354.9"/>
	<line class="st30" x1="249.5" y1="359.9" x2="240.1" y2="363.7"/>
	<line class="st30" x1="250.9" y1="365.7" x2="249.5" y2="359.9"/>
	<line class="st30" x1="261.5" y1="370.1" x2="250.9" y2="365.7"/>
	<line class="st30" x1="261.5" y1="376.7" x2="261.5" y2="370.1"/>
	<line class="st30" x1="266.7" y1="376" x2="261.5" y2="376.7"/>
	<line class="st30" x1="266.5" y1="390.6" x2="266.7" y2="376"/>
	<line class="st30" x1="258.6" y1="383.3" x2="266.3" y2="384.3"/>
	<line class="st30" x1="256.7" y1="389.7" x2="258.6" y2="383.3"/>
	<line class="st30" x1="241" y1="377.9" x2="238.1" y2="379.9"/>
	<line class="st30" x1="240.1" y1="363.7" x2="241" y2="377.9"/>
	<line class="st30" x1="244.4" y1="392.2" x2="241" y2="377.9"/>
	<line class="st30" x1="256.7" y1="389.7" x2="244.3" y2="391.5"/>
	<line class="st30" x1="272.7" y1="390.2" x2="266.5" y2="390.6"/>
	<line class="st30" x1="273.3" y1="394.8" x2="272.7" y2="390.2"/>
	<line class="st30" x1="275.8" y1="394.7" x2="273.3" y2="394.8"/>
	<line class="st30" x1="275.8" y1="398.5" x2="275.8" y2="394.7"/>
	<line class="st30" x1="265.3" y1="402.7" x2="275.8" y2="398.5"/>
	<line class="st30" x1="267.8" y1="397.3" x2="265.3" y2="402.7"/>
	<line class="st30" x1="256.2" y1="389.8" x2="267.8" y2="397.3"/>
	<line class="st30" x1="268.8" y1="408.5" x2="267.6" y2="421.3"/>
	<line class="st30" x1="277.5" y1="401" x2="275.8" y2="398.5"/>
	<line class="st30" x1="268.8" y1="408.5" x2="277.5" y2="401"/>
	<line class="st30" x1="279.5" y1="416.1" x2="268.8" y2="408.5"/>
	<line class="st30" x1="231.5" y1="463.5" x2="244.4" y2="392.2"/>
	<line class="st30" x1="245.5" y1="473.4" x2="231.5" y2="463.5"/>
	<line class="st30" x1="387.2" y1="235.3" x2="381.7" y2="234"/>
	<line class="st30" x1="384.7" y1="247.7" x2="387.2" y2="235.3"/>
	<line class="st30" x1="402.2" y1="237.6" x2="400" y2="241.3"/>
	<line class="st30" x1="396.9" y1="230.2" x2="407.7" y2="234.4"/>
	<line class="st30" x1="417.8" y1="212.8" x2="404.5" y2="206.4"/>
	<line class="st30" x1="416.7" y1="217.5" x2="417.8" y2="212.8"/>
	<line class="st30" x1="413.2" y1="221.2" x2="416.7" y2="217.5"/>
	<line class="st30" x1="416" y1="222.8" x2="413.2" y2="221.2"/>
	<line class="st30" x1="416.7" y1="228.8" x2="416" y2="222.8"/>
	<line class="st30" x1="413.4" y1="206" x2="408" y2="204.9"/>
	<line class="st30" x1="414.5" y1="211.5" x2="413.4" y2="206"/>
	<line class="st30" x1="415.7" y1="201.9" x2="415.7" y2="200.1"/>
	<line class="st30" x1="413.4" y1="206" x2="415.7" y2="201.9"/>
	<line class="st30" x1="424.4" y1="197.4" x2="420.1" y2="197"/>
	<line class="st30" x1="435.7" y1="206.6" x2="433.4" y2="199.4"/>
	<line class="st30" x1="429.9" y1="208.8" x2="435.7" y2="206.6"/>
	<line class="st30" x1="433.7" y1="214.2" x2="429.9" y2="208.8"/>
	<line class="st30" x1="416.7" y1="217.5" x2="431" y2="217.4"/>
	<line class="st30" x1="433.7" y1="214.2" x2="431" y2="217.4"/>
	<line class="st30" x1="427.1" y1="217.6" x2="429.3" y2="219.7"/>
	<line class="st30" x1="416" y1="222.8" x2="429.5" y2="219.8"/>
	<line class="st30" x1="432.9" y1="223" x2="432.5" y2="220.7"/>
	<line class="st30" x1="429.5" y1="219.8" x2="432.5" y2="220.7"/>
	<line class="st30" x1="436.5" y1="223.9" x2="432.9" y2="223"/>
	<line class="st30" x1="438.5" y1="219.7" x2="432.5" y2="220.7"/>
	<line class="st30" x1="438.4" y1="221.2" x2="438.5" y2="219.7"/>
	<line class="st30" x1="436.5" y1="223.9" x2="438.4" y2="221.2"/>
	<line class="st30" x1="436.7" y1="223.9" x2="436.7" y2="223.8"/>
	<line class="st30" x1="431.4" y1="224.9" x2="435.6" y2="232.2"/>
	<line class="st30" x1="446.6" y1="225.7" x2="431.4" y2="224.9"/>
	<line class="st30" x1="438.4" y1="221.2" x2="438.1" y2="223.1"/>
	<line class="st30" x1="446.6" y1="225.7" x2="438.1" y2="223.1"/>
	<line class="st30" x1="447.3" y1="229.7" x2="446.6" y2="225.7"/>
	<line class="st30" x1="435.6" y1="232.2" x2="447.3" y2="229.7"/>
	<line class="st30" x1="449.2" y1="231.8" x2="447.3" y2="229.7"/>
	<line class="st30" x1="449.9" y1="230.7" x2="447" y2="234.7"/>
	<line class="st30" x1="452.6" y1="232.1" x2="449.9" y2="230.7"/>
	<line class="st30" x1="450.1" y1="234.1" x2="453.8" y2="233"/>
	<line class="st30" x1="452.6" y1="232.1" x2="452.2" y2="233.5"/>
	<line class="st30" x1="448.4" y1="232.8" x2="450.1" y2="234.1"/>
	<line class="st30" x1="450.9" y1="238" x2="448.6" y2="241.5"/>
	<line class="st30" x1="450.1" y1="234.1" x2="450.9" y2="238"/>
	<line class="st30" x1="454.9" y1="236" x2="450.9" y2="238"/>
	<line class="st30" x1="454.9" y1="236" x2="453.8" y2="233"/>
	<line class="st30" x1="454.8" y1="230.8" x2="453.8" y2="233"/>
	<line class="st30" x1="453.5" y1="226.4" x2="454.8" y2="230.8"/>
	<line class="st30" x1="449.2" y1="221.6" x2="438.1" y2="223.1"/>
	<line class="st30" x1="451.7" y1="225.8" x2="449.2" y2="221.6"/>
	<line class="st30" x1="453.5" y1="226.4" x2="451.7" y2="225.8"/>
	<line class="st30" x1="440.4" y1="216.1" x2="438.5" y2="219.7"/>
	<line class="st30" x1="444" y1="216.6" x2="440.4" y2="216.1"/>
	<line class="st30" x1="451" y1="214.5" x2="444" y2="216.6"/>
	<line class="st30" x1="459.1" y1="217" x2="451" y2="214.5"/>
	<line class="st30" x1="449.2" y1="221.6" x2="455.3" y2="215.8"/>
	<line class="st30" x1="467.6" y1="214.6" x2="459.1" y2="217"/>
	<line class="st30" x1="453.9" y1="212.7" x2="452.9" y2="215"/>
	<line class="st30" x1="443.8" y1="211.3" x2="453.9" y2="212.7"/>
	<line class="st30" x1="440.7" y1="213.4" x2="443.8" y2="211.3"/>
	<line class="st30" x1="440.4" y1="216.1" x2="440.7" y2="213.4"/>
	<line class="st30" x1="433.7" y1="214.2" x2="440.7" y2="213.4"/>
	<line class="st30" x1="435.7" y1="206.6" x2="443.8" y2="211.3"/>
	<line class="st30" x1="456.7" y1="206" x2="454.6" y2="198.5"/>
	<line class="st30" x1="453.9" y1="212.7" x2="456.7" y2="206"/>
	<line class="st30" x1="474" y1="205.3" x2="456.7" y2="206"/>
	<line class="st30" x1="480.5" y1="201.6" x2="474" y2="205.3"/>
	<line class="st30" x1="485.2" y1="208.2" x2="480.5" y2="201.6"/>
	<line class="st30" x1="449.7" y1="196" x2="453.3" y2="196.9"/>
	<line class="st30" x1="452.7" y1="198.2" x2="453.3" y2="196.9"/>
	<line class="st30" x1="458" y1="192.7" x2="449.1" y2="193.6"/>
	<line class="st30" x1="462.6" y1="195.3" x2="458" y2="192.7"/>
	<line class="st30" x1="454.6" y1="198.5" x2="459.6" y2="198.6"/>
	<line class="st30" x1="462.6" y1="195.3" x2="459.6" y2="198.6"/>
	<line class="st30" x1="461.5" y1="189.7" x2="458.8" y2="188.3"/>
	<line class="st30" x1="456.8" y1="189" x2="458.8" y2="188.3"/>
	<line class="st30" x1="464.3" y1="189.7" x2="461.5" y2="189.7"/>
	<line class="st30" x1="465.7" y1="193.4" x2="464.3" y2="189.7"/>
	<line class="st30" x1="462.6" y1="195.3" x2="465.7" y2="193.4"/>
	<line class="st30" x1="475.8" y1="198.6" x2="465.7" y2="193.4"/>
	<line class="st30" x1="478.7" y1="202.7" x2="475.8" y2="198.6"/>
	<line class="st30" x1="464.3" y1="189.7" x2="466.3" y2="184.5"/>
	<line class="st30" x1="454.5" y1="154.9" x2="456.6" y2="163.5"/>
	<line class="st30" x1="447.6" y1="150.8" x2="454.5" y2="154.9"/>
	<line class="st30" x1="450.5" y1="149.9" x2="447.6" y2="150.8"/>
	<line class="st30" x1="446.6" y1="153.8" x2="447.6" y2="150.8"/>
	<line class="st30" x1="441.8" y1="152.8" x2="446.6" y2="153.8"/>
	<line class="st30" x1="426.9" y1="182.5" x2="430.4" y2="166.8"/>
	<line class="st30" x1="441.8" y1="152.8" x2="432.8" y2="165.4"/>
	<line class="st30" x1="433.6" y1="166.7" x2="430.4" y2="166.8"/>
	<line class="st30" x1="432.8" y1="165.4" x2="433.6" y2="166.7"/>
	<line class="st30" x1="453.7" y1="152.8" x2="450.5" y2="149.9"/>
	<line class="st30" x1="459.5" y1="151.6" x2="453.7" y2="152.8"/>
	<line class="st30" x1="463.6" y1="147.3" x2="459.5" y2="151.6"/>
	<line class="st30" x1="469.1" y1="148.9" x2="463.6" y2="147.3"/>
	<line class="st30" x1="467.7" y1="151.3" x2="469.1" y2="148.9"/>
	<line class="st30" x1="473.6" y1="148.2" x2="467.7" y2="151.3"/>
	<line class="st30" x1="468.2" y1="159.9" x2="470.1" y2="156.5"/>
	<line class="st30" x1="467.7" y1="151.3" x2="470.1" y2="156.5"/>
	<line class="st30" x1="470.6" y1="163.8" x2="468.2" y2="159.9"/>
	<line class="st30" x1="470.2" y1="170.7" x2="470.6" y2="163.8"/>
	<line class="st30" x1="473.8" y1="173.8" x2="470.2" y2="170.7"/>
	<line class="st30" x1="465" y1="181" x2="473.8" y2="173.8"/>
	<line class="st30" x1="472.6" y1="220.7" x2="467.6" y2="214.6"/>
	<line class="st30" x1="469" y1="224.1" x2="465.8" y2="215.4"/>
	<line class="st30" x1="454.6" y1="228.6" x2="463.6" y2="229.3"/>
	<line class="st30" x1="466.6" y1="227.9" x2="463.6" y2="229.3"/>
	<line class="st30" x1="469.8" y1="229" x2="466.6" y2="227.9"/>
	<line class="st30" x1="454.9" y1="236" x2="464.1" y2="236.2"/>
	<polygon class="st30" points="466.2,235.4 465,238.2 470.6,236.4 	"/>
	<line class="st30" x1="471.6" y1="236.8" x2="478.6" y2="234.2"/>
	<line class="st30" x1="500.4" y1="235.8" x2="497.4" y2="236.4"/>
	<line class="st30" x1="504" y1="247.7" x2="500.4" y2="235.8"/>
	<line class="st30" x1="503.4" y1="232.2" x2="494.6" y2="230.5"/>
	<line class="st30" x1="511.1" y1="236.9" x2="503.4" y2="232.2"/>
	<line class="st30" x1="507.9" y1="236.9" x2="507.2" y2="234.7"/>
	<line class="st30" x1="500.4" y1="235.8" x2="507.9" y2="236.9"/>
	<line class="st30" x1="508.7" y1="242.5" x2="501.4" y2="239.3"/>
	<line class="st30" x1="508.7" y1="242.5" x2="505.5" y2="236.6"/>
	<line class="st30" x1="511.8" y1="240.7" x2="508.7" y2="242.5"/>
	<line class="st30" x1="513.4" y1="244.8" x2="511.8" y2="240.7"/>
	<line class="st30" x1="515.9" y1="239" x2="513.4" y2="244.8"/>
	<line class="st30" x1="513" y1="235.3" x2="515.9" y2="239"/>
	<line class="st30" x1="511.1" y1="236.9" x2="513" y2="235.3"/>
	<line class="st30" x1="508.6" y1="226.5" x2="513" y2="235.3"/>
	<line class="st30" x1="513.6" y1="221.8" x2="508.6" y2="226.5"/>
	<line class="st30" x1="494.4" y1="211.7" x2="485.2" y2="208.2"/>
	<line class="st30" x1="493.1" y1="218.4" x2="494.4" y2="211.7"/>
	<line class="st30" x1="507.2" y1="214.1" x2="513.6" y2="221.8"/>
	<line class="st30" x1="517.7" y1="203.9" x2="507.2" y2="214.1"/>
	<line class="st30" x1="526.2" y1="207.3" x2="517.7" y2="203.9"/>
	<line class="st30" x1="522" y1="219.6" x2="513.6" y2="221.8"/>
	<line class="st30" x1="521.3" y1="224.2" x2="522" y2="219.6"/>
	<line class="st30" x1="516.4" y1="226.5" x2="521.3" y2="224.2"/>
	<line class="st30" x1="521.1" y1="235.6" x2="516.4" y2="226.5"/>
	<line class="st30" x1="516.5" y1="247.2" x2="521.1" y2="235.6"/>
	<line class="st30" x1="526.2" y1="235" x2="521.1" y2="235.6"/>
	<line class="st30" x1="518.7" y1="245.9" x2="516.5" y2="247.2"/>
	<polygon class="st30" points="427.1,245.4 427.8,244.3 433.7,244 432.8,248.4 	"/>
	<polygon class="st30" points="420.2,234.4 421.1,229.7 418.7,231.2 419.3,234 	"/>
	<polygon class="st30" points="421,241.6 421.9,238.2 420.8,236.1 418.1,237.2 419.1,242.3 	"/>
	<line class="st30" x1="454.9" y1="198.7" x2="446.6" y2="197.2"/>
	<line class="st30" x1="504.1" y1="247.7" x2="485.3" y2="249.7"/>
</g>
<g id="Layer_4">
	<g>
		<g>
			<circle class="st40" cx="712.8" cy="396.9" r="3.6"/>
			<line class="st27" x1="712.8" y1="396.9" x2="712.8" y2="356.1"/>
		</g>
		<g>
			<circle class="st29" cx="712.5" cy="302.4" r="21.7"/>
			<text transform="matrix(1 0 0 1 700.5261 305.9108)"><tspan x="0" y="0" class="st28 st64 st112">28</tspan><tspan x="16.1" y="0" class="st28 st64 st113">%</tspan></text>
		</g>
		<g>
			<circle class="st14" cx="712.5" cy="340.1" r="15"/>
			<text transform="matrix(1 0 0 1 700.5261 343.6387)"><tspan x="0" y="0" class="st28 st64 st112">13</tspan><tspan x="16.1" y="0" class="st28 st64 st113">%</tspan></text>
		</g>
	</g>
</g>
</svg>
