<?xml version="1.0" encoding="utf-8"?>
<!-- Generator: Adobe Illustrator 19.2.1, SVG Export Plug-In . SVG Version: 6.00 Build 0)  -->
<svg version="1.1" xmlns="http://www.w3.org/2000/svg" xmlns:xlink="http://www.w3.org/1999/xlink" x="0px" y="0px"
	 viewBox="0 0 841.9 595.3" style="enable-background:new 0 0 841.9 595.3;" xml:space="preserve">
<style type="text/css">
	.st0{display:none;}
	.st1{display:inline;}
	.st2{clip-path:url(#SVGID_2_);}
	.st3{fill:#EFF7F9;}
	.st4{fill:#DDE5EC;}
	.st5{fill:#5A2A15;}
	.st6{fill:#6CB1E2;}
	.st7{fill:#E8E8E5;}
	.st8{fill:none;stroke:#000000;stroke-miterlimit:10;}
	.st9{fill:#413E3B;}
	.st10{fill:#F9D7CD;}
	.st11{fill:#FFFFFF;}
	.st12{fill:#FBF3D4;}
	.st13{fill:#A18458;}
	.st14{fill:#F0D2B3;stroke:#683C11;stroke-miterlimit:10;}
	.st15{fill:#BCBBBB;stroke:#000000;stroke-miterlimit:10;}
	.st16{fill:#DDE8B2;}
	.st17{fill:#473629;}
	.st18{fill:#C1A671;}
	.st19{fill:#DCC5A3;}
	.st20{fill:#EF892D;}
	.st21{fill:#856036;}
	.st22{fill:#FEFEFE;}
	.st23{fill:#86BD94;}
	.st24{opacity:0.5;}
	.st25{fill:#D3D3EB;}
	.st26{fill:#F7F4CA;}
	.st27{fill:#B4BFD0;}
	.st28{fill:#F2A656;}
	.st29{fill:#F3B03A;}
	.st30{fill:#CEEAF6;}
	.st31{fill:#FFD656;stroke:#000000;stroke-miterlimit:10;}
	.st32{fill:#E5272B;stroke:#000000;stroke-miterlimit:10;}
	.st33{fill:#FAB958;stroke:#000000;stroke-miterlimit:10;}
	.st34{fill:#E6E6E6;}
	.st35{fill:#EBD8EB;}
	.st36{fill:#A5703F;stroke:#000000;stroke-miterlimit:10;}
	.st37{fill:#E6E6E6;stroke:#000000;stroke-miterlimit:10;}
	.st38{fill:#AFAEAF;stroke:#000000;stroke-miterlimit:10;}
	.st39{opacity:0.9;fill:#3C3C3B;}
	.st40{fill:#FFD656;}
	.st41{fill:#E5272B;}
	.st42{fill:#FAB958;}
	.st43{fill:#DD372F;}
	.st44{fill:#EC6465;}
	.st45{fill:#CA9E67;}
	.st46{opacity:0.85;}
	.st47{fill:none;stroke:#96809B;stroke-width:2;stroke-miterlimit:10;}
	.st48{fill:none;stroke:#3AAA35;stroke-width:2;stroke-miterlimit:10;}
	.st49{opacity:0.9;}
	.st50{opacity:0.9;fill:none;stroke:#000000;stroke-width:3;stroke-miterlimit:10;}
	.st51{fill:none;stroke:#E94E1B;stroke-width:2;stroke-miterlimit:10;}
	.st52{fill:none;stroke:#F9E94F;stroke-miterlimit:10;}
	.st53{fill:none;stroke:#F9E94F;stroke-miterlimit:10;stroke-dasharray:12.3317,12.3317;}
	.st54{fill:#F9E94F;fill-opacity:0.6;stroke:#FFED00;stroke-width:2;stroke-miterlimit:10;}
	.st55{fill:#F9E94F;}
	.st56{fill:#662483;}
	.st57{fill:#8AC167;}
	.st58{fill:#91D4F2;}
	.st59{fill:#F49D71;}
	.st60{fill:#E6332A;}
	.st61{fill:none;}
	.st62{fill:#FFFFFF;stroke:#FFFFFF;stroke-width:2;stroke-miterlimit:10;}
	.st63{fill:#E79F32;stroke:#000000;stroke-miterlimit:10;}
	.st64{fill:#EFEEE4;stroke:#000000;stroke-miterlimit:10;}
	.st65{fill:#888988;stroke:#000000;stroke-miterlimit:10;}
	.st66{fill:#A2A18B;stroke:#000000;stroke-miterlimit:10;}
	.st67{fill:#9E9F9E;stroke:#000000;stroke-miterlimit:10;}
	.st68{fill:#E5AA5A;stroke:#000000;stroke-miterlimit:10;}
	.st69{fill:#010203;}
	.st70{fill:#955CA2;}
	.st71{fill:#040405;}
	.st72{fill:#222928;}
	.st73{fill:#864896;}
	.st74{fill:#B43A18;}
	.st75{fill:#220B0A;}
	.st76{fill:#AA2986;}
	.st77{fill:#230907;}
	.st78{fill:#AC3448;}
	.st79{fill:#A11A18;}
	.st80{fill:#666665;}
	.st81{fill:#A01A18;}
	.st82{fill:#B2B290;}
	.st83{fill:#1A0403;}
	.st84{fill:#B76445;}
	.st85{fill:#AB3449;}
	.st86{fill:#BC8069;}
	.st87{fill:#646463;}
	.st88{fill:#231210;}
	.st89{fill:#211720;}
	.st90{fill:#938C22;}
	.st91{fill:#BC7D65;}
	.st92{fill:#868585;}
	.st93{fill:#2B2F2E;}
	.st94{fill:#8D8723;}
	.st95{fill:#474747;}
	.st96{fill:#553225;}
	.st97{fill:#727272;}
	.st98{fill:#767575;}
	.st99{fill:#7F2231;}
	.st100{fill:#420E0C;}
	.st101{fill:#523327;}
	.st102{fill:#2E0C0B;}
	.st103{fill:#773087;}
	.st104{fill:#4E2D22;}
	.st105{fill:#A87767;}
	.st106{fill:#E84C10;}
	.st107{fill:#E84B10;}
	.st108{fill:#E1445D;}
	.st109{fill:#C0B827;}
	.st110{fill:#EB5C24;}
	.st111{fill:#7E4594;}
	.st112{fill:#B84492;}
	.st113{fill:#D2141C;}
	.st114{fill:#FAC9B5;}
	.st115{fill:#F5A383;}
	.st116{fill:#E9E8BC;}
	.st117{fill:#F4A383;}
	.st118{fill:#F07F52;}
	.st119{fill:#F7C7B8;}
	.st120{fill:#1E0D09;}
	.st121{fill:#1D0D0A;}
	.st122{fill:#D54159;}
	.st123{fill:#270B08;}
	.st124{fill:#1F0F09;}
	.st125{fill:#240B09;}
	.st126{fill:#260D0C;}
	.st127{fill:#230B0A;}
	.st128{fill:#1F0F0A;}
	.st129{fill:#6F6F6F;}
	.st130{fill:#AEA625;}
	.st131{fill:#F1C3B8;}
	.st132{fill:#B71A1A;}
	.st133{fill:#F2C5B8;}
	.st134{fill:#A59F25;}
	.st135{fill:#E24912;}
	.st136{fill:#BCBB98;}
	.st137{fill:#1F131D;}
	.st138{fill:#C7C7A2;}
	.st139{fill:#9C9623;}
	.st140{fill:#26112A;}
	.st141{fill:#2C0F28;}
	.st142{fill:#A0A0A0;}
	.st143{fill:#A2A2A2;}
	.st144{fill:#A5A5A6;}
	.st145{fill:#A3A3A3;}
	.st146{fill:#9F9F9F;}
	.st147{fill:#9F9E9F;}
	.st148{fill:#C94360;}
	.st149{fill:#7C7C7C;}
	.st150{fill:#CB4561;}
	.st151{fill:#777777;}
	.st152{fill:#767677;}
	.st153{fill:#3A3A3A;}
	.st154{fill:#4A4A4A;}
	.st155{fill:#8D8C8C;}
	.st156{fill:#777577;}
	.st157{fill:#797979;}
	.st158{fill:#494949;}
	.st159{fill:#747373;}
	.st160{fill:#7F7F7F;}
	.st161{fill:#767676;}
	.st162{fill:#767675;}
	.st163{fill:#787878;}
	.st164{fill:#878688;}
	.st165{fill:#313131;}
	.st166{fill:#ABABAB;}
	.st167{fill:#717171;}
	.st168{fill:#8C8C8B;}
	.st169{fill:#828282;}
	.st170{fill:#454545;}
	.st171{fill:#9D9D9D;}
	.st172{fill:#8D8D8D;}
	.st173{fill:#414142;}
	.st174{fill:#7D7B7E;}
	.st175{fill:#A1A1A1;}
	.st176{fill:#95191D;}
	.st177{fill:#373737;}
	.st178{fill:#141515;}
	.st179{fill:#727172;}
	.st180{fill:#838281;}
	.st181{fill:#9A9A99;}
	.st182{fill:#4B4B4B;}
	.st183{fill:#999999;}
	.st184{fill:#737373;}
	.st185{fill:#A6A5A7;}
	.st186{fill:#2F1F1E;}
	.st187{fill:#909090;}
	.st188{fill:#858584;}
	.st189{fill:#898989;}
	.st190{fill:#4C4C4C;}
	.st191{fill:#8B8A8A;}
	.st192{fill:#9C9C9C;}
	.st193{fill:#494848;}
	.st194{fill:#D0D0D0;}
	.st195{fill:#BB4492;}
	.st196{fill:#BA4392;}
	.st197{fill:#B1388C;}
	.st198{fill:#2C1029;}
	.st199{fill:#240F27;}
	.st200{fill:#7D7D7F;}
	.st201{fill:#7A7A7A;}
	.st202{fill:#797879;}
	.st203{fill:#767576;}
	.st204{fill:#7F3D90;}
	.st205{fill:#1B0D21;}
	.st206{fill:#814091;}
	.st207{fill:#803F91;}
	.st208{fill:#763689;}
	.st209{fill:#3A1D4C;}
	.st210{fill:#773587;}
	.st211{fill:#411C4B;}
	.st212{fill:#C0B82A;}
	.st213{fill:#BDB629;}
	.st214{fill:#B5AD27;}
	.st215{fill:#B33D8E;}
	.st216{fill:#AF348A;}
	.st217{fill:#878889;}
	.st218{fill:#919091;}
	.st219{fill:#ABAAA9;}
	.st220{fill:#484748;}
	.st221{fill:#979694;}
	.st222{fill:#5B5C5B;}
	.st223{fill:#9C9FA0;}
	.st224{fill:#908F8F;}
	.st225{fill:#7D7C7C;}
	.st226{fill:#7F7E80;}
	.st227{fill:#959695;}
	.st228{fill:#8E8E8E;}
	.st229{fill:#515252;}
	.st230{fill:#3E3F40;}
	.st231{fill:#504D4D;}
	.st232{fill:#8F9191;}
	.st233{fill:#969595;}
	.st234{fill:#262A29;}
	.st235{fill:#8D529B;}
	.st236{fill:#1C0C21;}
	.st237{fill:#692B7B;}
	.st238{fill:#4C235B;}
	.st239{fill:#C34018;}
	.st240{fill:#BB3D18;}
	.st241{fill:#CC4218;}
	.st242{fill:#581B0D;}
	.st243{fill:#4F1A0D;}
	.st244{fill:#4D190C;}
	.st245{fill:#CC3E55;}
	.st246{fill:#DC435C;}
	.st247{fill:#D4531F;}
	.st248{fill:#B7394D;}
	.st249{fill:#DB5724;}
	.st250{fill:#C94F1F;}
	.st251{fill:#160411;}
	.st252{fill:#C6181B;}
	.st253{fill:#AC1A1A;}
	.st254{fill:#BF191A;}
	.st255{fill:#D34416;}
	.st256{fill:#DB4715;}
	.st257{fill:#AC1A19;}
	.st258{fill:#CD6E4B;}
	.st259{fill:#5A2916;}
	.st260{fill:#4B2013;}
	.st261{fill:#5B2D1D;}
	.st262{fill:#562214;}
	.st263{fill:#B4374C;}
	.st264{fill:#882836;}
	.st265{fill:#77202C;}
	.st266{fill:#D48F74;}
	.st267{fill:#C9876F;}
	.st268{fill:#86533E;}
	.st269{fill:#BFBC9B;}
	.st270{fill:#C03B51;}
	.st271{fill:#D8D6AE;}
	.st272{fill:#CAC9A3;}
	.st273{fill:#040304;}
	.st274{fill:#220901;}
	.st275{fill:#AA3417;}
	.st276{fill:#AC3317;}
	.st277{fill:#772511;}
	.st278{fill:#A02F16;}
	.st279{fill:#651F10;}
	.st280{fill:#54190D;}
	.st281{fill:#621C0F;}
	.st282{fill:#391009;}
	.st283{fill:#C3441A;}
	.st284{fill:#7F2111;}
	.st285{fill:#8F2814;}
	.st286{fill:#E34A12;}
	.st287{fill:#EF9F80;}
	.st288{fill:#270B01;}
	.st289{fill:#C23B18;}
	.st290{fill:#050304;}
	.st291{fill:#1B0506;}
	.st292{fill:#9E2C3E;}
	.st293{fill:#9D2B3B;}
	.st294{fill:#401218;}
	.st295{fill:#992938;}
	.st296{fill:#601C25;}
	.st297{fill:#571920;}
	.st298{fill:#D2C86B;}
	.st299{fill:#161406;}
	.st300{fill:#8B8120;}
	.st301{fill:#8D8523;}
	.st302{fill:#362E15;}
	.st303{fill:#71661D;}
	.st304{fill:#342E13;}
	.st305{fill:#453E17;}
	.st306{fill:#7E761E;}
	.st307{fill:#483D14;}
	.st308{fill:#877E1F;}
	.st309{fill:#E75A21;}
	.st310{fill:#EB7C50;}
	.st311{fill:#DE5720;}
	.st312{fill:#270D03;}
	.st313{fill:#301103;}
	.st314{fill:#F1BCA4;}
	.st315{fill:#642211;}
	.st316{fill:#5A2210;}
	.st317{fill:#CB5122;}
	.st318{fill:#4C1C08;}
	.st319{fill:#B4421B;}
	.st320{fill:#1E1217;}
	.st321{fill:#73348B;}
	.st322{fill:#140619;}
	.st323{fill:#72338A;}
	.st324{fill:#6F2D87;}
	.st325{fill:#3C1D4E;}
	.st326{fill:#3D1F52;}
	.st327{fill:#ED8058;}
	.st328{fill:#2A0E03;}
	.st329{fill:#2A160F;}
	.st330{fill:#6D2713;}
	.st331{fill:#AE3F1C;}
	.st332{fill:#5B2110;}
	.st333{fill:#983216;}
	.st334{fill:#682612;}
	.st335{fill:#331008;}
	.st336{fill:#C44A1D;}
	.st337{fill:#48190E;}
	.st338{fill:#E17D5A;}
	.st339{fill:#190414;}
	.st340{fill:#B54090;}
	.st341{fill:#881F73;}
	.st342{fill:#792068;}
	.st343{fill:#E0445D;}
	.st344{fill:#050404;}
	.st345{fill:#1F0603;}
	.st346{fill:#1B0504;}
	.st347{fill:#B31820;}
	.st348{fill:#911916;}
	.st349{fill:#D11421;}
	.st350{fill:#971A17;}
	.st351{fill:#501212;}
	.st352{fill:#46100E;}
	.st353{fill:#B81A1F;}
	.st354{fill:#751618;}
	.st355{fill:#B31920;}
	.st356{fill:#3C0F0F;}
	.st357{fill:#5A1313;}
	.st358{fill:#3B0D0A;}
	.st359{fill:#4E1211;}
	.st360{fill:#5A1410;}
	.st361{fill:#591411;}
	.st362{fill:#90191B;}
	.st363{fill:#623223;}
	.st364{fill:#64473C;}
	.st365{fill:#AD8478;}
	.st366{fill:#A27A6D;}
	.st367{fill:#5F453C;}
	.st368{fill:#E1B4A6;}
	.st369{fill:#A67F70;}
	.st370{fill:#A3796A;}
	.st371{fill:#F1A288;}
	.st372{fill:#A86B54;}
	.st373{fill:#9B6048;}
	.st374{fill:#DED691;}
	.st375{fill:#918D6C;}
	.st376{fill:#959170;}
	.st377{fill:#989571;}
	.st378{fill:#A09C7A;}
	.st379{fill:#504B3A;}
	.st380{fill:#9C9875;}
	.st381{fill:#9F9B7B;}
	.st382{fill:#6A4E43;}
	.st383{fill:#A1786A;}
	.st384{fill:#5A4037;}
	.st385{fill:#A47D6D;}
	.st386{fill:#9E7869;}
	.st387{fill:#AA8478;}
	.st388{fill:#23130D;}
	.st389{fill:#42281D;}
	.st390{fill:#BA8479;}
	.st391{fill:#E27C57;}
	.st392{fill:#A65134;}
	.st393{fill:#A14C29;}
	.st394{fill:#AB8677;}
	.st395{fill:#785C53;}
	.st396{fill:#9F7A6A;}
	.st397{fill:#4D3329;}
	.st398{fill:#AF8575;}
	.st399{fill:#A17B6C;}
	.st400{fill:#C6BD3F;}
	.st401{fill:#E8E7BA;}
	.st402{fill:#E4E3B7;}
	.st403{fill:#D8425A;}
	.st404{fill:#DDDCB3;}
	.st405{fill:#D04058;}
	.st406{fill:#C6BD3E;}
	.st407{fill:#040404;}
	.st408{fill:#4E352B;}
	.st409{fill:#222222;}
	.st410{fill:#2B2B2B;}
	.st411{fill:#111111;}
	.st412{fill:#161617;}
	.st413{fill:#111212;}
	.st414{fill:#2F2F2F;}
	.st415{fill:#5E5E5E;}
	.st416{fill:#1E1316;}
	.st417{fill:#74358B;}
	.st418{fill:#100515;}
	.st419{fill:#3F1F53;}
	.st420{fill:#722F89;}
	.st421{fill:#46215B;}
	.st422{fill:#703088;}
	.st423{fill:#841F6F;}
	.st424{fill:#891E6E;}
	.st425{fill:#262626;}
	.st426{fill:#878686;}
	.st427{fill:#474847;}
	.st428{fill:#8E8E8F;}
	.st429{fill:#838382;}
	.st430{fill:#7D7D7D;}
	.st431{fill:#807E81;}
	.st432{fill:#99989A;}
	.st433{fill:#868787;}
	.st434{fill:#949696;}
	.st435{fill:#C3C0C2;}
	.st436{fill:#B1AEAF;}
	.st437{fill:#9E9EA0;}
	.st438{fill:#A6A4A4;}
	.st439{fill:#444243;}
	.st440{fill:#8F8C8F;}
	.st441{fill:#D3CED2;}
	.st442{fill:#8C8121;}
	.st443{fill:#50471A;}
	.st444{fill:#9D9329;}
	.st445{fill:#776E1E;}
	.st446{fill:#3F3615;}
	.st447{fill:#9E9428;}
	.st448{fill:#7A711E;}
	.st449{fill:#8C8321;}
	.st450{fill:#A49B2E;}
	.st451{fill:#6F651C;}
	.st452{fill:#796F1E;}
	.st453{fill:#736B1E;}
	.st454{fill:#968E25;}
	.st455{fill:#645A1B;}
	.st456{fill:#404040;}
	.st457{fill:#908E8F;}
	.st458{fill:#8D8E8C;}
	.st459{fill:#7A7577;}
	.st460{fill:#9F9FA0;}
	.st461{fill:#9E9F9E;}
	.st462{fill:#9A9D9B;}
	.st463{fill:#9E9C9B;}
	.st464{fill:#898888;}
	.st465{fill:#242323;}
	.st466{fill:#9B9B9B;}
	.st467{fill:#2D302F;}
	.st468{fill:#303232;}
	.st469{fill:#8B8B8B;}
	.st470{fill:#80807F;}
	.st471{fill:#6C6C6B;}
	.st472{fill:#969696;}
	.st473{fill:#989898;}
	.st474{fill:#A2A1A1;}
	.st475{fill:#A5A5A5;}
	.st476{fill:#898988;}
	.st477{fill:#742B86;}
	.st478{fill:#CD4318;}
	.st479{fill:#942C14;}
	.st480{fill:#902B14;}
	.st481{fill:#BF3F18;}
	.st482{fill:#9D3116;}
	.st483{fill:#C13B51;}
	.st484{fill:#DD764E;}
	.st485{fill:#43190D;}
	.st486{fill:#4E1C0C;}
	.st487{fill:#AE4A23;}
	.st488{fill:#DF9478;}
	.st489{fill:#9F5133;}
	.st490{fill:#8F4527;}
	.st491{fill:#8F5847;}
	.st492{fill:#9B644F;}
	.st493{fill:#D3D1AB;}
	.st494{fill:#959271;}
	.st495{fill:#979475;}
	.st496{fill:#757676;}
	.st497{fill:#8C8C8C;}
	.st498{fill:#989797;}
	.st499{fill:#A1A0A0;}
	.st500{fill:#8F8E93;}
	.st501{fill:#908F92;}
	.st502{fill:#3F3F40;}
	.st503{fill:#737273;}
	.st504{fill:#E99B7C;}
	.st505{fill:#2C0D07;}
	.st506{fill:#1F0705;}
	.st507{fill:#921A16;}
	.st508{fill:#991A17;}
	.st509{fill:#C6171F;}
	.st510{fill:#501210;}
	.st511{fill:#671513;}
	.st512{fill:#511310;}
	.st513{fill:#AC1A1D;}
	.st514{fill:#929191;}
	.st515{fill:#9C9D9D;}
	.st516{fill:#515052;}
	.st517{fill:#9D9C9F;}
	.st518{fill:#C3C2C4;}
	.st519{fill:#A09FA1;}
	.st520{fill:#595959;}
	.st521{fill:#4B4A4D;}
	.st522{fill:#252625;}
	.st523{fill:#706F6E;}
	.st524{fill:#464545;}
	.st525{fill:#929292;}
	.st526{fill:#535352;}
	.st527{fill:#9D9F9E;}
	.st528{fill:#878787;}
	.st529{fill:#7A7979;}
	.st530{fill:#9B9B9A;}
	.st531{fill:#A6A6A6;}
	.st532{fill:#908F90;}
	.st533{fill:#797678;}
	.st534{fill:#424343;}
	.st535{fill:#BEBEBF;}
	.st536{fill:#9B9B9C;}
	.st537{fill:#9C9D9C;}
	.st538{fill:#4C4C4B;}
	.st539{fill:#443C1C;}
	.st540{fill:#C7BE6E;}
	.st541{fill:#8B803B;}
	.st542{fill:#817632;}
	.st543{fill:#7A7030;}
	.st544{fill:#887C36;}
	.st545{fill:#9F9653;}
	.st546{fill:#ADA45A;}
	.st547{fill:#A23B19;}
	.st548{fill:#0E0311;}
	.st549{fill:#6F2E86;}
	.st550{fill:#682F19;}
	.st551{fill:#602616;}
	.st552{fill:#6B3221;}
	.st553{fill:#AB522D;}
	.st554{fill:#3E1707;}
	.st555{fill:#AA3289;}
	.st556{fill:#40153A;}
	.st557{fill:#95293B;}
	.st558{fill:#9F2C3E;}
	.st559{fill:#982937;}
	.st560{fill:#601D27;}
	.st561{fill:#A12D40;}
	.st562{fill:#611C25;}
	.st563{fill:#4E4E4D;}
	.st564{fill:#9B999A;}
	.st565{fill:#91918F;}
	.st566{fill:#B1B1B1;}
	.st567{fill:#A5A3A3;}
	.st568{fill:#4D4D4D;}
	.st569{fill:#4E4D4D;}
	.st570{fill:#8E5A49;}
	.st571{fill:#5D372A;}
	.st572{fill:#B0745E;}
	.st573{fill:#562D20;}
	.st574{fill:#532E1C;}
	.st575{fill:#C0B845;}
	.st576{fill:#908958;}
	.st577{fill:#352F15;}
	.st578{fill:#928856;}
	.st579{fill:#AAA270;}
	.st580{fill:#5F5838;}
	.st581{fill:#B4AC78;}
	.st582{fill:#978F58;}
	.st583{fill:#7D723D;}
	.st584{fill:#A39D68;}
	.st585{fill:#B9B081;}
	.st586{fill:#908756;}
	.st587{fill:#A09867;}
	.st588{fill:#B1AA72;}
	.st589{fill:#514C2C;}
	.st590{fill:#9A955F;}
	.st591{fill:#8B8551;}
	.st592{fill:#CDC35C;}
	.st593{fill:#897E25;}
	.st594{fill:#564C1F;}
	.st595{fill:#786D1F;}
	.st596{fill:#7B6F1D;}
	.st597{fill:#9F9C79;}
	.st598{fill:#8E8967;}
	.st599{fill:#54503A;}
	.st600{fill:#93906D;}
	.st601{fill:#121005;}
	.st602{fill:#8C8128;}
	.st603{fill:#877C29;}
	.st604{fill:#463D1A;}
	.st605{fill:#252210;}
	.st606{fill:#7D741F;}
	.st607{fill:#60605F;}
	.st608{fill:#7A7B78;}
	.st609{fill:#A6A3A6;}
	.st610{fill:#919191;}
	.st611{fill:#B0AFAF;}
	.st612{fill:#682B7A;}
	.st613{fill:#B93D8E;}
	.st614{fill:#401438;}
	.st615{fill:#B3378B;}
	.st616{fill:#B1A65D;}
	.st617{fill:#897E3A;}
	.st618{fill:#A99F5A;}
	.st619{fill:#958C43;}
	.st620{fill:#514725;}
	.st621{fill:#817833;}
	.st622{fill:#BFB366;}
	.st623{fill:#984729;}
	.st624{fill:#B05B41;}
	.st625{fill:#534A26;}
</style>
<g id="Layer_2">
	<g>
		<line class="st8" x1="31.3" y1="162.7" x2="9.4" y2="173.1"/>
		<line class="st8" x1="43" y1="161.9" x2="35.5" y2="171.4"/>
		<line class="st8" x1="9.4" y1="173.1" x2="35.5" y2="171.4"/>
		<line class="st8" x1="31.3" y1="162.7" x2="61.3" y2="161"/>
		<line class="st8" x1="41.5" y1="141.7" x2="31.3" y2="162.7"/>
		<line class="st8" x1="61.3" y1="161" x2="41.5" y2="141.7"/>
		<line class="st8" x1="65" y1="130.5" x2="41.5" y2="141.7"/>
		<line class="st8" x1="61.3" y1="161" x2="65" y2="130.5"/>
		<line class="st8" x1="90.6" y1="136.1" x2="83.3" y2="129.5"/>
		<line class="st8" x1="65" y1="130.5" x2="83.3" y2="129.5"/>
		<line class="st8" x1="61.3" y1="161" x2="90.6" y2="136.1"/>
		<line class="st8" x1="82" y1="166.6" x2="61.3" y2="161"/>
		<line class="st8" x1="62" y1="168.9" x2="61.3" y2="161"/>
		<line class="st8" x1="82" y1="166.6" x2="62" y2="168.9"/>
		<line class="st8" x1="90.6" y1="136.1" x2="129.5" y2="163.8"/>
		<line class="st8" x1="82" y1="166.6" x2="129.5" y2="163.8"/>
		<line class="st8" x1="90.6" y1="136.1" x2="141" y2="134.2"/>
		<line class="st8" x1="129.5" y1="163.8" x2="141" y2="134.2"/>
		<line class="st8" x1="82" y1="166.6" x2="135.2" y2="199.6"/>
		<line class="st8" x1="129.5" y1="163.8" x2="135.2" y2="199.6"/>
		<line class="st8" x1="173.4" y1="162.8" x2="129.5" y2="163.8"/>
		<line class="st8" x1="141" y1="134.2" x2="162.6" y2="141.7"/>
		<line class="st8" x1="173.4" y1="162.8" x2="162.6" y2="141.7"/>
		<line class="st8" x1="155.8" y1="116.4" x2="156.3" y2="139.5"/>
		<line class="st8" x1="139.6" y1="126.1" x2="155.8" y2="116.4"/>
		<line class="st8" x1="156.1" y1="127.9" x2="139.6" y2="126.1"/>
		<line class="st8" x1="169" y1="122.9" x2="155.8" y2="116.4"/>
		<line class="st8" x1="156.1" y1="127.9" x2="169" y2="122.9"/>
		<line class="st8" x1="171.6" y1="130.6" x2="169" y2="122.9"/>
		<line class="st8" x1="180.3" y1="123.3" x2="169" y2="122.9"/>
		<line class="st8" x1="178.5" y1="131.8" x2="180.3" y2="123.3"/>
		<line class="st8" x1="171.6" y1="130.6" x2="178.5" y2="131.8"/>
		<line class="st8" x1="156.3" y1="137.9" x2="167.3" y2="135.1"/>
		<line class="st8" x1="171.6" y1="130.6" x2="167.3" y2="135.1"/>
		<line class="st8" x1="162.6" y1="141.7" x2="186.5" y2="137.9"/>
		<line class="st8" x1="173.4" y1="162.8" x2="186.5" y2="137.9"/>
		<line class="st8" x1="200.2" y1="131.2" x2="186.5" y2="137.9"/>
		<line class="st8" x1="191.4" y1="153.2" x2="200.2" y2="131.2"/>
		<line class="st8" x1="213.5" y1="137.9" x2="200.2" y2="131.2"/>
		<line class="st8" x1="191.4" y1="153.2" x2="213.5" y2="137.9"/>
		<line class="st8" x1="206.8" y1="154.7" x2="213.5" y2="137.9"/>
		<line class="st8" x1="191.4" y1="153.2" x2="206.8" y2="154.7"/>
		<line class="st8" x1="173.4" y1="162.8" x2="192.1" y2="153.2"/>
		<line class="st8" x1="185.8" y1="125.4" x2="185.1" y2="132.8"/>
		<line class="st8" x1="199.1" y1="126.7" x2="185.4" y2="133.9"/>
		<line class="st8" x1="190.2" y1="121.2" x2="185.8" y2="125.4"/>
		<line class="st8" x1="199.1" y1="121.2" x2="190.2" y2="121.2"/>
		<line class="st8" x1="199.1" y1="126.7" x2="199.1" y2="121.2"/>
		<line class="st8" x1="191.3" y1="121.2" x2="192.3" y2="130.3"/>
		<line class="st8" x1="208.8" y1="131.2" x2="217.3" y2="123.3"/>
		<line class="st8" x1="228.2" y1="130.8" x2="217.3" y2="123.3"/>
		<line class="st8" x1="208.8" y1="131.2" x2="251.8" y2="130.3"/>
		<line class="st8" x1="217.3" y1="123.3" x2="232.8" y2="124"/>
		<line class="st8" x1="238.8" y1="130" x2="232.8" y2="124"/>
		<line class="st8" x1="232.8" y1="140.9" x2="228.2" y2="130.8"/>
		<line class="st8" x1="238.8" y1="130" x2="232.8" y2="140.9"/>
		<line class="st8" x1="251.6" y1="143.2" x2="232.8" y2="140.9"/>
		<line class="st8" x1="251.8" y1="130.3" x2="251.6" y2="143.2"/>
		<line class="st8" x1="237.2" y1="158.6" x2="251.6" y2="143.2"/>
		<line class="st8" x1="232.8" y1="140.9" x2="227.8" y2="149.9"/>
		<line class="st8" x1="237.2" y1="158.6" x2="227.8" y2="149.9"/>
		<line class="st8" x1="206.8" y1="198.5" x2="173.4" y2="162.8"/>
		<line class="st8" x1="214.7" y1="209" x2="206.8" y2="198.5"/>
		<line class="st8" x1="183.6" y1="173.8" x2="202.4" y2="169.6"/>
		<line class="st8" x1="206.8" y1="198.5" x2="202.4" y2="169.6"/>
		<line class="st8" x1="215.3" y1="152.2" x2="202.4" y2="169.6"/>
		<line class="st8" x1="225.2" y1="193.2" x2="215.3" y2="152.2"/>
		<line class="st8" x1="206.8" y1="198.5" x2="225.2" y2="193.2"/>
		<line class="st8" x1="230.5" y1="208.2" x2="225.2" y2="193.2"/>
		<line class="st8" x1="214.7" y1="209" x2="231.1" y2="207.9"/>
		<line class="st8" x1="225.2" y1="193.2" x2="238.9" y2="174.2"/>
		<line class="st8" x1="248.7" y1="181.7" x2="238.9" y2="174.2"/>
		<line class="st8" x1="225.2" y1="193.2" x2="235.2" y2="192"/>
		<line class="st8" x1="248.7" y1="181.7" x2="235.2" y2="192"/>
		<line class="st8" x1="238.9" y1="174.2" x2="231.1" y2="158.6"/>
		<line class="st8" x1="215.3" y1="152.2" x2="231.1" y2="158.6"/>
		<line class="st8" x1="219.2" y1="168.5" x2="231.1" y2="158.6"/>
		<line class="st8" x1="248.7" y1="181.7" x2="254.5" y2="184"/>
		<line class="st8" x1="251.7" y1="201.9" x2="254.5" y2="184"/>
		<line class="st8" x1="248.7" y1="181.7" x2="237.3" y2="197.3"/>
		<line class="st8" x1="251.7" y1="201.9" x2="237.3" y2="197.3"/>
		<line class="st8" x1="245.5" y1="186.1" x2="252.4" y2="197.3"/>
		<line class="st8" x1="158.3" y1="214.4" x2="173.4" y2="162.8"/>
		<line class="st8" x1="206.8" y1="198.5" x2="158.3" y2="214.4"/>
		<line class="st8" x1="185.4" y1="229.3" x2="158.3" y2="214.4"/>
		<line class="st8" x1="214.7" y1="209" x2="185.4" y2="229.3"/>
		<line class="st8" x1="135.2" y1="199.6" x2="158.3" y2="214.4"/>
		<line class="st8" x1="166.6" y1="185.9" x2="135.2" y2="199.6"/>
		<line class="st8" x1="82" y1="166.6" x2="93.6" y2="208.4"/>
		<line class="st8" x1="135.2" y1="199.6" x2="93.6" y2="208.4"/>
		<line class="st8" x1="96.8" y1="235.7" x2="93.6" y2="208.4"/>
		<line class="st8" x1="82" y1="166.6" x2="73.4" y2="200.7"/>
		<line class="st8" x1="96.8" y1="235.7" x2="73.4" y2="200.7"/>
		<line class="st8" x1="59.5" y1="225.4" x2="73.4" y2="200.7"/>
		<line class="st8" x1="96.8" y1="235.7" x2="59.5" y2="225.4"/>
		<line class="st8" x1="69.1" y1="243.2" x2="59.5" y2="225.4"/>
		<line class="st8" x1="79.7" y1="231" x2="69.1" y2="243.2"/>
		<line class="st8" x1="70.4" y1="255" x2="69.1" y2="243.2"/>
		<line class="st8" x1="96.8" y1="235.7" x2="70.4" y2="255"/>
		<line class="st8" x1="92.6" y1="272.7" x2="96.9" y2="237.1"/>
		<line class="st8" x1="70.4" y1="255" x2="92.6" y2="272.7"/>
		<line class="st8" x1="123.1" y1="260.1" x2="92.6" y2="272.7"/>
		<line class="st8" x1="96.8" y1="235.7" x2="123.1" y2="260.1"/>
		<line class="st8" x1="141.7" y1="252.4" x2="123.1" y2="260.1"/>
		<line class="st8" x1="96.8" y1="235.7" x2="141.7" y2="252.4"/>
		<line class="st8" x1="185.4" y1="229.3" x2="95.2" y2="237.1"/>
		<line class="st8" x1="158.3" y1="214.4" x2="95.2" y2="237.1"/>
		<line class="st8" x1="154.8" y1="256.3" x2="141.7" y2="252.4"/>
		<line class="st8" x1="185.4" y1="229.3" x2="171.8" y2="244.1"/>
		<line class="st8" x1="154.8" y1="256.3" x2="171.8" y2="244.1"/>
		<line class="st8" x1="155.5" y1="232" x2="163.3" y2="250.9"/>
		<line class="st8" x1="171.8" y1="244.1" x2="155.5" y2="232"/>
		<line class="st8" x1="163.3" y1="250.9" x2="164.2" y2="270.9"/>
		<line class="st8" x1="154.8" y1="256.3" x2="164.2" y2="270.9"/>
		<line class="st8" x1="89.2" y1="290" x2="92.8" y2="270.9"/>
		<line class="st8" x1="112.8" y1="273.9" x2="123.1" y2="260.1"/>
		<line class="st8" x1="89.2" y1="290" x2="112.8" y2="273.9"/>
		<line class="st8" x1="126.7" y1="288.7" x2="112.8" y2="273.9"/>
		<line class="st8" x1="113.1" y1="299.1" x2="91" y2="288.7"/>
		<line class="st8" x1="135.2" y1="279.8" x2="113.1" y2="299.1"/>
		<line class="st8" x1="138.5" y1="293.9" x2="142.6" y2="279.8"/>
		<line class="st8" x1="135.2" y1="279.8" x2="142.6" y2="279.8"/>
		<line class="st8" x1="113.1" y1="299.1" x2="126.7" y2="299.4"/>
		<line class="st8" x1="138.5" y1="293.9" x2="126.7" y2="299.4"/>
		<line class="st8" x1="143.8" y1="319.5" x2="126.7" y2="299.4"/>
		<line class="st8" x1="149.1" y1="299.2" x2="138.5" y2="293.9"/>
		<line class="st8" x1="143.8" y1="319.5" x2="149.1" y2="299.2"/>
		<line class="st8" x1="138.5" y1="293.9" x2="135.3" y2="309.5"/>
		<line class="st8" x1="146.5" y1="309.5" x2="159.6" y2="317"/>
		<line class="st8" x1="163.7" y1="331.7" x2="159.6" y2="317"/>
		<line class="st8" x1="143.8" y1="319.5" x2="163.7" y2="331.7"/>
		<line class="st8" x1="174.1" y1="309.4" x2="159.6" y2="317"/>
		<line class="st8" x1="174.1" y1="309.4" x2="157.7" y2="344.4"/>
		<line class="st8" x1="182.8" y1="316.7" x2="174.1" y2="309.4"/>
		<line class="st8" x1="202.4" y1="317.9" x2="182.8" y2="316.7"/>
		<line class="st8" x1="210.7" y1="329.6" x2="202.4" y2="317.9"/>
		<line class="st8" x1="230.2" y1="331.2" x2="210.7" y2="329.6"/>
		<line class="st8" x1="235" y1="344.1" x2="230.2" y2="331.2"/>
		<line class="st8" x1="247.4" y1="351.9" x2="235" y2="344.1"/>
		<line class="st8" x1="279.1" y1="362.3" x2="247.4" y2="351.9"/>
		<line class="st8" x1="271.6" y1="389" x2="256.9" y2="354.4"/>
		<line class="st8" x1="280.7" y1="379" x2="279.1" y2="362.3"/>
		<line class="st8" x1="271.6" y1="389" x2="280.7" y2="379"/>
		<line class="st8" x1="264.2" y1="373.9" x2="279.1" y2="362.3"/>
		<line class="st8" x1="221.5" y1="376.8" x2="264.2" y2="373.9"/>
		<line class="st8" x1="188.8" y1="408.7" x2="247.4" y2="351.9"/>
		<line class="st8" x1="190.5" y1="346.8" x2="221.5" y2="376.8"/>
		<line class="st8" x1="235" y1="344.1" x2="190.5" y2="346.8"/>
		<line class="st8" x1="210.7" y1="329.6" x2="190.5" y2="346.8"/>
		<line class="st8" x1="182.8" y1="316.7" x2="190.5" y2="346.8"/>
		<line class="st8" x1="157.7" y1="344.4" x2="190.5" y2="346.8"/>
		<line class="st8" x1="156.8" y1="370.6" x2="157.7" y2="344.4"/>
		<line class="st8" x1="190.5" y1="346.8" x2="156.8" y2="370.6"/>
		<line class="st8" x1="188.8" y1="408.7" x2="190.5" y2="346.8"/>
		<line class="st8" x1="156.8" y1="370.6" x2="188.8" y2="408.7"/>
		<line class="st8" x1="271.6" y1="389" x2="188.8" y2="408.7"/>
		<line class="st8" x1="221.5" y1="376.8" x2="224.3" y2="398.9"/>
		<line class="st8" x1="249.6" y1="428.6" x2="188.8" y2="408.7"/>
		<line class="st8" x1="249.7" y1="394.2" x2="249.6" y2="428.6"/>
		<line class="st8" x1="271.6" y1="389" x2="267.4" y2="418.7"/>
		<line class="st8" x1="249.6" y1="428.6" x2="267.4" y2="418.7"/>
		<line class="st8" x1="249.7" y1="407" x2="267.4" y2="418.7"/>
		<line class="st8" x1="193.9" y1="427.7" x2="188.8" y2="408.7"/>
		<line class="st8" x1="233.2" y1="453.9" x2="193.9" y2="427.7"/>
		<line class="st8" x1="244" y1="452.3" x2="249.6" y2="428.6"/>
		<line class="st8" x1="233.2" y1="453.9" x2="244" y2="452.3"/>
		<line class="st8" x1="215.3" y1="442" x2="249.6" y2="428.6"/>
		<line class="st8" x1="193.2" y1="443.6" x2="215.3" y2="442"/>
		<line class="st8" x1="193.9" y1="427.7" x2="191.3" y2="473.8"/>
		<line class="st8" x1="213.6" y1="510.9" x2="191.3" y2="473.8"/>
		<line class="st8" x1="215.3" y1="442" x2="191.3" y2="473.8"/>
		<line class="st8" x1="221.3" y1="475" x2="215.3" y2="442"/>
		<line class="st8" x1="213.6" y1="510.9" x2="221.3" y2="475"/>
		<line class="st8" x1="197.8" y1="484.7" x2="232.5" y2="469.9"/>
		<line class="st8" x1="233.2" y1="453.9" x2="232.5" y2="469.9"/>
		<line class="st8" x1="213.6" y1="510.9" x2="222.9" y2="505.2"/>
		<line class="st8" x1="232.5" y1="519.8" x2="222.9" y2="505.2"/>
		<line class="st8" x1="213.6" y1="520.2" x2="232.5" y2="519.8"/>
		<line class="st8" x1="213.6" y1="510.9" x2="213.6" y2="520.2"/>
		<line class="st8" x1="252.2" y1="486.5" x2="262.5" y2="480.4"/>
		<line class="st8" x1="264.4" y1="492.3" x2="262.5" y2="480.4"/>
		<line class="st8" x1="252.2" y1="486.5" x2="255.9" y2="494.7"/>
		<line class="st8" x1="264.4" y1="492.3" x2="255.9" y2="494.7"/>
		<line class="st8" x1="182.5" y1="283.2" x2="188.6" y2="296.6"/>
		<line class="st8" x1="198.3" y1="293.9" x2="188.6" y2="296.6"/>
		<line class="st8" x1="182.5" y1="283.2" x2="198.3" y2="293.9"/>
		<line class="st8" x1="203.6" y1="288.6" x2="204.3" y2="281.3"/>
		<line class="st8" x1="213.6" y1="281.9" x2="204.3" y2="281.3"/>
		<line class="st8" x1="216.4" y1="289.9" x2="213.6" y2="281.9"/>
		<line class="st8" x1="213.6" y1="295.3" x2="203.6" y2="288.6"/>
		<line class="st8" x1="216.4" y1="289.9" x2="213.6" y2="295.3"/>
		<line class="st8" x1="198.3" y1="293.9" x2="194.4" y2="299.2"/>
		<line class="st8" x1="198.5" y1="306.4" x2="194.4" y2="299.2"/>
		<line class="st8" x1="210.9" y1="306.7" x2="198.5" y2="306.4"/>
		<line class="st8" x1="198.3" y1="293.9" x2="206" y2="293.9"/>
		<line class="st8" x1="210.9" y1="306.7" x2="206" y2="293.9"/>
		<line class="st8" x1="216.4" y1="309.4" x2="215.9" y2="302.8"/>
		<line class="st8" x1="221.5" y1="297.7" x2="215.9" y2="302.8"/>
		<line class="st8" x1="222.9" y1="309.4" x2="221.5" y2="297.7"/>
		<line class="st8" x1="216.4" y1="309.4" x2="222.9" y2="309.4"/>
		<line class="st8" x1="355.1" y1="208.4" x2="348.2" y2="226"/>
		<line class="st8" x1="363" y1="235.5" x2="348.2" y2="226"/>
		<line class="st8" x1="361.3" y1="224.8" x2="351.7" y2="217.2"/>
		<line class="st8" x1="381.6" y1="207.9" x2="361.3" y2="224.8"/>
		<line class="st8" x1="355.1" y1="208.4" x2="375.6" y2="212.9"/>
		<line class="st8" x1="389.1" y1="216.6" x2="371.1" y2="195.9"/>
		<line class="st8" x1="372.3" y1="234.3" x2="389.1" y2="216.6"/>
		<line class="st8" x1="363" y1="235.5" x2="372.3" y2="234.3"/>
		<line class="st8" x1="361.3" y1="224.8" x2="363" y2="235.5"/>
		<line class="st8" x1="372.3" y1="234.3" x2="361.3" y2="224.8"/>
		<line class="st8" x1="387.2" y1="190.2" x2="371.1" y2="195.9"/>
		<line class="st8" x1="400.5" y1="211.3" x2="387.2" y2="190.2"/>
		<line class="st8" x1="389.1" y1="216.6" x2="400.5" y2="211.3"/>
		<line class="st8" x1="381.6" y1="207.9" x2="400.5" y2="211.3"/>
		<line class="st8" x1="355.6" y1="187.3" x2="359.8" y2="170.9"/>
		<line class="st8" x1="365.4" y1="184.2" x2="364.2" y2="170.9"/>
		<line class="st8" x1="359.8" y1="170.9" x2="364.2" y2="170.9"/>
		<line class="st8" x1="355.6" y1="187.3" x2="365.4" y2="184.2"/>
		<line class="st8" x1="368.6" y1="166.9" x2="376.8" y2="156.3"/>
		<line class="st8" x1="380.1" y1="170.9" x2="376.8" y2="156.3"/>
		<line class="st8" x1="388" y1="172.8" x2="380.1" y2="170.9"/>
		<line class="st8" x1="388.9" y1="179.1" x2="388" y2="172.8"/>
		<line class="st8" x1="384.1" y1="181.8" x2="388.9" y2="179.1"/>
		<line class="st8" x1="384.1" y1="189" x2="384.1" y2="181.8"/>
		<line class="st8" x1="370" y1="190.3" x2="384.1" y2="189"/>
		<line class="st8" x1="372.7" y1="177.6" x2="372" y2="183"/>
		<line class="st8" x1="370.6" y1="190.3" x2="370" y2="190.3"/>
		<line class="st8" x1="370.6" y1="190.3" x2="366.8" y2="188"/>
		<line class="st8" x1="372" y1="183" x2="367.7" y2="187.9"/>
		<line class="st8" x1="368.6" y1="166.9" x2="372.7" y2="177.6"/>
		<line class="st8" x1="387.2" y1="190.2" x2="396.6" y2="181.8"/>
		<line class="st8" x1="400.5" y1="211.3" x2="396.6" y2="181.8"/>
		<line class="st8" x1="410.8" y1="218.4" x2="400.5" y2="211.3"/>
		<line class="st8" x1="421.4" y1="218.2" x2="410.8" y2="218.4"/>
		<line class="st8" x1="418.2" y1="207.6" x2="421.4" y2="218.2"/>
		<line class="st8" x1="396.6" y1="181.8" x2="418.2" y2="207.6"/>
		<line class="st8" x1="425.5" y1="179.1" x2="396.6" y2="181.8"/>
		<line class="st8" x1="418.2" y1="207.6" x2="425.5" y2="179.1"/>
		<line class="st8" x1="396.6" y1="181.8" x2="403.3" y2="170.1"/>
		<line class="st8" x1="425.5" y1="179.1" x2="403.3" y2="170.1"/>
		<line class="st8" x1="394.8" y1="160.4" x2="406.3" y2="162.7"/>
		<line class="st8" x1="414.4" y1="171.9" x2="406.3" y2="162.7"/>
		<line class="st8" x1="425.3" y1="166" x2="413.6" y2="170.9"/>
		<line class="st8" x1="424.4" y1="152.8" x2="425.3" y2="166"/>
		<line class="st8" x1="394.8" y1="160.4" x2="397.5" y2="154.1"/>
		<line class="st8" x1="424.4" y1="152.8" x2="397.5" y2="154.1"/>
		<line class="st8" x1="397.5" y1="154.1" x2="407.4" y2="148.1"/>
		<line class="st8" x1="414.4" y1="139.7" x2="407.4" y2="148.1"/>
		<line class="st8" x1="424.4" y1="152.8" x2="430" y2="151.1"/>
		<line class="st8" x1="414.4" y1="139.7" x2="430" y2="151.1"/>
		<line class="st8" x1="423.4" y1="135.3" x2="414.4" y2="139.7"/>
		<line class="st8" x1="445.1" y1="139.6" x2="423.4" y2="135.3"/>
		<line class="st8" x1="430" y1="151.1" x2="445.1" y2="139.6"/>
		<line class="st8" x1="423.4" y1="135.3" x2="437.5" y2="130.8"/>
		<line class="st8" x1="454.7" y1="131.4" x2="437.5" y2="130.8"/>
		<line class="st8" x1="445.1" y1="139.6" x2="454.7" y2="131.4"/>
		<line class="st8" x1="468" y1="137.5" x2="454.7" y2="131.4"/>
		<line class="st8" x1="457.4" y1="142" x2="468" y2="137.5"/>
		<line class="st8" x1="445.1" y1="139.6" x2="457.4" y2="142"/>
		<line class="st8" x1="457" y1="172.5" x2="457.4" y2="142"/>
		<line class="st8" x1="430" y1="151.1" x2="437.5" y2="165.3"/>
		<line class="st8" x1="493.4" y1="186" x2="437.5" y2="165.3"/>
		<line class="st8" x1="425.5" y1="179.1" x2="437.5" y2="165.3"/>
		<line class="st8" x1="442.4" y1="222.1" x2="437.5" y2="165.3"/>
		<line class="st8" x1="418.2" y1="207.6" x2="430.5" y2="214"/>
		<line class="st8" x1="436.7" y1="230.1" x2="430.5" y2="214"/>
		<line class="st8" x1="442.4" y1="222.1" x2="436.7" y2="230.1"/>
		<line class="st8" x1="410.8" y1="218.4" x2="414.4" y2="228.2"/>
		<line class="st8" x1="412.6" y1="234.9" x2="414.4" y2="228.2"/>
		<line class="st8" x1="422.6" y1="226.1" x2="412.6" y2="234.9"/>
		<line class="st8" x1="421.4" y1="218.2" x2="422.6" y2="226.1"/>
		<line class="st8" x1="450.5" y1="240.5" x2="458" y2="236.8"/>
		<line class="st8" x1="462.5" y1="242.2" x2="463.3" y2="237.7"/>
		<line class="st8" x1="458" y1="236.8" x2="463.3" y2="237.7"/>
		<line class="st8" x1="450.5" y1="240.5" x2="462.5" y2="242.2"/>
		<line class="st8" x1="448.6" y1="223.3" x2="442.4" y2="222.1"/>
		<line class="st8" x1="452.5" y1="231.6" x2="448.6" y2="223.3"/>
		<line class="st8" x1="468" y1="231.6" x2="453.1" y2="230.7"/>
		<line class="st8" x1="493.4" y1="186" x2="448.6" y2="223.3"/>
		<line class="st8" x1="468.5" y1="148.6" x2="457.4" y2="142"/>
		<line class="st8" x1="493.4" y1="186" x2="468.5" y2="148.6"/>
		<line class="st8" x1="491.5" y1="135.4" x2="468.5" y2="148.6"/>
		<line class="st8" x1="525" y1="136.8" x2="491.5" y2="135.4"/>
		<line class="st8" x1="493.4" y1="186" x2="525" y2="136.8"/>
		<line class="st8" x1="539.8" y1="180.4" x2="525" y2="136.8"/>
		<line class="st8" x1="493.4" y1="186" x2="606.7" y2="172.2"/>
		<line class="st8" x1="515.1" y1="253.9" x2="539.8" y2="180.4"/>
		<line class="st8" x1="493.4" y1="186" x2="515.1" y2="253.9"/>
		<line class="st8" x1="468" y1="231.6" x2="493.4" y2="186"/>
		<line class="st8" x1="509.2" y1="258.4" x2="468" y2="231.6"/>
		<line class="st8" x1="515.1" y1="253.9" x2="509.2" y2="258.4"/>
		<line class="st8" x1="524.1" y1="262.7" x2="515.1" y2="253.9"/>
		<line class="st8" x1="555.1" y1="266.6" x2="525.1" y2="262.7"/>
		<line class="st8" x1="602.6" y1="219.9" x2="515.1" y2="253.9"/>
		<line class="st8" x1="539.8" y1="180.4" x2="602.6" y2="219.9"/>
		<line class="st8" x1="606.7" y1="172.2" x2="602.6" y2="219.9"/>
		<line class="st8" x1="525" y1="136.8" x2="606.7" y2="172.2"/>
		<line class="st8" x1="571.2" y1="140.8" x2="525" y2="136.8"/>
		<line class="st8" x1="515.1" y1="120.9" x2="491.5" y2="135.4"/>
		<line class="st8" x1="525" y1="136.8" x2="515.1" y2="120.9"/>
		<line class="st8" x1="552.8" y1="119.9" x2="525" y2="136.8"/>
		<line class="st8" x1="590.5" y1="112.6" x2="552.8" y2="119.9"/>
		<line class="st8" x1="571.2" y1="140.8" x2="552.8" y2="119.9"/>
		<line class="st8" x1="590.5" y1="112.6" x2="571.6" y2="139.7"/>
		<line class="st8" x1="600.4" y1="134.4" x2="590.5" y2="112.6"/>
		<line class="st8" x1="571.2" y1="140.8" x2="653.1" y2="123.5"/>
		<line class="st8" x1="595.4" y1="123.5" x2="653.1" y2="123.5"/>
		<line class="st8" x1="650.7" y1="167.3" x2="653.1" y2="123.5"/>
		<line class="st8" x1="610.1" y1="154.5" x2="600.4" y2="134.4"/>
		<line class="st8" x1="606.7" y1="172.2" x2="571.2" y2="140.8"/>
		<line class="st8" x1="650.7" y1="167.3" x2="571.2" y2="140.8"/>
		<line class="st8" x1="606.7" y1="172.2" x2="650.7" y2="167.3"/>
		<line class="st8" x1="633.4" y1="229.9" x2="606.7" y2="172.2"/>
		<line class="st8" x1="602.6" y1="219.9" x2="659.4" y2="237.2"/>
		<line class="st8" x1="620" y1="277.1" x2="604.6" y2="220.6"/>
		<line class="st8" x1="633.4" y1="229.9" x2="620" y2="277.1"/>
		<line class="st8" x1="555.1" y1="266.6" x2="604.6" y2="220.6"/>
		<line class="st8" x1="579.9" y1="286.3" x2="579.9" y2="243.6"/>
		<line class="st8" x1="555.1" y1="266.6" x2="571.6" y2="288.9"/>
		<line class="st8" x1="620" y1="277.1" x2="571.6" y2="288.9"/>
		<line class="st8" x1="587.3" y1="317" x2="579.9" y2="286.3"/>
		<line class="st8" x1="597.6" y1="301.6" x2="595.8" y2="319.4"/>
		<line class="st8" x1="587.3" y1="317" x2="595.8" y2="319.4"/>
		<line class="st8" x1="579.9" y1="286.3" x2="597.6" y2="301.6"/>
		<line class="st8" x1="620" y1="277.1" x2="597.6" y2="301.6"/>
		<line class="st8" x1="633.4" y1="294" x2="620" y2="277.1"/>
		<line class="st8" x1="659.1" y1="283" x2="633.4" y2="294"/>
		<line class="st8" x1="620" y1="277.1" x2="659.1" y2="283"/>
		<line class="st8" x1="659.4" y1="237.2" x2="659.1" y2="283"/>
		<line class="st8" x1="606.7" y1="172.2" x2="658" y2="197.8"/>
		<line class="st8" x1="659.4" y1="237.2" x2="658" y2="197.8"/>
		<line class="st8" x1="650.7" y1="167.3" x2="658" y2="197.8"/>
		<line class="st8" x1="698" y1="179.1" x2="658" y2="197.8"/>
		<line class="st8" x1="695.5" y1="222.7" x2="698" y2="179.1"/>
		<line class="st8" x1="658" y1="197.8" x2="695.5" y2="222.7"/>
		<line class="st8" x1="719.5" y1="237.2" x2="695.5" y2="222.7"/>
		<line class="st8" x1="715.4" y1="212.8" x2="721.7" y2="232.5"/>
		<line class="st8" x1="719.5" y1="237.2" x2="721.7" y2="232.5"/>
		<line class="st8" x1="695.5" y1="222.7" x2="715.4" y2="212.8"/>
		<line class="st8" x1="698" y1="179.1" x2="715.4" y2="212.8"/>
		<line class="st8" x1="724.8" y1="193.7" x2="715.8" y2="210.2"/>
		<line class="st8" x1="716.4" y1="182.6" x2="698" y2="179.1"/>
		<line class="st8" x1="724.8" y1="193.7" x2="716.4" y2="182.6"/>
		<line class="st8" x1="658.7" y1="219.9" x2="674.5" y2="208.8"/>
		<line class="st8" x1="695.5" y1="222.7" x2="659.2" y2="222.1"/>
		<line class="st8" x1="679.2" y1="245" x2="672" y2="222.1"/>
		<line class="st8" x1="705.5" y1="251.2" x2="682.7" y2="222.5"/>
		<line class="st8" x1="659.4" y1="237.2" x2="679.2" y2="245"/>
		<line class="st8" x1="705.5" y1="251.2" x2="679.2" y2="245"/>
		<line class="st8" x1="694.1" y1="272.7" x2="679.2" y2="245"/>
		<line class="st8" x1="670.8" y1="280.1" x2="679.2" y2="245"/>
		<line class="st8" x1="659.4" y1="237.2" x2="670.8" y2="280.1"/>
		<line class="st8" x1="659.1" y1="283" x2="670.8" y2="280.1"/>
		<line class="st8" x1="694.1" y1="272.7" x2="670.8" y2="280.1"/>
		<line class="st8" x1="705.5" y1="251.2" x2="694.1" y2="272.7"/>
		<line class="st8" x1="695.4" y1="144.5" x2="653.1" y2="123.5"/>
		<line class="st8" x1="695.7" y1="169.8" x2="695.4" y2="144.5"/>
		<line class="st8" x1="650.7" y1="167.3" x2="695.7" y2="169.8"/>
		<line class="st8" x1="698" y1="179.1" x2="695.7" y2="169.8"/>
		<line class="st8" x1="708.7" y1="163.5" x2="695.7" y2="169.8"/>
		<line class="st8" x1="695.4" y1="144.5" x2="708.7" y2="163.5"/>
		<line class="st8" x1="722" y1="143.4" x2="708.7" y2="163.5"/>
		<line class="st8" x1="695.4" y1="144.5" x2="722" y2="143.4"/>
		<line class="st8" x1="728.3" y1="163.5" x2="722" y2="143.4"/>
		<line class="st8" x1="708.7" y1="163.5" x2="728.3" y2="163.5"/>
		<line class="st8" x1="739.3" y1="153.4" x2="728.3" y2="163.5"/>
		<line class="st8" x1="738.1" y1="132.2" x2="739.3" y2="153.4"/>
		<line class="st8" x1="722" y1="143.4" x2="738.1" y2="132.2"/>
		<line class="st8" x1="694.1" y1="142.8" x2="698.2" y2="134"/>
		<line class="st8" x1="653.1" y1="123.5" x2="698.2" y2="134"/>
		<line class="st8" x1="738.1" y1="132.2" x2="698.2" y2="134"/>
		<line class="st8" x1="772.5" y1="140.9" x2="738.1" y2="132.2"/>
		<line class="st8" x1="739.3" y1="153.4" x2="745.6" y2="159.6"/>
		<line class="st8" x1="738.7" y1="164.5" x2="772.5" y2="140.9"/>
		<line class="st8" x1="738.7" y1="164.5" x2="761.4" y2="188.5"/>
		<line class="st8" x1="762.2" y1="174.4" x2="761.4" y2="188.5"/>
		<line class="st8" x1="750.1" y1="165" x2="762.2" y2="174.4"/>
		<line class="st8" x1="749.3" y1="175.6" x2="750.1" y2="165"/>
		<line class="st8" x1="738.7" y1="164.5" x2="750.1" y2="165"/>
		<line class="st8" x1="772.5" y1="140.9" x2="777.5" y2="148.9"/>
		<line class="st8" x1="750.1" y1="165" x2="777.5" y2="148.9"/>
		<line class="st8" x1="726.6" y1="177.4" x2="727.2" y2="191.1"/>
		<line class="st8" x1="742.5" y1="203.2" x2="727.2" y2="191.1"/>
		<line class="st8" x1="741" y1="210.2" x2="742.5" y2="203.2"/>
		<line class="st8" x1="746.9" y1="217.5" x2="741" y2="210.2"/>
		<line class="st8" x1="761.8" y1="217.5" x2="746.9" y2="217.5"/>
		<line class="st8" x1="757" y1="205.5" x2="761.8" y2="217.5"/>
		<line class="st8" x1="749.7" y1="206.7" x2="757" y2="205.5"/>
		<line class="st8" x1="737.3" y1="179.1" x2="749.7" y2="206.7"/>
		<line class="st8" x1="726.6" y1="177.4" x2="737.3" y2="179.1"/>
		<line class="st8" x1="748.8" y1="222.6" x2="761.8" y2="222.6"/>
		<line class="st8" x1="761.8" y1="236.9" x2="761.8" y2="222.6"/>
		<line class="st8" x1="747.7" y1="230" x2="748.8" y2="222.6"/>
		<line class="st8" x1="731.9" y1="242.4" x2="747.7" y2="230"/>
		<line class="st8" x1="740.6" y1="243.6" x2="751.3" y2="242"/>
		<line class="st8" x1="761.8" y1="236.9" x2="751.3" y2="242"/>
		<line class="st8" x1="731.9" y1="242.4" x2="737.7" y2="255.9"/>
		<line class="st8" x1="742.5" y1="253.5" x2="737.7" y2="255.9"/>
		<line class="st8" x1="740.6" y1="243.6" x2="742.5" y2="253.5"/>
		<line class="st8" x1="632.3" y1="295" x2="660.7" y2="292.4"/>
		<line class="st8" x1="659.1" y1="283" x2="668.2" y2="318.2"/>
		<line class="st8" x1="632.3" y1="295" x2="668.2" y2="318.2"/>
		<line class="st8" x1="680.3" y1="313" x2="668.2" y2="318.2"/>
		<line class="st8" x1="659.1" y1="283" x2="680.3" y2="313"/>
		<line class="st8" x1="670.8" y1="280.1" x2="682.4" y2="304.7"/>
		<line class="st8" x1="680.3" y1="313" x2="682.4" y2="304.7"/>
		<line class="st8" x1="705.5" y1="296.4" x2="711.6" y2="288.5"/>
		<line class="st8" x1="713.5" y1="299.3" x2="711.6" y2="288.5"/>
		<line class="st8" x1="708.5" y1="303.6" x2="705.5" y2="296.4"/>
		<line class="st8" x1="708.5" y1="315.6" x2="708.5" y2="303.6"/>
		<line class="st8" x1="728.5" y1="313.3" x2="708.5" y2="315.6"/>
		<line class="st8" x1="713.5" y1="299.3" x2="728.5" y2="313.3"/>
		<line class="st8" x1="726.1" y1="333.7" x2="728.5" y2="313.3"/>
		<line class="st8" x1="708.5" y1="315.6" x2="726.1" y2="333.7"/>
		<line class="st8" x1="708.5" y1="303.6" x2="713.5" y2="299.3"/>
		<line class="st8" x1="727.2" y1="191.1" x2="737.3" y2="179.1"/>
		<line class="st8" x1="749.7" y1="206.7" x2="746.9" y2="217.5"/>
		<line class="st8" x1="741" y1="210.2" x2="749.7" y2="206.7"/>
		<line class="st8" x1="742.5" y1="203.2" x2="737.3" y2="179.1"/>
		<line class="st8" x1="746.9" y1="217.5" x2="757" y2="205.5"/>
		<line class="st8" x1="748.8" y1="222.6" x2="761.8" y2="236.9"/>
		<line class="st8" x1="753.3" y1="241.3" x2="747.7" y2="230"/>
		<line class="st8" x1="740.6" y1="243.6" x2="731.9" y2="242.4"/>
		<line class="st8" x1="474.4" y1="260.1" x2="468" y2="231.6"/>
		<line class="st8" x1="488.6" y1="285.5" x2="509.2" y2="258.4"/>
		<line class="st8" x1="474.4" y1="260.1" x2="490" y2="286.3"/>
		<line class="st8" x1="498.9" y1="304.9" x2="490" y2="286.3"/>
		<line class="st8" x1="524.1" y1="303.6" x2="498.9" y2="304.9"/>
		<line class="st8" x1="509.2" y1="258.4" x2="524.1" y2="303.6"/>
		<line class="st8" x1="532.4" y1="285.5" x2="524.1" y2="303.6"/>
		<line class="st8" x1="509.2" y1="258.4" x2="523.8" y2="273.2"/>
		<line class="st8" x1="532.4" y1="285.5" x2="523.8" y2="273.2"/>
		<line class="st8" x1="541.5" y1="280.1" x2="530.7" y2="270.9"/>
		<line class="st8" x1="523.8" y1="273.2" x2="530.7" y2="270.9"/>
		<line class="st8" x1="532.4" y1="285.5" x2="541.5" y2="280.1"/>
		<line class="st8" x1="646.6" y1="304.3" x2="648.9" y2="323.5"/>
		<line class="st8" x1="668.1" y1="344.6" x2="648.9" y2="323.5"/>
		<line class="st8" x1="654.8" y1="323.5" x2="654.9" y2="309.6"/>
		<line class="st8" x1="672.6" y1="334" x2="654.8" y2="323.5"/>
		<line class="st8" x1="668.1" y1="344.6" x2="672.6" y2="334"/>
		<line class="st8" x1="648.9" y1="323.5" x2="654.8" y2="323.5"/>
		<line class="st8" x1="641.7" y1="332.2" x2="651.9" y2="334"/>
		<line class="st8" x1="662.2" y1="350.2" x2="651.9" y2="334.6"/>
		<line class="st8" x1="667.1" y1="349.2" x2="662.2" y2="350.2"/>
		<line class="st8" x1="673.6" y1="358.1" x2="667.1" y2="349.2"/>
		<line class="st8" x1="669.7" y1="365.5" x2="673.6" y2="358.1"/>
		<line class="st8" x1="661.5" y1="366" x2="669.7" y2="365.5"/>
		<line class="st8" x1="641.7" y1="332.2" x2="661.5" y2="366"/>
		<line class="st8" x1="662.2" y1="350.2" x2="661.5" y2="366"/>
		<line class="st8" x1="677.9" y1="339.3" x2="686" y2="339.3"/>
		<line class="st8" x1="700.3" y1="321.3" x2="686" y2="339.3"/>
		<line class="st8" x1="695.9" y1="358.1" x2="686" y2="339.3"/>
		<line class="st8" x1="683.9" y1="356.3" x2="677.9" y2="339.3"/>
		<line class="st8" x1="695.9" y1="358.1" x2="683.9" y2="356.3"/>
		<line class="st8" x1="708.5" y1="347" x2="695.9" y2="358.1"/>
		<line class="st8" x1="686" y1="339.3" x2="708.5" y2="347"/>
		<line class="st8" x1="704.1" y1="336.5" x2="708.5" y2="347"/>
		<line class="st8" x1="686" y1="339.3" x2="704.1" y2="336.5"/>
		<line class="st8" x1="700.3" y1="321.3" x2="704.1" y2="336.5"/>
		<line class="st8" x1="705.4" y1="359.3" x2="715.1" y2="348.7"/>
		<line class="st8" x1="721.8" y1="349.1" x2="715.1" y2="348.7"/>
		<line class="st8" x1="718.5" y1="358.1" x2="721.8" y2="349.1"/>
		<line class="st8" x1="707.7" y1="365.7" x2="718.5" y2="358.1"/>
		<line class="st8" x1="705.4" y1="359.3" x2="707.7" y2="365.7"/>
		<line class="st8" x1="693.1" y1="364.5" x2="675.6" y2="364.7"/>
		<line class="st8" x1="669.7" y1="369.4" x2="675.6" y2="364.7"/>
		<line class="st8" x1="695" y1="377.2" x2="669.7" y2="369.4"/>
		<line class="st8" x1="693.1" y1="364.5" x2="695" y2="377.2"/>
		<line class="st8" x1="740" y1="346.9" x2="750.8" y2="347.8"/>
		<line class="st8" x1="752" y1="352.6" x2="750.8" y2="347.8"/>
		<line class="st8" x1="745.4" y1="359.5" x2="740" y2="346.9"/>
		<line class="st8" x1="752" y1="352.6" x2="745.4" y2="359.5"/>
		<line class="st8" x1="760.7" y1="365.7" x2="745.4" y2="359.5"/>
		<line class="st8" x1="760.1" y1="352.6" x2="752" y2="352.6"/>
		<line class="st8" x1="760.7" y1="365.7" x2="760.1" y2="352.6"/>
		<line class="st8" x1="774.3" y1="378.4" x2="760.7" y2="365.7"/>
		<line class="st8" x1="776.6" y1="369.9" x2="760.1" y2="352.6"/>
		<line class="st8" x1="784.8" y1="359.8" x2="760.1" y2="352.6"/>
		<line class="st8" x1="774.3" y1="378.4" x2="776.6" y2="369.9"/>
		<line class="st8" x1="784.8" y1="359.8" x2="776.6" y2="369.9"/>
		<line class="st8" x1="789.2" y1="372.1" x2="784.8" y2="359.8"/>
		<line class="st8" x1="783.8" y1="379.2" x2="789.2" y2="372.1"/>
		<line class="st8" x1="774.3" y1="378.4" x2="783.8" y2="379.2"/>
		<line class="st8" x1="798.2" y1="382.8" x2="783.8" y2="379.2"/>
		<line class="st8" x1="797.7" y1="373.3" x2="790.1" y2="372.1"/>
		<line class="st8" x1="798.2" y1="382.8" x2="797.7" y2="373.3"/>
		<line class="st8" x1="718.5" y1="396.5" x2="730.5" y2="389.8"/>
		<line class="st8" x1="736.7" y1="394.2" x2="730.5" y2="389.8"/>
		<line class="st8" x1="734.9" y1="419" x2="736.7" y2="394.2"/>
		<line class="st8" x1="718.5" y1="396.5" x2="734.9" y2="419"/>
		<line class="st8" x1="702.2" y1="430.4" x2="718.5" y2="396.5"/>
		<line class="st8" x1="684.4" y1="420" x2="714.6" y2="404.5"/>
		<line class="st8" x1="702.2" y1="430.4" x2="684.4" y2="420"/>
		<line class="st8" x1="686" y1="443.3" x2="684.4" y2="420"/>
		<line class="st8" x1="698.6" y1="444.1" x2="702.2" y2="430.4"/>
		<line class="st8" x1="686" y1="443.3" x2="698.6" y2="444.1"/>
		<line class="st8" x1="699.5" y1="456.2" x2="698.6" y2="444.1"/>
		<line class="st8" x1="677.9" y1="455.4" x2="686" y2="443.3"/>
		<line class="st8" x1="699.5" y1="456.2" x2="677.9" y2="455.4"/>
		<line class="st8" x1="722.1" y1="445" x2="698.6" y2="444.1"/>
		<line class="st8" x1="702.2" y1="430.4" x2="722.1" y2="445"/>
		<line class="st8" x1="734.9" y1="419" x2="702.2" y2="430.4"/>
		<line class="st8" x1="722.1" y1="445" x2="734.9" y2="419"/>
		<line class="st8" x1="699.5" y1="456.2" x2="722.1" y2="445"/>
		<line class="st8" x1="741.9" y1="459.6" x2="722.1" y2="445"/>
		<line class="st8" x1="734.9" y1="419" x2="743.6" y2="469.3"/>
		<line class="st8" x1="772.4" y1="438.4" x2="743.6" y2="469.3"/>
		<line class="st8" x1="776.8" y1="456.9" x2="743.6" y2="469.3"/>
		<line class="st8" x1="772.4" y1="438.4" x2="776.8" y2="456.9"/>
		<line class="st8" x1="789.8" y1="444.5" x2="776.8" y2="456.9"/>
		<line class="st8" x1="772.4" y1="438.4" x2="789.8" y2="444.5"/>
		<line class="st8" x1="791.7" y1="424.7" x2="789.8" y2="444.5"/>
		<line class="st8" x1="772.4" y1="438.4" x2="791.7" y2="424.7"/>
		<line class="st8" x1="774.6" y1="408.6" x2="783.3" y2="408.4"/>
		<line class="st8" x1="791.7" y1="424.7" x2="783.3" y2="408.4"/>
		<line class="st8" x1="772.4" y1="438.4" x2="775.5" y2="408.6"/>
		<line class="st8" x1="734.9" y1="419" x2="775.5" y2="408.6"/>
		<line class="st8" x1="772.4" y1="438.4" x2="734.9" y2="419"/>
		<line class="st8" x1="739.3" y1="444.5" x2="758" y2="430.9"/>
		<line class="st8" x1="772.4" y1="438.4" x2="739.3" y2="444.5"/>
		<line class="st8" x1="736.9" y1="393.2" x2="741.3" y2="387.6"/>
		<line class="st8" x1="753.6" y1="387.4" x2="742.7" y2="387"/>
		<line class="st8" x1="753.6" y1="400.1" x2="753.6" y2="387.4"/>
		<line class="st8" x1="751.4" y1="414.8" x2="753.6" y2="400.1"/>
		<line class="st8" x1="761.4" y1="402.9" x2="753.6" y2="400.1"/>
		<line class="st8" x1="767.5" y1="398.2" x2="761.4" y2="402.9"/>
		<line class="st8" x1="768.4" y1="385.5" x2="767.5" y2="398.2"/>
		<line class="st8" x1="776.4" y1="390.4" x2="768.4" y2="385.5"/>
		<line class="st8" x1="774.6" y1="408.6" x2="776.4" y2="390.4"/>
		<line class="st8" x1="767.5" y1="398.2" x2="774.6" y2="408.6"/>
		<line class="st8" x1="756.5" y1="483.7" x2="764" y2="489.1"/>
		<line class="st8" x1="771.2" y1="481.2" x2="764" y2="489.1"/>
		<line class="st8" x1="756.6" y1="478.8" x2="756.5" y2="483.7"/>
		<line class="st8" x1="763.9" y1="475.9" x2="756.6" y2="478.8"/>
		<line class="st8" x1="771.2" y1="481.2" x2="763.9" y2="475.9"/>
		<line class="st8" x1="794.1" y1="484.1" x2="794.8" y2="500"/>
		<line class="st8" x1="807.9" y1="491.1" x2="794.8" y2="500"/>
		<line class="st8" x1="794.1" y1="484.1" x2="807.9" y2="491.1"/>
		<line class="st8" x1="809.8" y1="481.2" x2="794.1" y2="484.1"/>
		<line class="st8" x1="815.5" y1="488.5" x2="807.9" y2="491.1"/>
		<line class="st8" x1="809.8" y1="481.2" x2="815.5" y2="488.5"/>
		<line class="st8" x1="818.8" y1="468.9" x2="809.8" y2="481.2"/>
		<line class="st8" x1="822.9" y1="482.1" x2="819" y2="469.5"/>
		<line class="st8" x1="815.5" y1="488.5" x2="822.9" y2="482.1"/>
		<line class="st8" x1="825.3" y1="467" x2="828.6" y2="475.8"/>
		<line class="st8" x1="836.7" y1="465.2" x2="828.6" y2="475.8"/>
		<line class="st8" x1="834.1" y1="456.6" x2="825.3" y2="467"/>
		<line class="st8" x1="836.7" y1="465.2" x2="834.1" y2="456.6"/>
		<line class="st8" x1="594.2" y1="326.9" x2="601.7" y2="318.2"/>
		<line class="st8" x1="604" y1="328.8" x2="601.7" y2="318.2"/>
		<line class="st8" x1="594.2" y1="326.9" x2="604" y2="328.8"/>
		<line class="st8" x1="374.9" y1="239.9" x2="364" y2="239.9"/>
		<line class="st8" x1="335.1" y1="273.2" x2="364" y2="239.9"/>
		<line class="st8" x1="411.2" y1="300.3" x2="335.1" y2="273.2"/>
		<line class="st8" x1="355.6" y1="334" x2="335.1" y2="273.2"/>
		<line class="st8" x1="330.3" y1="313.2" x2="335.1" y2="273.2"/>
		<line class="st8" x1="355.6" y1="334" x2="330.3" y2="313.2"/>
		<line class="st8" x1="398.6" y1="333.1" x2="355.6" y2="334"/>
		<line class="st8" x1="345.1" y1="302.8" x2="398.6" y2="333.1"/>
		<line class="st8" x1="411.2" y1="300.3" x2="398.6" y2="333.1"/>
		<line class="st8" x1="374.9" y1="239.9" x2="411.2" y2="300.3"/>
		<line class="st8" x1="384.9" y1="230" x2="374.9" y2="238"/>
		<line class="st8" x1="404.9" y1="230.5" x2="384.9" y2="230"/>
		<line class="st8" x1="409.3" y1="244.1" x2="404.9" y2="230.5"/>
		<line class="st8" x1="427.3" y1="250.2" x2="409.3" y2="244.1"/>
		<line class="st8" x1="411.2" y1="300.3" x2="427.3" y2="250.2"/>
		<line class="st8" x1="449.1" y1="272.1" x2="423.3" y2="262.5"/>
		<line class="st8" x1="482.2" y1="295.6" x2="449.1" y2="272.1"/>
		<line class="st8" x1="411.2" y1="300.3" x2="449.1" y2="272.1"/>
		<line class="st8" x1="474.4" y1="260.1" x2="449.1" y2="272.1"/>
		<line class="st8" x1="427.3" y1="250.2" x2="439.6" y2="245"/>
		<line class="st8" x1="454.2" y1="251.8" x2="439.6" y2="245"/>
		<line class="st8" x1="470.7" y1="243.6" x2="454.2" y2="251.8"/>
		<line class="st8" x1="474.4" y1="260.1" x2="482.2" y2="295.6"/>
		<line class="st8" x1="500.8" y1="313" x2="482.2" y2="295.6"/>
		<line class="st8" x1="516.7" y1="309.5" x2="500.8" y2="313"/>
		<line class="st8" x1="516.5" y1="326.1" x2="516.7" y2="309.5"/>
		<line class="st8" x1="506.7" y1="337.6" x2="516.5" y2="326.1"/>
		<line class="st8" x1="500.8" y1="313" x2="516.5" y2="326.1"/>
		<line class="st8" x1="469" y1="319.6" x2="500.8" y2="313"/>
		<line class="st8" x1="482.2" y1="295.6" x2="469" y2="319.6"/>
		<line class="st8" x1="440.3" y1="323.6" x2="469" y2="319.6"/>
		<line class="st8" x1="411.2" y1="300.3" x2="440.3" y2="323.6"/>
		<line class="st8" x1="441" y1="346.6" x2="440.3" y2="323.6"/>
		<line class="st8" x1="398.6" y1="333.1" x2="441" y2="346.6"/>
		<line class="st8" x1="416.5" y1="383.1" x2="398.6" y2="333.1"/>
		<line class="st8" x1="441" y1="346.6" x2="416.5" y2="383.1"/>
		<line class="st8" x1="471.2" y1="408.6" x2="416.5" y2="383.1"/>
		<line class="st8" x1="441" y1="346.6" x2="472" y2="408.8"/>
		<line class="st8" x1="486.1" y1="360.8" x2="441" y2="346.6"/>
		<line class="st8" x1="440.3" y1="323.6" x2="486.8" y2="359.8"/>
		<line class="st8" x1="469" y1="319.6" x2="486.8" y2="359.8"/>
		<line class="st8" x1="506.7" y1="337.6" x2="486.8" y2="359.8"/>
		<line class="st8" x1="469" y1="319.6" x2="506.7" y2="337.6"/>
		<line class="st8" x1="416.5" y1="383.1" x2="417.4" y2="422.2"/>
		<line class="st8" x1="430.1" y1="457.9" x2="417.4" y2="422.2"/>
		<line class="st8" x1="450.4" y1="421.1" x2="430.1" y2="457.9"/>
		<line class="st8" x1="417.4" y1="422.2" x2="436.4" y2="406.6"/>
		<line class="st8" x1="416.5" y1="383.1" x2="450.4" y2="421.1"/>
		<line class="st8" x1="447.7" y1="455.8" x2="450.4" y2="421.1"/>
		<line class="st8" x1="430.1" y1="457.9" x2="447.7" y2="455.8"/>
		<line class="st8" x1="468" y1="440.8" x2="447.7" y2="455.8"/>
		<line class="st8" x1="472" y1="408.8" x2="468" y2="440.8"/>
		<line class="st8" x1="450.4" y1="421.1" x2="472" y2="408.8"/>
		<line class="st8" x1="470" y1="440.8" x2="450.4" y2="421.1"/>
		<line class="st8" x1="486.1" y1="360.8" x2="472" y2="408.8"/>
		<line class="st8" x1="491.5" y1="384" x2="472" y2="408.8"/>
		<line class="st8" x1="486.8" y1="359.8" x2="491.5" y2="384"/>
		<line class="st8" x1="477.9" y1="384.8" x2="491.5" y2="384"/>
		<line class="st8" x1="494.4" y1="398.9" x2="512.8" y2="384.8"/>
		<line class="st8" x1="522.6" y1="398.9" x2="512.8" y2="384.8"/>
		<line class="st8" x1="508.6" y1="432.4" x2="512.8" y2="384.8"/>
		<line class="st8" x1="522.6" y1="398.9" x2="512" y2="393.9"/>
		<line class="st8" x1="508.6" y1="432.4" x2="522.6" y2="398.9"/>
		<line class="st8" x1="494.4" y1="398.9" x2="494.4" y2="432.1"/>
		<line class="st8" x1="508.6" y1="432.4" x2="494.4" y2="432.1"/>
		<line class="st8" x1="510.3" y1="412.8" x2="494.4" y2="432.1"/>
		<line class="st8" x1="510.7" y1="394.2" x2="494.4" y2="412.8"/>
		<line class="st8" x1="220.2" y1="107.4" x2="227.8" y2="101"/>
		<line class="st8" x1="235" y1="102.5" x2="227.8" y2="101"/>
		<line class="st8" x1="228.8" y1="109.4" x2="235" y2="102.5"/>
		<line class="st8" x1="220.2" y1="107.4" x2="228.8" y2="109.4"/>
		<line class="st8" x1="245.5" y1="99.7" x2="230.2" y2="114.5"/>
		<line class="st8" x1="237.8" y1="119.6" x2="230.2" y2="114.5"/>
		<line class="st8" x1="255.6" y1="111.6" x2="237.8" y2="119.6"/>
		<line class="st8" x1="245.5" y1="99.7" x2="237.8" y2="118.7"/>
		<line class="st8" x1="273.3" y1="102.5" x2="245.5" y2="99.7"/>
		<line class="st8" x1="255.6" y1="111.6" x2="262.6" y2="112.8"/>
		<line class="st8" x1="258.1" y1="117.1" x2="273.3" y2="102.5"/>
		<line class="st8" x1="282.9" y1="105.2" x2="262.6" y2="112.8"/>
		<line class="st8" x1="274" y1="119.6" x2="259.1" y2="117.1"/>
		<line class="st8" x1="279.9" y1="132.9" x2="274" y2="119.6"/>
		<line class="st8" x1="286.1" y1="109.8" x2="274" y2="119.6"/>
		<line class="st8" x1="282.9" y1="105.2" x2="295.4" y2="121.2"/>
		<line class="st8" x1="328.2" y1="103.4" x2="282.9" y2="105.2"/>
		<line class="st8" x1="295.4" y1="121.2" x2="304.1" y2="104.3"/>
		<line class="st8" x1="328.2" y1="103.4" x2="295.4" y2="121.2"/>
		<line class="st8" x1="345.9" y1="102.9" x2="328.2" y2="103.4"/>
		<line class="st8" x1="341.7" y1="122.4" x2="345.9" y2="102.9"/>
		<line class="st8" x1="356.4" y1="109" x2="345.9" y2="102.9"/>
		<line class="st8" x1="341.7" y1="122.4" x2="356.4" y2="109"/>
		<line class="st8" x1="295.4" y1="121.2" x2="341.7" y2="122.4"/>
		<line class="st8" x1="346.9" y1="136.8" x2="341.7" y2="122.4"/>
		<line class="st8" x1="323.2" y1="137.4" x2="318.5" y2="121.8"/>
		<line class="st8" x1="346.9" y1="136.8" x2="323.2" y2="137.4"/>
		<line class="st8" x1="311.8" y1="147.7" x2="323.2" y2="137.4"/>
		<line class="st8" x1="295.4" y1="121.2" x2="302.8" y2="147.8"/>
		<line class="st8" x1="311.8" y1="147.7" x2="302.8" y2="147.8"/>
		<line class="st8" x1="279.9" y1="132.9" x2="295.4" y2="121.2"/>
		<line class="st8" x1="272.8" y1="144.8" x2="279.9" y2="132.9"/>
		<line class="st8" x1="289.1" y1="161.6" x2="272.8" y2="144.8"/>
		<line class="st8" x1="279.9" y1="132.9" x2="289.1" y2="161.6"/>
		<line class="st8" x1="302.8" y1="147.8" x2="289.1" y2="161.6"/>
		<line class="st8" x1="336" y1="149" x2="354.9" y2="138.8"/>
		<line class="st8" x1="353.7" y1="147.8" x2="354.9" y2="138.8"/>
		<line class="st8" x1="342.2" y1="153.2" x2="336" y2="149"/>
		<line class="st8" x1="353.7" y1="147.8" x2="342.2" y2="153.2"/>
	</g>
</g>
<g id="Layer_3">
	<g class="code-cn">
		<path class="st9" d="M627.3,261.2c-1.4-4.8-2.7-9.6-4.1-14.5c-0.4-1.4-0.3-1.4,1-1.8c9.7-2.7,19.4-5.4,29.1-8.2
			c1.2-0.3,1.3-0.3,1.7,0.9c2.7,9.7,5.5,19.5,8.2,29.2c0.3,1.2,0.3,1.3-1,1.6c-9.7,2.7-19.4,5.4-29.1,8.2c-1.3,0.4-1.4,0.3-1.7-1
			C630,270.9,628.7,266,627.3,261.2z M632.9,275.1c9.6-2.7,19.1-5.4,28.6-8c-2.7-9.6-5.4-19.1-8-28.6c-9.6,2.7-19.1,5.3-28.6,8
			C627.6,256,630.2,265.5,632.9,275.1z"/>
		<path class="st9" d="M671.1,279.1c-13.4,3.7-26.7,7.5-40.1,11.2c-0.2-0.3-0.6-0.6-0.7-1c-4.3-15.4-8.6-30.8-12.9-46.2
			c-0.1-0.4,0-0.8,0-1.2c13.4-3.7,26.7-7.5,40.1-11.2c0.2,0.3,0.6,0.6,0.7,1c4.3,15.4,8.6,30.8,12.9,46.2
			C671.3,278.3,671.1,278.7,671.1,279.1z M669.5,277.9c-4.2-15.2-8.5-30.2-12.7-45.3c-12.6,3.5-25.2,7.1-37.7,10.6
			c4.2,15.1,8.5,30.2,12.7,45.3C644.4,284.9,656.9,281.4,669.5,277.9z"/>
		<path class="st10" d="M669.5,277.9c-12.6,3.5-25.1,7-37.7,10.6c-4.2-15.1-8.4-30.2-12.7-45.3c12.5-3.5,25.1-7,37.7-10.6
			C661,247.6,665.2,262.7,669.5,277.9z M627.3,261.2c1.4,4.9,2.7,9.7,4.1,14.6c0.4,1.3,0.5,1.3,1.7,1c9.7-2.7,19.4-5.4,29.1-8.2
			c1.2-0.3,1.3-0.5,1-1.6c-2.7-9.7-5.5-19.5-8.2-29.2c-0.3-1.2-0.5-1.3-1.7-0.9c-9.7,2.7-19.4,5.4-29.1,8.2c-1.3,0.4-1.3,0.4-1,1.8
			C624.6,251.5,626,256.3,627.3,261.2z"/>
		<path class="st11" d="M624.9,246.4c2.7,9.6,5.3,19.1,8,28.6c9.6-2.7,19.1-5.4,28.6-8c-2.7-9.6-5.4-19.1-8-28.6
			C643.9,241.1,634.4,243.7,624.9,246.4z"/>
		<g>
			<path class="st5" d="M646,249.3c0.3-1.7,0.6-3.4,0.9-5.1c0.1-0.5,0.2-0.9,0.3-1.4c0.1-0.7,0.5-0.9,1.2-0.7
				c2.5,0.9,2.2,0.6,1.7,2.9c-0.5,2.1-1,4.3-1.5,6.5c1.8,0,3.1,0.6,3.9,2.2c0.4,0.1,0.7-0.1,1-0.2c0.7-0.2,1.1,0.1,1.1,0.8
				c0.5,4.2-0.1,8-3.1,11.2c-0.3,0.3-0.2,0.5-0.1,0.8c0.2,0.6,0.3,1.2,0.5,1.7c0.2,0.6,0,1-0.6,1.1c-2.8,0.8-5.6,1.7-8.3,2.5
				c-0.6,0.2-1,0-1.1-0.6c-0.2-1.6-1.1-2.3-2.6-2.9c-3.4-1.2-5.5-4-7-7.2c-0.5-1,0.4-1.1,1.1-1.4c-0.2-1.1-0.2-2.3,0.6-3.2
				c0.8-0.9,1.4-1.9,2-2.9c1.3-2,3.4-2.6,6.1-2c1.1-0.7,1-1.6,0.7-2.7c-0.6-1.6-1-3.3-1.5-4.9c-0.2-0.7,0-1.1,0.6-1.4
				c2.1-0.9,2.5-1.2,2.9,1.3c0.3,1.8,0.9,3.5,1.1,5.3c0,0.1,0.1,0.2,0.1,0.3C645.8,249.3,645.9,249.3,646,249.3z M634.5,259.7
				c5.8-1.7,11.5-3.5,17.2-5.2c-0.5-1.4-1.6-2.2-3-1.9c-0.5,0.1-0.7,0-0.9-0.5c-0.5-1-1.3-1.5-2.4-1.5c-1.1,0-1.9,0.5-2.5,1.5
				c-0.1,0.2-0.1,0.5-0.4,0.7c-0.1,0-0.2,0-0.2-0.1c-2.9-1.2-5.3-0.1-6.3,2.9c-0.1,0.3-0.3,0.5-0.6,0.6
				C634.2,257,633.8,258.3,634.5,259.7z M647.7,250.9c0.6-2.5,1.1-4.9,1.7-7.3c-0.4-0.2-0.8-0.4-1.2-0.4c-0.2,0.3-0.2,0.6-0.3,0.9
				c-0.4,1.8-0.7,3.7-1.1,5.5C646.7,250.3,646.9,250.7,647.7,250.9z M643.4,242.9c-0.7,0.2-1.4,0.2-1.1,1.1c0.5,1.9,1,3.9,1.6,5.8
				c0.1,0.4,0.3,0.5,0.7,0.4c0.4-0.1,0.4-0.4,0.3-0.7C644.4,247.3,643.9,245.1,643.4,242.9z"/>
			<path class="st12" d="M634.5,259.7c-0.7-1.4-0.3-2.7,0.9-3.6c0.2-0.2,0.5-0.3,0.6-0.6c0.9-2.9,3.4-4.1,6.3-2.9
				c0.1,0,0.2,0,0.2,0.1c0.3-0.1,0.3-0.5,0.4-0.7c0.5-1,1.4-1.5,2.5-1.5c1.1,0,2,0.5,2.4,1.5c0.2,0.5,0.4,0.6,0.9,0.5
				c1.4-0.2,2.4,0.5,3,1.9C645.9,256.2,640.2,258,634.5,259.7z"/>
			<path class="st13" d="M647.7,250.9c-0.8-0.2-1-0.6-0.8-1.4c0.4-1.8,0.7-3.6,1.1-5.5c0.1-0.3,0-0.6,0.3-0.9c0.4,0,0.8,0.2,1.2,0.4
				C648.8,246,648.2,248.4,647.7,250.9z"/>
			<path class="st13" d="M643.4,242.9c0.5,2.3,1,4.5,1.5,6.6c0.1,0.3,0.1,0.6-0.3,0.7c-0.4,0.1-0.6,0-0.7-0.4
				c-0.5-1.9-1-3.9-1.6-5.8C642,243,642.7,243,643.4,242.9z"/>
		</g>
		<g>
			
				<rect x="651.5" y="214" transform="matrix(0.9645 0.2642 -0.2642 0.9645 81.7832 -164.746)" class="st14" width="3.8" height="15.5"/>
			<path class="st15" d="M650.2,229.1c0.8,0.2,1.6,0.4,2.4,0.6c0.5,0.1,0.8,0,1.1-0.5c0.2-0.4,0.3-0.9,0.4-1.4
				c0.2-0.8,0.4-1.6,0.6-2.3c0.1-0.5,0.3-1.1,0.5-1.6c0-0.1,0-0.2,0.2-0.3c0.1,0.1,0,0.2,0,0.3c-0.4,1.3-0.7,2.6-1.1,3.9
				c-0.2,0.6-0.3,1.2-0.6,1.7c-0.3,0.4-0.5,0.5-1,0.4c-0.7-0.2-1.4-0.4-2.2-0.6c-0.1,0-0.2,0-0.3-0.1
				C650.1,229.2,650.1,229.1,650.2,229.1z"/>
			<path class="st15" d="M649.3,229c-0.2-0.1-0.2-0.3-0.2-0.5c0-0.6,0.2-1.1,0.3-1.6c0.3-1.2,0.6-2.4,1-3.6c0.1-0.5,0.3-1,0.4-1.5
				c0-0.1,0-0.2,0.2-0.3c0.1,0.2-0.1,0.4-0.1,0.7c-0.3,1.2-0.7,2.4-1,3.6c-0.2,0.9-0.5,1.7-0.6,2.6c0,0.2-0.1,0.4,0,0.6
				C649.3,228.9,649.3,228.9,649.3,229z"/>
			
				<rect x="648" y="229.5" transform="matrix(0.9645 0.2642 -0.2642 0.9645 84.9998 -163.3821)" class="st14" width="3.8" height="9.6"/>
		</g>
	</g>
	<g class="code-nz">
		<path class="st9" d="M766.8,518.6c0-5,0-10.1,0-15.1c0-1.4,0.1-1.5,1.4-1.5c10.2,0,20.3,0,30.5,0.1c1.3,0,1.4,0.1,1.4,1.4
			c0,10.2,0,20.4-0.1,30.6c0,1.2-0.1,1.3-1.4,1.3c-10.2,0-20.3,0-30.5-0.1c-1.3,0-1.4-0.1-1.4-1.4
			C766.8,528.7,766.8,523.6,766.8,518.6z M768.4,533.5c10,0,20,0,30,0.1c0-10,0-20,0.1-30c-10,0-20,0-30-0.1
			C768.4,513.6,768.4,523.5,768.4,533.5z"/>
		<path class="st9" d="M804.3,547.9c-14,0-28-0.1-42-0.1c-0.1-0.4-0.4-0.8-0.4-1.2c0-16.1,0.1-32.2,0.1-48.3c0-0.4,0.2-0.8,0.4-1.2
			c14,0,28,0.1,42,0.1c0.1,0.4,0.4,0.8,0.4,1.2c0,16.1-0.1,32.2-0.1,48.3C804.7,547.2,804.5,547.5,804.3,547.9z M803.1,546.3
			c0-15.9,0.1-31.6,0.1-47.4c-13.2,0-26.3-0.1-39.5-0.1c0,15.8-0.1,31.6-0.1,47.4C776.8,546.2,789.9,546.3,803.1,546.3z"/>
		<path class="st16" d="M803.1,546.3c-13.2,0-26.3-0.1-39.5-0.1c0-15.8,0.1-31.5,0.1-47.4c13.1,0,26.2,0.1,39.5,0.1
			C803.1,514.7,803.1,530.5,803.1,546.3z M766.8,518.6c0,5.1,0,10.2,0,15.2c0,1.3,0.1,1.4,1.4,1.4c10.2,0,20.3,0,30.5,0.1
			c1.3,0,1.4-0.1,1.4-1.3c0-10.2,0-20.4,0.1-30.6c0-1.2-0.1-1.4-1.4-1.4c-10.2,0-20.3,0-30.5-0.1c-1.4,0-1.4,0.1-1.4,1.5
			C766.8,508.5,766.8,513.5,766.8,518.6z"/>
		<path class="st11" d="M768.5,503.6c0,10,0,19.9-0.1,30c10,0,20,0,30,0.1c0-10,0-20,0.1-30C788.4,503.6,778.4,503.6,768.5,503.6z"
			/>
		<g>
			<path class="st17" d="M771.6,517.2c0.8-1.4,2.2-2,3.7-2.3c2.8-0.6,5.3-1.8,7.8-3.1c1.5-0.8,3-1.7,4.6-2.2c3.3-1,6.4,0.5,7.2,3.7
				c0.6,2.5-0.5,4.7-3,6.1c-0.7,0.4-1.5,0.7-2.5,1c1.4,0.3,2.7,0.4,3.8,0.8c0.4,0.1,0.8,0.3,1.1,0.5c1,0.6,1.1,1.3,0.3,2.1
				c-2,2.1-4.1,4-7,4.6c-5.1,1.1-9.9,0.7-14.1-2.9c-0.8-0.7-1.2-1.6-1.9-2.3c0-0.3,0-0.6,0-0.9c1-1,2.4-1.3,4-1.6
				c-1.6-0.5-3.1-0.7-4-2.1C771.6,518.1,771.6,517.6,771.6,517.2z M788,522.2c0.1-0.2-0.1-0.1-0.2-0.2c-0.3-0.2-0.6-0.4-1-0.6
				c0-0.2-0.1-0.2-0.2-0.2l0,0c-2.1-1.7-7.3-1.2-9.1,0.9c-0.6,0.7-0.3,1.4,0.6,1.7c3.1,0.4,6.3,0.3,9.4,0.1c1.1-0.1,2.2-0.1,3.3-0.5
				C790.3,522.4,789.1,522.4,788,522.2L788,522.2z M776.1,522.6c0.1-0.3,0.2-0.5,0.3-0.9c-1.3,0.3-2.4,0.4-3.5,1
				c0.4,0.4,0.9,0.5,1.4,0.5c0.6,0.3,1.2,0.3,1.9,0.5C776.2,523.3,776.1,522.9,776.1,522.6z M775.7,525.5L775.7,525.5
				c0.1,0.3,0.4,0.4,0.7,0.5c2.4,1.4,5,1.7,7.6,1.6c2.3-0.1,4.6-0.5,6.5-1.9c0.4-0.3,0.8-0.4,1-1.1c-5.8,0.9-11.4,0.8-17.3-0.2
				c0.6,0.4,0.9,0.6,1.2,0.8C775.5,525.4,775.6,525.5,775.7,525.5z M773.3,518.5c0.3,0.4,0.8,0.4,1.3,0.6c0.2-1.3,1.1-2,2.2-2.3
				c3.3-0.8,6.1-2.5,9.1-3.9c0.8-0.4,1.6-0.8,2.5-1.1c1.4-0.4,2.7-0.1,3.6,1c0.9,1.1,0.8,2.3,0.2,3.5c-0.4,0.8-0.9,1.5-1.6,2.1
				c1.8-0.4,3.3-2.1,3.3-3.7c0-1.8-0.7-3.4-2.9-4c-0.5-0.3-1.1-0.3-1.6-0.3c-1.6,0.1-2.8,0.8-4.2,1.5c-3.2,1.6-6.3,3.4-9.8,4.1
				c-0.7,0.1-1.5,0.4-2.1,1C772.8,517.5,772.5,518,773.3,518.5z M791,513.6c-0.5-0.9-1.3-0.9-2.1-0.7c-0.8,0.2-1.6,0.6-2.4,1
				c-3,1.5-5.8,3.3-9.2,4c-0.3,0.1-0.6,0.2-0.8,0.4c-0.3,0.2-0.7,0.4-0.6,0.8c0.1,0.4,0.5,0.4,0.9,0.4c1.2,0.2,2.3,0.5,3.5,0
				c1.7-0.6,3.5-0.8,5.1-0.2c1.4,0.5,2.3,0.2,3.3-0.7c1.1-0.9,2.2-1.9,2.7-3.3C791.6,514.7,791.7,514,791,513.6z M793.9,522.6
				c-0.9-0.5-1.8-0.7-2.9-0.8c0.8,0.4,1.1,0.9,1.4,1.4C792.9,523,793.5,523.1,793.9,522.6z"/>
			<path class="st18" d="M791,513.6c-0.5-0.9-1.3-0.9-2.1-0.7c-0.8,0.2-1.6,0.6-2.4,1c-3,1.5-5.8,3.3-9.2,4
				c-0.3,0.1-0.6,0.2-0.8,0.4c-0.3,0.2-0.7,0.4-0.6,0.8c0.1,0.4,0.5,0.4,0.9,0.4c1.2,0.2,2.3,0.5,3.5,0c1.7-0.6,3.5-0.8,5.1-0.2
				c1.4,0.5,2.3,0.2,3.3-0.7c1.1-0.9,2.2-1.9,2.7-3.3C791.6,514.7,791.7,514,791,513.6z"/>
			<path class="st19" d="M774.2,524.5c0.6,0.4,0.9,0.6,1.2,0.8c0.1,0,0.2,0,0.2,0.1c0,0,0,0,0,0c0.1,0.3,0.4,0.4,0.7,0.5
				c2.4,1.4,5,1.7,7.6,1.6c2.3-0.1,4.6-0.5,6.5-1.9c0.4-0.3,0.8-0.4,1-1.1C785.8,525.6,780.1,525.5,774.2,524.5z"/>
			<path class="st19" d="M791,510.8c-0.5-0.3-1.1-0.3-1.6-0.3c-1.6,0.1-2.8,0.8-4.2,1.5c-3.2,1.6-6.3,3.4-9.8,4.1
				c-0.7,0.1-1.5,0.4-2.1,1c-0.5,0.4-0.8,0.9,0,1.4c0.3,0.4,0.8,0.4,1.3,0.6c0.2-1.3,1.1-2,2.2-2.3c3.3-0.8,6.1-2.5,9.1-3.9
				c0.8-0.4,1.6-0.8,2.5-1.1c1.4-0.4,2.7-0.1,3.6,1c0.9,1.1,0.8,2.3,0.2,3.5c-0.4,0.8-0.9,1.5-1.6,2.1c1.8-0.4,3.3-2.1,3.3-3.7
				C793.9,513,793.3,511.4,791,510.8z"/>
			<path class="st20" d="M788,522.2L788,522.2c0,0-0.1-0.1-0.1-0.1c-0.3-0.2-0.6-0.4-1-0.6c-0.1,0-0.2,0-0.2-0.2c0,0,0,0,0,0l0,0
				c0,0,0,0,0,0c-2.1-1.7-7.3-1.2-9.1,0.9c-0.6,0.7-0.3,1.4,0.6,1.7c3.1,0.4,6.3,0.3,9.4,0.1c1.1-0.1,2.2-0.1,3.3-0.5
				C790,523,788.8,523,788,522.2z"/>
			<path class="st18" d="M793.9,522.6c-0.5,0.5-1,0.4-1.5,0.6c-0.4-0.5-0.7-1-1.4-1.4C792.2,521.9,793,522.2,793.9,522.6z"/>
			<path class="st21" d="M791,523.5c-1-0.4-2.1-0.5-2.9-1.3C789.1,522.4,790.3,522.4,791,523.5z"/>
			<path class="st21" d="M776.4,521.6c-1.3,0.3-2.4,0.4-3.5,1c0.4,0.4,0.9,0.5,1.4,0.5c0.6,0.3,1.2,0.3,1.9,0.5
				c-0.1-0.4-0.1-0.8-0.2-1.1C776.2,522.3,776.3,522,776.4,521.6z"/>
			<path class="st22" d="M786.9,521.5c-0.1,0-0.2,0-0.2-0.2C786.9,521.3,787,521.3,786.9,521.5z"/>
			<path class="st22" d="M788,522.2c-0.1-0.1-0.1-0.1-0.2-0.2C788,522.1,788.1,522,788,522.2z"/>
			<path class="st23" d="M775.5,525.4c0.1,0,0.2,0,0.2,0.1C775.6,525.5,775.5,525.4,775.5,525.4z"/>
		</g>
	</g>
	<g class="code-nz">
		
			<rect x="798.3" y="477.7" transform="matrix(0.9902 0.1394 -0.1394 0.9902 75.517 -106.8417)" class="st14" width="3.9" height="15.6"/>
		<path class="st15" d="M797.9,493.3c0.8,0.1,1.6,0.2,2.5,0.3c0.6,0.1,0.8-0.1,1-0.6c0.1-0.5,0.2-0.9,0.3-1.4
			c0.1-0.8,0.2-1.6,0.3-2.4c0.1-0.5,0.2-1.1,0.3-1.6c0-0.1,0-0.3,0.1-0.3c0.1,0.1,0.1,0.2,0,0.3c-0.2,1.4-0.4,2.7-0.6,4.1
			c-0.1,0.6-0.1,1.2-0.4,1.8c-0.2,0.4-0.5,0.5-0.9,0.5c-0.7-0.1-1.5-0.2-2.2-0.3c-0.1,0-0.2,0-0.3,0
			C797.9,493.4,797.9,493.4,797.9,493.3z"/>
		<path class="st15" d="M797.1,493.3c-0.2-0.1-0.2-0.3-0.2-0.5c0-0.6,0.1-1.1,0.1-1.7c0.2-1.2,0.3-2.5,0.5-3.7
			c0.1-0.5,0.2-1.1,0.2-1.6c0-0.1,0-0.2,0.2-0.3c0.1,0.2,0,0.5,0,0.7c-0.2,1.2-0.4,2.5-0.5,3.7c-0.1,0.9-0.3,1.8-0.3,2.7
			c0,0.2,0,0.4,0.1,0.6C797.1,493.2,797.1,493.2,797.1,493.3z"/>
		
			<rect x="796.5" y="493.7" transform="matrix(0.9902 0.1394 -0.1394 0.9902 77.3216 -106.4574)" class="st14" width="3.9" height="9.7"/>
	</g>
	<g class="code-ae">
		<path class="st9" d="M391,217c0.1-5.1,0.3-10.2,0.4-15.3c0-1.4,0.1-1.5,1.5-1.5c10.3,0.3,20.5,0.5,30.8,0.8c1.3,0,1.4,0.1,1.3,1.4
			c-0.3,10.3-0.5,20.6-0.8,30.9c0,1.3-0.1,1.3-1.4,1.3c-10.3-0.3-20.5-0.5-30.8-0.8c-1.3,0-1.4-0.1-1.4-1.5
			C390.7,227.2,390.8,222.1,391,217z M392.2,232.1c10.2,0.3,20.2,0.5,30.3,0.8c0.3-10.2,0.5-20.2,0.8-30.3
			c-10.1-0.3-20.2-0.5-30.3-0.8C392.7,212,392.5,222,392.2,232.1z"/>
		<path class="st9" d="M428.2,247.6c-14.1-0.4-28.3-0.7-42.4-1.1c-0.1-0.4-0.4-0.8-0.4-1.2c0.4-16.3,0.8-32.6,1.3-48.9
			c0-0.4,0.3-0.8,0.4-1.2c14.1,0.4,28.3,0.7,42.4,1.1c0.1,0.4,0.4,0.8,0.4,1.2c-0.4,16.3-0.8,32.6-1.3,48.9
			C428.6,246.8,428.4,247.2,428.2,247.6z M427,245.9c0.4-16,0.8-32,1.2-47.9c-13.4-0.3-26.6-0.7-39.9-1c-0.4,16-0.8,31.9-1.2,47.9
			C400.4,245.2,413.7,245.5,427,245.9z"/>
		<path class="st25" d="M427,245.9c-13.3-0.3-26.6-0.7-39.9-1c0.4-16,0.8-31.9,1.2-47.9c13.3,0.3,26.5,0.7,39.9,1
			C427.8,213.9,427.4,229.9,427,245.9z M391,217c-0.1,5.1-0.3,10.3-0.4,15.4c0,1.3,0.1,1.4,1.4,1.5c10.3,0.3,20.5,0.5,30.8,0.8
			c1.3,0,1.4-0.1,1.4-1.3c0.3-10.3,0.5-20.6,0.8-30.9c0-1.3-0.1-1.4-1.3-1.4c-10.3-0.3-20.5-0.5-30.8-0.8c-1.4,0-1.4,0-1.5,1.5
			C391.2,206.8,391.1,211.9,391,217z"/>
		<path class="st11" d="M393,201.8c-0.3,10.1-0.5,20.2-0.8,30.3c10.2,0.3,20.2,0.5,30.3,0.8c0.3-10.2,0.5-20.2,0.8-30.3
			C413.2,202.4,403.1,202.1,393,201.8z"/>
		<g>
			<g>
				<path class="st9" d="M406.5,206.2c0.4,0.5,1.1,0.7,1.3,1.3c1.7-0.4,2.2-0.1,2.9,1.3c0.1,0.3,0.3,0.3,0.5,0.3
					c0.8,0.1,1.3,0.6,1.4,1.4c0.1,0.7-0.2,1.3-0.9,1.6c-0.4,0.2-0.3,0.4-0.3,0.7c-0.1,4.2-0.1,8.4-0.2,12.6c0,0.3,0,0.6,0.3,0.8
					c0.3,0.3,0.4,0.7,0.5,1.1c0.3,1.6,0.1,1.9-1.5,1.9c-3.7-0.1-7.3-0.1-11-0.1c-0.8,0-1-0.3-1-1c0.1-0.8,0.1-1.5,0.7-2.1
					c0.3-0.3,0.2-0.6,0.2-1c-2.5-0.3-3.4-1.4-3.3-3.9c0-1.4,0-2.7,0.1-4.1c0-2.5,1-3.5,3.5-3.7c0.1-0.6,0.3-1.2-0.5-1.6
					c-0.6-0.3-0.7-1-0.5-1.6c0.1-0.6,0.5-1.1,1.1-1.1c0.6-0.1,0.8-0.4,1.1-0.9c0.5-0.9,1.4-1.1,2.7-0.8c0.4-0.6,0.9-0.9,1.5-1.3
					C405.4,206.2,406,206.2,406.5,206.2z M403.9,212.4c-1.2,0-2.3,0-3.4-0.1c-0.1,4.5-0.1,8.8-0.2,13.3c3.3,0,6.5,0.2,9.7,0.1
					c0.1,0,0.2,0,0.3,0c0.3,0,0.2-0.3,0.2-0.4c0.1-4.1,0.1-8.2,0.2-12.4c0-0.2,0.1-0.4-0.2-0.4C408.3,212.4,406.1,212.4,403.9,212.4
					z M401,209.9c-0.4,0.1-0.6,0-0.9,0c-0.5-0.1-0.8,0.1-0.9,0.6c-0.1,0.5,0.1,0.8,0.5,1c0.2,0.1,0.4,0.1,0.6,0.1
					c3.5,0.1,6.9,0.1,10.4,0.2c0.1,0,0.3,0,0.4,0c0.5-0.1,0.8-0.5,0.7-1c-0.1-0.5-0.4-0.8-1-0.7c-0.3,0.1-0.6,0.2-0.8-0.1
					c-0.1-1.7-0.6-2.1-2.2-1.4c-0.4,0.2-0.6,0-0.7-0.4c-0.2-0.7-0.8-1.2-1.5-1.2c-0.7,0-1.3,0.4-1.6,1.1c-0.2,0.5-0.4,0.6-0.9,0.3
					c-0.8-0.5-1.6-0.3-1.9,0.4C401.1,209.1,401.1,209.5,401,209.9z M399.4,228.5c4,0.1,7.9,0.1,11.8,0.2c0.2-1.7-0.1-2.2-1.7-2.2
					c-2.7,0-5.5-0.1-8.2-0.1C399.7,226.3,399.3,226.7,399.4,228.5z M399.4,223.2c-1.3-0.4-1.4-0.6-1.4-1.9c0-1.3,0.1-2.6,0-3.9
					c0-1.1,0-2.1,1.5-2.1c0-0.4,0.1-0.7-0.1-1c-1.3-0.1-2.4,0.6-2.5,1.8c-0.2,2.1-0.2,4.2-0.1,6.3c0.1,1.2,1.2,2,2.5,1.8
					C399.4,223.9,399.5,223.6,399.4,223.2z M399.5,216.3c-0.6-0.1-0.7,0.2-0.7,0.6c0,1.6-0.1,3.2-0.1,4.9c0,0.4,0.1,0.7,0.7,0.6
					C399.4,220.3,399.5,218.3,399.5,216.3z"/>
				<path class="st26" d="M401,209.9c0.1-0.4,0.1-0.8,0.2-1.1c0.3-0.7,1.1-1,1.9-0.4c0.5,0.3,0.7,0.2,0.9-0.3
					c0.3-0.7,0.8-1.1,1.6-1.1c0.8,0,1.3,0.5,1.5,1.2c0.1,0.4,0.3,0.6,0.7,0.4c1.6-0.6,2.1-0.3,2.2,1.4c0.3,0.2,0.5,0.1,0.8,0.1
					c0.5-0.1,0.9,0.1,1,0.7c0.1,0.5-0.2,0.9-0.7,1c-0.1,0-0.3,0-0.4,0c-3.5,0-6.9-0.1-10.4-0.2c-0.2,0-0.4,0-0.6-0.1
					c-0.5-0.2-0.6-0.5-0.5-1c0.1-0.5,0.5-0.7,0.9-0.6C400.4,209.9,400.7,210,401,209.9z"/>
				<path class="st11" d="M399.4,228.5c-0.1-1.7,0.3-2.1,1.9-2.1c2.7,0,5.5,0.1,8.2,0.1c1.6,0,2,0.5,1.7,2.2
					C407.3,228.6,403.4,228.5,399.4,228.5z"/>
				<path class="st22" d="M410.3,225.7c-0.1,0-0.2,0-0.3,0c-0.3-0.2-0.6-0.1-0.9-0.1c-1.6,0-3.2,0-4.7-0.1c-0.3,0-0.8,0.1-0.7-0.5
					c1.7,0,3.5,0,5.2,0.1c0.7,0,0.9-0.2,0.9-0.9c0-3.4,0.1-6.8,0.1-10.2c0-0.6-0.2-0.9-0.8-0.9c-1.3,0-2.6,0-4-0.1
					c-0.3,0-0.7,0-0.8,0.4c-0.2,0-0.3,0-0.5,0c0-0.3,0-0.7,0-1c2.2,0,4.4,0.1,6.6,0.1C410.5,216.9,410.4,221.3,410.3,225.7z"/>
				<path class="st11" d="M403.7,225c-0.1,0.6,0.4,0.5,0.7,0.5c1.6,0,3.2,0,4.7,0.1c0.3,0,0.6-0.1,0.9,0.1c-3.2,0.1-6.5-0.1-9.7-0.1
					c0.1-4.4,0.1-8.8,0.2-13.3c1.1,0,2.3,0,3.4,0.1c0,0.3,0,0.7,0,1c-0.1,0-0.2,0-0.3,0c-0.4-0.7-1.1-0.3-1.7-0.4
					c-0.5-0.1-0.8,0.2-0.8,0.7c0,3.5-0.1,6.9-0.2,10.4c0,0.5,0.2,0.8,0.7,0.8C402.3,224.9,403,224.9,403.7,225z"/>
				<path class="st11" d="M399.4,223.2c0.1,0.3,0.1,0.6,0,1c-1.2,0.2-2.4-0.6-2.5-1.8c-0.1-2.1-0.1-4.2,0.1-6.3
					c0.1-1.2,1.2-1.9,2.5-1.8c0.2,0.3,0.1,0.6,0.1,1c-1.4,0-1.5,1-1.5,2.1c0,1.3,0,2.6,0,3.9C398,222.7,398.1,222.9,399.4,223.2z"/>
				<path class="st27" d="M410.3,225.7c0.1-4.4,0.1-8.8,0.2-13.2c0.3,0.1,0.2,0.3,0.2,0.4c-0.1,4.1-0.1,8.2-0.2,12.4
					C410.5,225.4,410.6,225.7,410.3,225.7z"/>
				<path class="st9" d="M403.5,213.4c-0.4,0.7-1,0.2-1.6,0.4c0,3.3-0.1,6.7-0.2,10.2c2.4,0.2,4.7,0.2,7.2,0.2
					c0.1-3.5,0.1-6.9,0.2-10.4c-1.3,0-2.5,0-3.8-0.1c-0.4,0-0.7,0-0.9-0.4c0.2-0.4,0.5-0.4,0.8-0.4c1.3,0,2.6,0.1,4,0.1
					c0.7,0,0.8,0.3,0.8,0.9c-0.1,3.4-0.1,6.8-0.1,10.2c0,0.7-0.3,0.9-0.9,0.9c-1.7,0-3.5,0-5.2-0.1c-0.7,0-1.4-0.1-2.1-0.1
					c-0.5,0-0.7-0.3-0.7-0.8c0.1-3.5,0.1-6.9,0.2-10.4c0-0.5,0.2-0.8,0.8-0.7C402.4,213.1,403.1,212.7,403.5,213.4z"/>
				<path class="st28" d="M405.3,213.8c-0.4,0-0.7,0-0.9-0.4c-0.2,0-0.3,0-0.5,0c-0.1,0-0.2,0-0.3,0c-0.4,0.7-1,0.2-1.6,0.4
					c0,3.3-0.1,6.7-0.2,10.2c2.4,0.2,4.7,0.2,7.2,0.2c0.1-3.5,0.1-6.9,0.2-10.4C407.9,213.8,406.6,213.8,405.3,213.8z M405.1,218.8
					C405.1,218.8,405.1,218.8,405.1,218.8C405.1,218.8,405.1,218.8,405.1,218.8c-0.2,0-0.3,0.1-0.4,0.3
					C404.7,219,404.8,218.9,405.1,218.8z M405.2,218.9C405.2,218.9,405.2,218.9,405.2,218.9C405.2,218.9,405.2,218.9,405.2,218.9z
					 M404.7,219.4C404.7,219.4,404.7,219.4,404.7,219.4C404.7,219.4,404.7,219.4,404.7,219.4z M404.8,219.5
					C404.8,219.5,404.8,219.5,404.8,219.5C404.8,219.5,404.8,219.5,404.8,219.5z"/>
			</g>
			<g>
				<path class="st9" d="M404.8,224.5c0.4-1,0.8-2,1.7-2.7c-0.6-0.3-1-0.6-1-1.2c0-0.8,0.7-1.2,1.4-1.1c0.1,0,0.3,0.1,0.4,0.1
					c0.8,0.5,1.3,0.3,1.9-0.4c0.6-0.7,1.3-1.2,2.2-1.4c1.2-0.3,2.3-0.1,3.2,0.7c0.2,0.2,0.5,0.4,0.7,0.6c0.6,0.8,1.2,1.2,2.3,0.6
					c0.6-0.3,1.3,0.1,1.5,0.6c0.3,0.7,0,1.2-0.9,1.6c0.6,0.7,1.2,1.4,1.4,2.4c0.5,2,0,3.7-1.5,5c-1.6,1.4-3.5,1.6-5.4,0.7
					c-0.3-0.2-0.6-0.2-0.9,0c-2.7,1.3-5.9-0.1-6.8-3.1c0-0.2,0-0.4-0.2-0.5C404.8,225.8,404.8,225.1,404.8,224.5z M418.5,220.5
					L418.5,220.5c-0.3-0.4-0.7-0.4-1.7,0.2c0.2,0.2,0.5,0.3,0.7,0.5c0.3,0.4,0.6,0.1,0.9,0C418.6,221.1,418.7,220.8,418.5,220.5z
					 M419.2,225.6c0-0.9-0.3-1.8-0.9-2.6c-1.1-1.4-2.4-2.6-3.7-3.8c-1.4-1.3-3.1-1.3-4.6,0.1c-1.1,1-2.2,2.1-3.3,3.2
					c-1.6,1.6-1.8,4-0.6,5.6c1.4,1.8,3.6,2.3,5.6,1.2c0.4-0.2,0.6-0.1,1,0.1C415.6,230.9,419.1,228.9,419.2,225.6z M408,220.5
					c-0.5-0.2-0.7-0.3-1-0.4c-0.3-0.1-0.6-0.1-0.8,0.2c-0.1,0.3-0.1,0.5,0.2,0.7c0.3,0.2,0.6,0.4,0.9,0
					C407.5,220.9,407.7,220.7,408,220.5z"/>
				<path class="st29" d="M408,220.5c-0.3,0.3-0.6,0.4-0.7,0.6c-0.3,0.4-0.6,0.2-0.9,0c-0.3-0.2-0.3-0.5-0.2-0.7
					c0.2-0.3,0.5-0.4,0.8-0.2C407.3,220.2,407.6,220.3,408,220.5z"/>
				<path class="st9" d="M415.6,222.7c-0.3-0.3-0.5-0.6-0.8-0.8c-0.9,0.7-1.5,1.5-2,2.4c-0.1,0.2-0.2,0.5-0.5,0.5
					c-0.3,0-0.3-0.3-0.4-0.5c-0.5-0.9-1.1-1.7-1.9-2.4c-0.3,0.2-0.5,0.5-0.8,0.8c0.9,0.8,1.6,1.7,2,2.8c0.3,0.7,0.4,1.5,0.5,2.3
					c0,0.3-0.2,0.5-0.4,0.6c-1.2,0.7-2.9,0.5-3.9-0.6c-1-1.1-1.1-2.8-0.2-4c1.2-1.4,2.5-2.6,3.9-3.8c0.8-0.7,1.8-0.7,2.6,0
					c1.3,1.2,2.6,2.5,3.8,3.9c0.9,1.2,0.8,2.8-0.3,4c-1,1.1-2.7,1.3-3.9,0.5c-0.4-0.2-0.4-0.5-0.4-0.9
					C413.2,225.5,414.1,223.9,415.6,222.7z M408.7,223c-0.4,0.4-0.7,0.7-1,1.1c-0.7,0.9-0.7,2.2,0.1,3.1c0.7,0.9,2,1.2,3,0.7
					c0.2-0.1,0.4-0.1,0.3-0.5C410.9,225.6,410.1,224.2,408.7,223z M416,223.1c-1.3,0.8-2.2,2.5-2.5,4.1c-0.1,0.4,0,0.5,0.3,0.7
					c1.7,0.7,3.5-0.4,3.6-2.3C417.5,224.5,416.8,223.8,416,223.1z M410.4,221.3c0.8,0.7,1.4,1.5,1.9,2.4c0.3-0.4,0.6-0.9,0.9-1.2
					c0.3-0.4,0.7-0.8,1.1-1.1C412.8,219.6,412,219.5,410.4,221.3z"/>
				<path class="st29" d="M418.3,223c-1.1-1.4-2.4-2.6-3.7-3.8c-1.4-1.3-3.1-1.3-4.6,0.1c-1.1,1-2.2,2.1-3.3,3.2
					c-1.6,1.6-1.8,4-0.6,5.6c1.4,1.8,3.6,2.3,5.6,1.2c0.4-0.2,0.6-0.1,1,0.1c2.8,1.6,6.3-0.4,6.4-3.7
					C419.2,224.7,418.9,223.8,418.3,223z M418.3,225.8c0,0,0,0.1,0,0.1C418.3,225.9,418.3,225.8,418.3,225.8
					c0.1-0.8-0.2-1.5-0.6-2.2C418.1,224.3,418.4,225,418.3,225.8z M417.2,227.8c-1,1.1-2.7,1.3-3.9,0.5c-0.4-0.2-0.4-0.5-0.4-0.9
					c0.3-1.9,1.2-3.5,2.7-4.8c-0.3-0.3-0.5-0.6-0.8-0.8c-0.9,0.7-1.5,1.5-2,2.4c-0.1,0.2-0.2,0.5-0.5,0.5c-0.3,0-0.3-0.3-0.4-0.5
					c-0.5-0.9-1.1-1.7-1.9-2.4c-0.3,0.2-0.5,0.5-0.8,0.8c0.9,0.8,1.6,1.7,2,2.8c0.3,0.7,0.4,1.5,0.5,2.3c0,0.3-0.2,0.5-0.4,0.6
					c-1.2,0.7-2.9,0.5-3.9-0.6c-1-1.1-1.1-2.8-0.2-4c1.2-1.4,2.5-2.6,3.9-3.8c0.8-0.7,1.8-0.7,2.6,0c1.3,1.2,2.6,2.5,3.8,3.9
					C418.4,225,418.2,226.6,417.2,227.8z"/>
				<path class="st29" d="M418.5,220.5L418.5,220.5c-0.3-0.4-0.7-0.4-1.7,0.2c0.2,0.2,0.5,0.3,0.7,0.5c0.3,0.4,0.6,0.1,0.9,0
					C418.6,221.1,418.7,220.8,418.5,220.5z"/>
			</g>
		</g>
	</g>
	<g class="code-ae">
		
			<rect x="407.1" y="177.4" transform="matrix(0.962 0.2729 -0.2729 0.962 66.0909 -104.6048)" class="st14" width="3.9" height="15.8"/>
		<path class="st15" d="M405.7,192.8c0.8,0.2,1.6,0.4,2.4,0.7c0.6,0.2,0.8,0,1.1-0.5c0.2-0.4,0.3-0.9,0.5-1.4
			c0.2-0.8,0.4-1.6,0.7-2.4c0.2-0.5,0.3-1.1,0.5-1.6c0-0.1,0.1-0.3,0.2-0.3c0.1,0.1,0,0.2,0,0.3c-0.4,1.3-0.7,2.7-1.2,4
			c-0.2,0.6-0.3,1.2-0.7,1.7c-0.3,0.4-0.6,0.5-1,0.4c-0.7-0.2-1.5-0.4-2.2-0.6c-0.1,0-0.2,0-0.3-0.1
			C405.7,192.9,405.7,192.8,405.7,192.8z"/>
		<path class="st15" d="M404.8,192.7c-0.2-0.1-0.2-0.3-0.2-0.5c0-0.6,0.2-1.1,0.4-1.7c0.3-1.2,0.7-2.4,1-3.6c0.1-0.5,0.3-1,0.5-1.6
			c0-0.1,0-0.2,0.2-0.3c0.1,0.2-0.1,0.5-0.1,0.7c-0.3,1.2-0.7,2.4-1,3.6c-0.2,0.9-0.5,1.7-0.7,2.6c0,0.2-0.1,0.4,0,0.6
			C404.9,192.6,404.9,192.6,404.8,192.7z"/>
		
			<rect x="403.5" y="193.2" transform="matrix(0.962 0.2729 -0.2729 0.962 69.4581 -103.1229)" class="st14" width="3.9" height="9.8"/>
	</g>
	<g class="code-us">
		<g>
			<path class="st9" d="M152.3,281.7c-12.6-5.7-25.2-11.4-37.9-17.2c0-0.4,0-0.9,0.1-1.2c6.6-14.5,13.2-29.1,19.8-43.6
				c0.2-0.4,0.5-0.6,0.8-0.9c12.6,5.7,25.2,11.4,37.9,17.2c0,0.4,0,0.9-0.1,1.2c-6.6,14.5-13.2,29.1-19.8,43.6
				C153,281.1,152.6,281.4,152.3,281.7z M151.8,279.7c6.5-14.3,12.9-28.5,19.4-42.8c-11.9-5.4-23.8-10.8-35.6-16.2
				c-6.5,14.3-12.9,28.5-19.4,42.8C128.1,268.9,139.9,274.3,151.8,279.7z"/>
			<path class="st30" d="M151.8,279.7c-11.9-5.4-23.7-10.8-35.6-16.2c6.5-14.3,12.9-28.5,19.4-42.8c11.8,5.4,23.7,10.7,35.6,16.2
				C164.8,251.2,158.3,265.4,151.8,279.7z M130.4,239.9c-2.1,4.6-4.2,9.2-6.2,13.7c-0.5,1.2-0.5,1.3,0.7,1.8
				c9.2,4.2,18.3,8.3,27.5,12.5c1.1,0.5,1.3,0.5,1.8-0.6c4.2-9.2,8.3-18.4,12.5-27.6c0.5-1.1,0.5-1.3-0.7-1.8
				c-9.2-4.2-18.3-8.3-27.5-12.5c-1.2-0.6-1.3-0.5-1.9,0.8C134.5,230.7,132.4,235.3,130.4,239.9z"/>
			<path class="st9" d="M130.4,239.9c2.1-4.6,4.1-9.1,6.2-13.7c0.6-1.3,0.7-1.3,1.9-0.8c9.2,4.2,18.3,8.3,27.5,12.5
				c1.1,0.5,1.2,0.7,0.7,1.8c-4.2,9.2-8.3,18.4-12.5,27.6c-0.5,1.1-0.6,1.2-1.8,0.6c-9.2-4.2-18.3-8.3-27.5-12.5
				c-1.2-0.5-1.2-0.7-0.7-1.8C126.2,249,128.3,244.4,130.4,239.9z M125.7,254c9.1,4.1,18.1,8.2,27,12.3c4.1-9.1,8.2-18.1,12.3-27
				c-9-4.1-18-8.2-27-12.3C133.9,236,129.8,245,125.7,254z"/>
			<path class="st11" d="M138,227c-4.1,9-8.2,18-12.3,27c9.1,4.1,18.1,8.2,27,12.3c4.1-9.1,8.2-18.1,12.3-27
				C155.9,235.2,147,231.1,138,227z"/>
		</g>
		<g>
			<path class="st31" d="M148.7,235.6c0.4-0.5,0.7-1,1.4-1c1.3,0.6,2.6,1.2,3.9,1.8c0.7,1,0,1.8-0.3,2.6c-1.5-0.7-1.8-0.5-2.6,0.9
				c-1.3,2.6-2.6,5.1-3.9,7.6c-0.1,0-0.2-0.1-0.3-0.1c-0.2-0.3-0.5-0.5-0.9-0.4c-0.1-0.1-0.2-0.1-0.3-0.2c1.3-3.3,2.5-6.6,3.6-9.9
				C149.5,236.3,149.2,235.9,148.7,235.6z"/>
			<path class="st31" d="M157.2,237.8c0.4,0.6,1.1,0.9,1.7,1.2c1.5,0.9,1.6,1.3,0.6,2.8c-1.1,1.6-2.1,3.3-3.1,4.9
				c-0.6-0.3-1.2-0.5-1.8-0.8c0.1-0.2,0.2-0.4,0.3-0.6c0.5-1.2,1.3-2.1,1.7-3.3c0.2-0.6,0.2-1.1-0.4-1.5c-0.6-0.4-1.3-0.8-1.9-1.1
				c0.5-0.8,0.8-1.7,1.8-1.9C156.5,237.5,156.8,237.7,157.2,237.8z"/>
			<path class="st32" d="M154.6,245.9c0.6,0.3,1.2,0.5,1.8,0.8c0.6,0.6,0.4,1.1,0.1,1.7c-1.7,2.6-3.5,5.3-5.2,7.9
				c-0.4,0.6-0.8,1.1-1.1,1.7c-5.4-2.4-10.7-4.9-16.1-7.3c1-3.7,2.1-7.5,3.1-11.2c0.2-0.6,0.5-0.9,1.1-1c1.7,0.9,3.7,1.4,5.3,2.6
				c0.4,1.1-0.1,2-0.3,3c-0.2,1.1,0.1,1.7,1.1,2.2c0.4,0.2,0.9,0.4,1.3,0.5c0.1,0.1,0.2,0.1,0.3,0.2c0.3,0.1,0.6,0.3,0.9,0.4
				c0.1,0,0.2,0.1,0.3,0.1c0.7,0.2,1.3,0,1.7-0.6c0.4-0.5,0.8-1,1.2-1.5c0.7-0.9,1.2-1,2.3-0.5C153.1,245.2,153.9,245.5,154.6,245.9
				z"/>
			<path class="st33" d="M145.6,246.8c-0.4-0.2-0.9-0.3-1.3-0.5c-1-0.5-1.3-1.1-1.1-2.2c0.2-1,0.7-2,0.3-3c0.1-0.2,0.1-0.4,0.2-0.5
				c0.5-2.1,1-4.2,1.4-6.3c1.2,0.5,2.4,0.9,3.6,1.4c0.5,0.3,0.8,0.6,0.6,1.3C148.1,240.2,147,243.6,145.6,246.8z"/>
			<path class="st31" d="M145.1,234.3c-0.5,2.1-1,4.2-1.4,6.3c0,0.2-0.1,0.4-0.2,0.5c-1.6-1.2-3.5-1.7-5.3-2.6
				c0.4-2,0.9-4.1,1.3-6.1c0.2-0.7,0.7-1,1.4-0.9c1.1,0.2,2.3,0.4,3.4,0.7C145.5,232.6,145.2,233.4,145.1,234.3z"/>
			<path class="st32" d="M149.2,259.5c-0.9,1.5-1.2,1.6-2.8,0.9c-3.9-1.7-7.7-3.5-11.6-5.2c-1.6-0.7-1.7-1-1.2-2.7
				C138.8,254.7,144,257.1,149.2,259.5z"/>
			<path class="st31" d="M149.2,259.5c-5.2-2.4-10.4-4.7-15.6-7.1c0.1-0.6,0.2-1.2,0.5-1.7c5.4,2.4,10.7,4.9,16.1,7.3
				C149.8,258.5,149.5,259,149.2,259.5z"/>
			<path class="st33" d="M154.6,245.9c-0.8-0.3-1.5-0.7-2.3-1c-1-0.5-1.6-0.3-2.3,0.5c-0.4,0.5-0.8,1-1.2,1.5
				c-0.4,0.6-1,0.8-1.7,0.6c1.3-2.5,2.6-5.1,3.9-7.6c0.7-1.4,1-1.6,2.6-0.9c0.2,0.1,0.4,0.2,0.6,0.3c0.6,0.4,1.3,0.7,1.9,1.1
				c0.6,0.4,0.6,0.9,0.4,1.5c-0.4,1.2-1.2,2.2-1.7,3.3C154.8,245.4,154.7,245.7,154.6,245.9z"/>
			<path class="st33" d="M146.8,247.4c-0.3-0.1-0.6-0.3-0.9-0.4C146.3,247,146.6,247.1,146.8,247.4z"/>
		</g>
	</g>
	<g class="code-us">
		
			<rect x="144.3" y="204.6" transform="matrix(0.9512 0.3087 -0.3087 0.9512 72.6747 -34.7787)" class="st14" width="3.8" height="15.4"/>
		<path class="st15" d="M142.7,219.5c0.8,0.2,1.6,0.5,2.3,0.7c0.5,0.2,0.8,0.1,1.1-0.5c0.2-0.4,0.3-0.9,0.5-1.3
			c0.3-0.8,0.5-1.5,0.7-2.3c0.2-0.5,0.3-1,0.5-1.5c0-0.1,0.1-0.2,0.2-0.3c0.1,0.1,0,0.2,0,0.3c-0.4,1.3-0.8,2.6-1.3,3.9
			c-0.2,0.6-0.3,1.2-0.7,1.7c-0.3,0.4-0.6,0.5-1,0.3c-0.7-0.2-1.4-0.5-2.1-0.7c-0.1,0-0.2,0-0.3-0.1
			C142.6,219.6,142.6,219.5,142.7,219.5z"/>
		<path class="st15" d="M141.8,219.3c-0.2-0.1-0.2-0.3-0.1-0.5c0.1-0.6,0.3-1.1,0.4-1.6c0.4-1.2,0.7-2.4,1.1-3.5
			c0.2-0.5,0.3-1,0.5-1.5c0-0.1,0-0.2,0.2-0.3c0,0.2-0.1,0.4-0.2,0.6c-0.4,1.2-0.8,2.3-1.1,3.5c-0.3,0.8-0.6,1.7-0.8,2.5
			c0,0.2-0.1,0.4,0,0.6C141.9,219.2,141.8,219.3,141.8,219.3z"/>
		
			<rect x="140.3" y="219.9" transform="matrix(0.9512 0.3087 -0.3087 0.9512 76.3183 -32.9244)" class="st14" width="3.8" height="9.6"/>
	</g>
	<g class="code-gb">
		<path class="st34" d="M387.9,117.3c0.5-0.2,1-0.2,1.5,0c0.5,0.4,0.8,0.9,0.8,1.6c0,0.4,0,0.8,0,1.2c-1,0-2,0-2.9,0
			C387.3,119.1,387,118.1,387.9,117.3z"/>
		<g>
			<path class="st9" d="M370.1,140.5c-1.4-4.8-2.7-9.7-4.1-14.5c-0.4-1.4-0.3-1.4,1-1.8c9.7-2.7,19.5-5.5,29.2-8.2
				c1.2-0.3,1.3-0.3,1.7,0.9c2.7,9.8,5.5,19.6,8.2,29.3c0.3,1.2,0.3,1.3-1,1.7c-9.7,2.7-19.5,5.5-29.2,8.2c-1.3,0.4-1.4,0.3-1.7-1
				C372.8,150.2,371.4,145.3,370.1,140.5z M375.7,154.4c9.6-2.7,19.2-5.4,28.8-8.1c-2.7-9.6-5.4-19.2-8.1-28.8
				c-9.6,2.7-19.2,5.4-28.8,8.1C370.3,135.2,373,144.8,375.7,154.4z"/>
			<g>
				<path class="st9" d="M414,158.5c-13.4,3.8-26.9,7.5-40.3,11.3c-0.2-0.3-0.6-0.6-0.7-1c-4.3-15.5-8.7-30.9-13-46.4
					c-0.1-0.4,0-0.8,0-1.2c13.4-3.8,26.9-7.5,40.3-11.3c0.2,0.3,0.6,0.6,0.7,1c4.3,15.5,8.7,30.9,13,46.4
					C414.2,157.6,414.1,158.1,414,158.5z M412.4,157.3c-4.3-15.2-8.5-30.4-12.7-45.5c-12.7,3.6-25.3,7.1-37.9,10.6
					c4.3,15.2,8.5,30.3,12.7,45.5C387.2,164.3,399.7,160.8,412.4,157.3z"/>
				<path class="st35" d="M412.4,157.3c-12.7,3.5-25.2,7.1-37.9,10.6c-4.2-15.2-8.5-30.3-12.7-45.5c12.6-3.5,25.2-7.1,37.9-10.6
					C403.9,126.9,408.1,142,412.4,157.3z M370.1,140.5c1.4,4.9,2.7,9.7,4.1,14.6c0.4,1.3,0.5,1.3,1.7,1c9.7-2.7,19.5-5.5,29.2-8.2
					c1.2-0.3,1.3-0.5,1-1.7c-2.7-9.8-5.5-19.6-8.2-29.3c-0.3-1.2-0.5-1.3-1.7-0.9c-9.7,2.7-19.5,5.5-29.2,8.2
					c-1.3,0.4-1.4,0.4-1,1.8C367.4,130.8,368.7,135.6,370.1,140.5z"/>
				<path class="st11" d="M367.6,125.6c2.7,9.6,5.4,19.1,8.1,28.8c9.6-2.7,19.2-5.4,28.8-8.1c-2.7-9.6-5.4-19.2-8.1-28.8
					C386.7,120.3,377.2,123,367.6,125.6z"/>
			</g>
		</g>
		<g>
			<path class="st36" d="M386.4,122.1c0.4,0.1,0.8,0.2,0.9,0.7c0.1,0.3,0.2,0.6,0.3,0.9c0.1,0.6-0.1,0.9-0.7,1.1c-2,0.6-4,1.1-6,1.7
				c-0.6,0.2-0.9,0-1.2-0.5c-0.1-0.3-0.1-0.6-0.3-0.9c-0.1-0.4,0.1-0.8,0.4-1C382.1,123.3,384.3,122.7,386.4,122.1z"/>
			<path class="st37" d="M396.2,133.4c0,0.1,0.1,0.1,0.1,0.1c0.6,0.1,0.7,0.5,0.8,0.9c0,0.6,0,1.2,0.1,1.8c0,0.1,0,0.2,0.1,0.3
				c0.5,1.7,1,3.4,1.4,5.2c0.4,1.3-0.5,2.9-1.8,3.2c-0.2,0.1-0.4,0-0.5,0.3c-0.1-0.1-0.2,0-0.3,0c-0.3,0.1-0.6,0.2-0.9,0.2
				c-3.9,1.1-7.9,2.2-11.8,3.3c-0.1,0-0.3,0-0.4,0.1c-1.2,0.4-2.6-0.2-3.2-1.4c-0.1-0.2-0.1-0.5-0.2-0.7c0-0.1-0.1-0.2-0.1-0.3
				c-0.2-0.7-0.4-1.4-0.6-2c-0.2-0.6-0.4-1.2-0.5-1.9c0.1-0.3-0.1-0.5-0.2-0.8c-0.3-0.6-0.6-1.2-0.9-1.8c-0.3-0.5-0.2-0.8,0.2-1.2
				c0,0,0.1-0.1,0.1-0.1c0.1,0,0.2-0.1,0.3-0.1c6-1.7,12-3.4,18.1-5.1C396,133.5,396.1,133.5,396.2,133.4z"/>
			<path class="st38" d="M396.2,133.4c-0.1,0.1-0.2,0.1-0.4,0.2c-6,1.7-12,3.4-18.1,5.1c-0.1,0-0.2,0.1-0.3,0.1
				c-0.3-0.2-0.3-0.3-0.1-0.7c0.2-0.3,0.3-0.6,0.5-0.9c0.3-0.7,0.8-1.1,1.5-1.4c0.6-0.2,1.2-0.3,1.7-0.5c0.4-0.1,0.9-0.2,1.3-0.4
				c2.6-0.7,5.2-1.5,7.8-2.2c0.4-0.1,0.9-0.2,1.3-0.4c0.6-0.2,1.2-0.3,1.7-0.5c0.7-0.2,1.4-0.2,2,0.2c0.3,0.2,0.6,0.4,0.9,0.6
				C396.4,132.9,396.4,133.1,396.2,133.4z"/>
			<path class="st38" d="M383.4,148.8c3.9-1.1,7.9-2.2,11.8-3.3c0.3-0.1,0.6-0.2,0.9-0.2c0.1,0,0.2-0.1,0.3,0
				c-0.2,0.5-0.4,1-0.5,1.5c-3.7,1-7.5,2.1-11.2,3.1C384.2,149.5,383.8,149.2,383.4,148.8z"/>
			<path class="st38" d="M378.3,142.6c0.2,0.6,0.4,1.2,0.5,1.9c0.2,0.7,0.4,1.4,0.6,2c-0.6-0.6-1.1-1.1-1.7-1.7
				c-0.8-0.8-1.7-1.7-2.5-2.5c-0.1-0.1-0.1-0.2-0.2-0.2c-0.2-0.3-0.1-0.7,0.2-0.8c0.2-0.1,0.5-0.1,0.7-0.2c0.1,0,0.2,0,0.2,0.1
				C376.8,141.6,377.5,142.2,378.3,142.6z"/>
			<path class="st38" d="M379.5,125c0.1,0.3,0.2,0.6,0.3,0.9c-0.3,0-0.5,0.2-0.7,0.4c-0.6,0.6-0.7,1.3-0.5,2.1
				c0.5,1.8,1,3.6,1.5,5.4c-0.3-0.1-0.6,0.1-0.9,0.2c-0.5-1.8-1-3.6-1.5-5.4C377.3,127.1,377.9,125.7,379.5,125
				C379.4,125,379.5,125,379.5,125z"/>
			<path class="st37" d="M379.2,134.1c0.3-0.2,0.5-0.3,0.9-0.2c0.4,0.1,0.6,0.4,0.7,0.8c0,0.2,0.1,0.5,0.2,0.7
				c-0.6,0.2-1.2,0.3-1.7,0.5c0-0.1-0.1-0.3-0.1-0.4C379,135,378.9,134.5,379.2,134.1z"/>
			<path class="st38" d="M387.6,123.7c-0.1-0.3-0.2-0.6-0.3-0.9c1.3-0.2,2.5,0.3,3.2,1.5c0.1,0.2,0.2,0.4,0.2,0.6
				c0.5,1.8,1,3.7,1.5,5.5c-0.3-0.1-0.6,0.1-0.9,0.2c-0.5-1.8-1-3.6-1.5-5.5c-0.1-0.3-0.2-0.5-0.3-0.7
				C389.2,123.9,388.3,123.5,387.6,123.7z"/>
			<path class="st37" d="M386.6,131.9c0.6-0.2,1.1-0.3,1.7-0.5c0.7-0.2,1.3,0,1.6,0.6c0.1,0.2,0.2,0.5,0.2,0.8
				c-2.6,0.7-5.2,1.5-7.8,2.2c0-0.1-0.1-0.3-0.1-0.4c-0.3-0.8,0.2-1.5,1-1.7c0.6-0.2,1.1-0.3,1.7-0.5
				C385.4,132.2,386,132.1,386.6,131.9z"/>
			<path class="st37" d="M384.5,131.1c-0.4,0.1-0.9,0.2-1.3,0c-0.5-0.2-0.7-0.6-0.6-1c0-0.3,0.2-0.4,0.4-0.5
				c1.3-0.4,2.6-0.7,3.9-1.1c0.4-0.1,0.9,0.3,0.8,0.8c-0.1,0.5-0.3,0.8-0.8,1c-0.2,0.1-0.4,0.2-0.6,0.2
				C385.7,130.8,385.1,131,384.5,131.1z"/>
			<path class="st38" d="M384.5,131.1c0.6-0.2,1.2-0.3,1.7-0.5c0.1,0.4,0.2,0.9,0.4,1.3c-0.6,0.2-1.2,0.3-1.7,0.5
				C384.7,132,384.6,131.6,384.5,131.1z"/>
		</g>
	</g>
	<g class="code-gb">
		
			<rect x="361.1" y="145.5" transform="matrix(0.5781 -0.816 0.816 0.5781 28.1568 360.8969)" class="st14" width="3.9" height="15.5"/>
		<path class="st15" d="M368.9,158.8c0.5-0.7,0.9-1.4,1.4-2c0.3-0.5,0.3-0.8-0.1-1.2c-0.3-0.3-0.8-0.6-1.1-0.9
			c-0.7-0.5-1.3-0.9-2-1.4c-0.4-0.3-0.9-0.6-1.3-1c-0.1-0.1-0.2-0.1-0.2-0.3c0.1-0.1,0.2,0,0.3,0.1c1.1,0.8,2.2,1.6,3.3,2.4
			c0.5,0.4,1,0.7,1.4,1.2c0.3,0.4,0.3,0.7,0,1c-0.4,0.6-0.9,1.2-1.3,1.8c-0.1,0.1-0.1,0.2-0.1,0.2
			C369,158.9,368.9,158.9,368.9,158.8z"/>
		<path class="st15" d="M368.5,159.6c-0.2,0.1-0.4,0-0.6,0c-0.5-0.2-1-0.6-1.4-0.9c-1-0.7-2-1.4-3.1-2.1c-0.4-0.3-0.9-0.6-1.3-0.9
			c-0.1-0.1-0.2-0.1-0.2-0.3c0.2,0,0.4,0.2,0.6,0.3c1,0.7,2,1.4,3,2.2c0.7,0.5,1.4,1.1,2.2,1.5c0.2,0.1,0.4,0.2,0.6,0.2
			C368.4,159.5,368.5,159.6,368.5,159.6z"/>
		
			<rect x="371.9" y="156" transform="matrix(0.5781 -0.816 0.816 0.5781 26.4799 372.8683)" class="st14" width="3.9" height="9.7"/>
	</g>
</g>
</svg>
