<?xml version="1.0" encoding="utf-8"?>
<!-- Generator: Adobe Illustrator 15.1.0, SVG Export Plug-In . SVG Version: 6.00 Build 0)  -->
<!DOCTYPE svg PUBLIC "-//W3C//DTD SVG 1.1//EN" "http://www.w3.org/Graphics/SVG/1.1/DTD/svg11.dtd">
<svg version="1.1" id="图层_1" xmlns="http://www.w3.org/2000/svg" xmlns:xlink="http://www.w3.org/1999/xlink" x="0px" y="0px"
	 width="841.89px" height="595.28px" viewBox="0 0 841.89 595.28" enable-background="new 0 0 841.89 595.28" xml:space="preserve">
<g>
	<defs>
		<rect id="SVGID_1_" y="39.612" width="841.89" height="516.058"/>
	</defs>
	<clipPath id="SVGID_2_">
		<use xlink:href="#SVGID_1_"  overflow="visible"/>
	</clipPath>
</g>
<rect x="1.652" fill="#E8E8E5" width="840.238" height="595.28"/>
<line fill="none" stroke="#000000" stroke-miterlimit="10" x1="28.382" y1="164.067" x2="42.869" y2="111.257"/>
<line fill="none" stroke="#000000" stroke-miterlimit="10" x1="118.053" y1="198.135" x2="42.869" y2="111.257"/>
<line fill="none" stroke="#000000" stroke-miterlimit="10" x1="28.382" y1="164.067" x2="78.59" y2="152.535"/>
<line fill="none" stroke="#000000" stroke-miterlimit="10" x1="42.869" y1="111.256" x2="104.956" y2="108.557"/>
<line fill="none" stroke="#000000" stroke-miterlimit="10" x1="139.57" y1="77.45" x2="104.955" y2="108.557"/>
<line fill="none" stroke="#000000" stroke-miterlimit="10" x1="199.445" y1="91.483" x2="139.57" y2="77.45"/>
<line fill="none" stroke="#000000" stroke-miterlimit="10" x1="199.445" y1="91.483" x2="104.955" y2="108.557"/>
<line fill="none" stroke="#000000" stroke-miterlimit="10" x1="112.673" y1="140.131" x2="104.956" y2="108.556"/>
<line fill="none" stroke="#000000" stroke-miterlimit="10" x1="42.869" y1="111.256" x2="112.673" y2="140.13"/>
<line fill="none" stroke="#000000" stroke-miterlimit="10" x1="78.59" y1="152.534" x2="112.673" y2="140.131"/>
<line fill="none" stroke="#000000" stroke-miterlimit="10" x1="199.445" y1="91.483" x2="112.674" y2="140.131"/>
<line fill="none" stroke="#000000" stroke-miterlimit="10" x1="118.053" y1="198.135" x2="112.674" y2="140.13"/>
<line fill="none" stroke="#000000" stroke-miterlimit="10" x1="197.106" y1="148.317" x2="112.673" y2="140.131"/>
<line fill="none" stroke="#000000" stroke-miterlimit="10" x1="199.445" y1="91.483" x2="197.106" y2="148.317"/>
<line fill="none" stroke="#000000" stroke-miterlimit="10" x1="224.471" y1="108.791" x2="197.105" y2="148.317"/>
<line fill="none" stroke="#000000" stroke-miterlimit="10" x1="268.207" y1="214.74" x2="197.106" y2="148.317"/>
<line fill="none" stroke="#000000" stroke-miterlimit="10" x1="182.605" y1="209.595" x2="197.106" y2="148.317"/>
<line fill="none" stroke="#000000" stroke-miterlimit="10" x1="118.053" y1="198.135" x2="197.105" y2="148.316"/>
<line fill="none" stroke="#000000" stroke-miterlimit="10" x1="199.445" y1="91.483" x2="224.471" y2="108.79"/>
<line fill="none" stroke="#000000" stroke-miterlimit="10" x1="200.117" y1="71.251" x2="199.445" y2="91.483"/>
<line fill="none" stroke="#000000" stroke-miterlimit="10" x1="240.97" y1="64.936" x2="200.117" y2="71.25"/>
<line fill="none" stroke="#000000" stroke-miterlimit="10" x1="199.445" y1="91.483" x2="240.97" y2="64.936"/>
<line fill="none" stroke="#000000" stroke-miterlimit="10" x1="264.257" y1="70.659" x2="240.969" y2="64.936"/>
<line fill="none" stroke="#000000" stroke-miterlimit="10" x1="224.471" y1="108.791" x2="240.97" y2="64.936"/>
<line fill="none" stroke="#000000" stroke-miterlimit="10" x1="264.257" y1="70.659" x2="232.72" y2="86.863"/>
<line fill="none" stroke="#000000" stroke-miterlimit="10" x1="262.779" y1="146.333" x2="224.47" y2="108.791"/>
<line fill="none" stroke="#000000" stroke-miterlimit="10" x1="197.106" y1="148.317" x2="262.779" y2="146.333"/>
<line fill="none" stroke="#000000" stroke-miterlimit="10" x1="268.207" y1="214.74" x2="262.779" y2="146.333"/>
<line fill="none" stroke="#000000" stroke-miterlimit="10" x1="118.053" y1="198.135" x2="182.604" y2="209.595"/>
<line fill="none" stroke="#000000" stroke-miterlimit="10" x1="268.207" y1="214.74" x2="182.605" y2="209.595"/>
<line fill="none" stroke="#000000" stroke-miterlimit="10" x1="118.053" y1="198.135" x2="108.813" y2="232.031"/>
<line fill="none" stroke="#000000" stroke-miterlimit="10" x1="160.033" y1="284.398" x2="108.813" y2="232.031"/>
<line fill="none" stroke="#000000" stroke-miterlimit="10" x1="268.207" y1="214.74" x2="160.033" y2="284.398"/>
<line fill="none" stroke="#000000" stroke-miterlimit="10" x1="182.605" y1="209.595" x2="160.033" y2="284.399"/>
<line fill="none" stroke="#000000" stroke-miterlimit="10" x1="118.053" y1="198.135" x2="160.034" y2="284.398"/>
<line fill="none" stroke="#000000" stroke-miterlimit="10" x1="182.605" y1="209.595" x2="189.855" y2="264.456"/>
<line fill="none" stroke="#000000" stroke-miterlimit="10" x1="186.23" y1="300.077" x2="160.033" y2="284.398"/>
<line fill="none" stroke="#000000" stroke-miterlimit="10" x1="189.855" y1="264.456" x2="186.23" y2="300.077"/>
<line fill="none" stroke="#000000" stroke-miterlimit="10" x1="178.604" y1="350.722" x2="186.23" y2="298.486"/>
<line fill="none" stroke="#000000" stroke-miterlimit="10" x1="218.221" y1="307.271" x2="186.23" y2="300.077"/>
<line fill="none" stroke="#000000" stroke-miterlimit="10" x1="178.604" y1="350.722" x2="218.221" y2="307.272"/>
<line fill="none" stroke="#000000" stroke-miterlimit="10" x1="272.214" y1="347.527" x2="218.22" y2="307.271"/>
<line fill="none" stroke="#000000" stroke-miterlimit="10" x1="178.604" y1="350.722" x2="272.214" y2="347.527"/>
<line fill="none" stroke="#000000" stroke-miterlimit="10" x1="200.099" y1="389.504" x2="178.669" y2="350.273"/>
<line fill="none" stroke="#000000" stroke-miterlimit="10" x1="272.214" y1="347.527" x2="200.098" y2="390.032"/>
<line fill="none" stroke="#000000" stroke-miterlimit="10" x1="284.599" y1="372.477" x2="272.215" y2="347.526"/>
<line fill="none" stroke="#000000" stroke-miterlimit="10" x1="200.099" y1="390.032" x2="284.599" y2="372.477"/>
<line fill="none" stroke="#000000" stroke-miterlimit="10" x1="242.349" y1="427.894" x2="200.099" y2="390.032"/>
<line fill="none" stroke="#000000" stroke-miterlimit="10" x1="284.599" y1="372.477" x2="242.349" y2="427.894"/>
<line fill="none" stroke="#000000" stroke-miterlimit="10" x1="186.984" y1="461.947" x2="242.349" y2="427.894"/>
<line fill="none" stroke="#000000" stroke-miterlimit="10" x1="200.099" y1="390.032" x2="186.984" y2="461.947"/>
<line fill="none" stroke="#000000" stroke-miterlimit="10" x1="218.15" y1="442.778" x2="203.694" y2="496.636"/>
<line fill="none" stroke="#000000" stroke-miterlimit="10" x1="186.984" y1="461.947" x2="203.694" y2="496.636"/>
<line fill="none" stroke="#000000" stroke-miterlimit="10" x1="245.803" y1="101.339" x2="277.817" y2="78.761"/>
<line fill="none" stroke="#000000" stroke-miterlimit="10" x1="282.62" y1="113.878" x2="245.802" y2="101.339"/>
<line fill="none" stroke="#000000" stroke-miterlimit="10" x1="277.818" y1="78.761" x2="282.62" y2="113.878"/>
<line fill="none" stroke="#000000" stroke-miterlimit="10" x1="338.113" y1="64.788" x2="277.817" y2="78.761"/>
<line fill="none" stroke="#000000" stroke-miterlimit="10" x1="282.62" y1="113.878" x2="338.113" y2="64.788"/>
<line fill="none" stroke="#000000" stroke-miterlimit="10" x1="361.591" y1="71.774" x2="338.113" y2="64.789"/>
<line fill="none" stroke="#000000" stroke-miterlimit="10" x1="352.521" y1="109.907" x2="282.62" y2="113.878"/>
<line fill="none" stroke="#000000" stroke-miterlimit="10" x1="361.591" y1="71.774" x2="352.521" y2="109.906"/>
<line fill="none" stroke="#000000" stroke-miterlimit="10" x1="303.459" y1="174.88" x2="282.62" y2="113.878"/>
<line fill="none" stroke="#000000" stroke-miterlimit="10" x1="352.521" y1="109.907" x2="303.458" y2="174.88"/>
<line fill="none" stroke="#000000" stroke-miterlimit="10" x1="334.801" y1="168.638" x2="344.708" y2="153.069"/>
<line fill="none" stroke="#000000" stroke-miterlimit="10" x1="355.625" y1="174.501" x2="344.708" y2="153.07"/>
<line fill="none" stroke="#000000" stroke-miterlimit="10" x1="334.801" y1="168.638" x2="355.626" y2="174.5"/>
<line fill="none" stroke="#000000" stroke-miterlimit="10" x1="393.687" y1="74.354" x2="430.095" y2="76.618"/>
<line fill="none" stroke="#000000" stroke-miterlimit="10" x1="432.925" y1="90.84" x2="430.095" y2="76.618"/>
<line fill="none" stroke="#000000" stroke-miterlimit="10" x1="411.891" y1="93.784" x2="433.302" y2="91.709"/>
<line fill="none" stroke="#000000" stroke-miterlimit="10" x1="430.095" y1="76.618" x2="411.891" y2="93.785"/>
<line fill="none" stroke="#000000" stroke-miterlimit="10" x1="393.687" y1="74.354" x2="411.891" y2="93.784"/>
<line fill="none" stroke="#000000" stroke-miterlimit="10" x1="484.337" y1="78.496" x2="531.05" y2="64.98"/>
<line fill="none" stroke="#000000" stroke-miterlimit="10" x1="532.828" y1="78.733" x2="531.051" y2="64.98"/>
<line fill="none" stroke="#000000" stroke-miterlimit="10" x1="484.337" y1="78.496" x2="532.828" y2="78.733"/>
<line fill="none" stroke="#000000" stroke-miterlimit="10" x1="392.453" y1="170.813" x2="424.552" y2="135.106"/>
<line fill="none" stroke="#000000" stroke-miterlimit="10" x1="451.422" y1="174.059" x2="424.552" y2="135.106"/>
<line fill="none" stroke="#000000" stroke-miterlimit="10" x1="392.453" y1="170.813" x2="437.987" y2="154.583"/>
<line fill="none" stroke="#000000" stroke-miterlimit="10" x1="410.306" y1="182.354" x2="392.453" y2="170.813"/>
<line fill="none" stroke="#000000" stroke-miterlimit="10" x1="437.987" y1="154.583" x2="410.306" y2="182.354"/>
<line fill="none" stroke="#000000" stroke-miterlimit="10" x1="470.627" y1="138.356" x2="424.552" y2="135.106"/>
<line fill="none" stroke="#000000" stroke-miterlimit="10" x1="451.422" y1="174.059" x2="470.627" y2="138.356"/>
<line fill="none" stroke="#000000" stroke-miterlimit="10" x1="523.415" y1="131.09" x2="470.627" y2="138.355"/>
<line fill="none" stroke="#000000" stroke-miterlimit="10" x1="451.422" y1="174.059" x2="523.415" y2="131.089"/>
<line fill="none" stroke="#000000" stroke-miterlimit="10" x1="533.459" y1="93.689" x2="523.414" y2="131.089"/>
<line fill="none" stroke="#000000" stroke-miterlimit="10" x1="494.99" y1="119.335" x2="523.414" y2="131.089"/>
<line fill="none" stroke="#000000" stroke-miterlimit="10" x1="533.459" y1="93.689" x2="494.99" y2="119.335"/>
<line fill="none" stroke="#000000" stroke-miterlimit="10" x1="523.415" y1="131.09" x2="575.134" y2="110.787"/>
<line fill="none" stroke="#000000" stroke-miterlimit="10" x1="634.12" y1="75.485" x2="575.134" y2="110.787"/>
<line fill="none" stroke="#000000" stroke-miterlimit="10" x1="590.735" y1="219.568" x2="575.135" y2="110.786"/>
<line fill="none" stroke="#000000" stroke-miterlimit="10" x1="523.415" y1="131.09" x2="590.735" y2="219.569"/>
<line fill="none" stroke="#000000" stroke-miterlimit="10" x1="519.808" y1="200.46" x2="523.415" y2="131.09"/>
<line fill="none" stroke="#000000" stroke-miterlimit="10" x1="451.422" y1="174.059" x2="519.808" y2="200.46"/>
<line fill="none" stroke="#000000" stroke-miterlimit="10" x1="469.236" y1="218.893" x2="451.422" y2="174.059"/>
<line fill="none" stroke="#000000" stroke-miterlimit="10" x1="519.808" y1="200.46" x2="469.236" y2="218.892"/>
<line fill="none" stroke="#000000" stroke-miterlimit="10" x1="590.735" y1="219.568" x2="519.808" y2="200.46"/>
<line fill="none" stroke="#000000" stroke-miterlimit="10" x1="539.421" y1="267.809" x2="519.807" y2="200.46"/>
<line fill="none" stroke="#000000" stroke-miterlimit="10" x1="469.236" y1="218.893" x2="539.422" y2="267.81"/>
<line fill="none" stroke="#000000" stroke-miterlimit="10" x1="424.146" y1="192.252" x2="451.422" y2="174.059"/>
<line fill="none" stroke="#000000" stroke-miterlimit="10" x1="428.193" y1="225.604" x2="451.422" y2="174.059"/>
<line fill="none" stroke="#000000" stroke-miterlimit="10" x1="424.146" y1="192.252" x2="428.193" y2="225.604"/>
<line fill="none" stroke="#000000" stroke-miterlimit="10" x1="401.379" y1="194.818" x2="424.146" y2="192.253"/>
<line fill="none" stroke="#000000" stroke-miterlimit="10" x1="428.193" y1="225.604" x2="401.379" y2="194.817"/>
<line fill="none" stroke="#000000" stroke-miterlimit="10" x1="400.565" y1="231.327" x2="401.379" y2="194.817"/>
<line fill="none" stroke="#000000" stroke-miterlimit="10" x1="365.635" y1="227.774" x2="401.379" y2="194.818"/>
<line fill="none" stroke="#000000" stroke-miterlimit="10" x1="371.358" y1="176.583" x2="400.565" y2="231.326"/>
<line fill="none" stroke="#000000" stroke-miterlimit="10" x1="371.358" y1="176.583" x2="367.806" y2="202.712"/>
<line fill="none" stroke="#000000" stroke-miterlimit="10" x1="387.777" y1="207.359" x2="367.806" y2="202.712"/>
<line fill="none" stroke="#000000" stroke-miterlimit="10" x1="365.635" y1="227.774" x2="400.565" y2="231.326"/>
<line fill="none" stroke="#000000" stroke-miterlimit="10" x1="428.193" y1="225.604" x2="400.565" y2="231.327"/>
<line fill="none" stroke="#000000" stroke-miterlimit="10" x1="469.236" y1="218.893" x2="428.193" y2="225.604"/>
<line fill="none" stroke="#000000" stroke-miterlimit="10" x1="365.635" y1="227.774" x2="375.829" y2="245.961"/>
<line fill="none" stroke="#000000" stroke-miterlimit="10" x1="389.003" y1="230.151" x2="375.83" y2="245.961"/>
<line fill="none" stroke="#000000" stroke-miterlimit="10" x1="418.276" y1="248.244" x2="400.565" y2="231.326"/>
<line fill="none" stroke="#000000" stroke-miterlimit="10" x1="428.193" y1="225.604" x2="418.276" y2="248.245"/>
<line fill="none" stroke="#000000" stroke-miterlimit="10" x1="469.236" y1="218.893" x2="456.677" y2="260.507"/>
<line fill="none" stroke="#000000" stroke-miterlimit="10" x1="485.34" y1="298.284" x2="456.677" y2="260.508"/>
<line fill="none" stroke="#000000" stroke-miterlimit="10" x1="512.092" y1="269.18" x2="485.34" y2="298.284"/>
<line fill="none" stroke="#000000" stroke-miterlimit="10" x1="428.193" y1="225.604" x2="512.826" y2="269.18"/>
<line fill="none" stroke="#000000" stroke-miterlimit="10" x1="485.34" y1="298.284" x2="462.185" y2="242.258"/>
<line fill="none" stroke="#000000" stroke-miterlimit="10" x1="469.236" y1="218.893" x2="512.327" y2="268.923"/>
<line fill="none" stroke="#000000" stroke-miterlimit="10" x1="539.421" y1="267.809" x2="512.328" y2="268.923"/>
<line fill="none" stroke="#000000" stroke-miterlimit="10" x1="590.735" y1="219.568" x2="539.123" y2="266.786"/>
<line fill="none" stroke="#000000" stroke-miterlimit="10" x1="582.935" y1="277.465" x2="590.735" y2="219.568"/>
<line fill="none" stroke="#000000" stroke-miterlimit="10" x1="539.421" y1="267.809" x2="582.936" y2="277.465"/>
<line fill="none" stroke="#000000" stroke-miterlimit="10" x1="553.025" y1="313.159" x2="539.421" y2="267.809"/>
<line fill="none" stroke="#000000" stroke-miterlimit="10" x1="582.935" y1="277.465" x2="553.025" y2="313.159"/>
<line fill="none" stroke="#000000" stroke-miterlimit="10" x1="590.735" y1="219.568" x2="644.621" y2="234.968"/>
<line fill="none" stroke="#000000" stroke-miterlimit="10" x1="582.935" y1="277.465" x2="644.622" y2="234.968"/>
<line fill="none" stroke="#000000" stroke-miterlimit="10" x1="613.778" y1="313.151" x2="644.621" y2="234.968"/>
<line fill="none" stroke="#000000" stroke-miterlimit="10" x1="582.935" y1="277.465" x2="613.777" y2="313.151"/>
<line fill="none" stroke="#000000" stroke-miterlimit="10" x1="597.284" y1="342.775" x2="613.777" y2="313.151"/>
<line fill="none" stroke="#000000" stroke-miterlimit="10" x1="703.87" y1="346.135" x2="597.284" y2="342.776"/>
<line fill="none" stroke="#000000" stroke-miterlimit="10" x1="613.778" y1="313.151" x2="703.87" y2="346.136"/>
<line fill="none" stroke="#000000" stroke-miterlimit="10" x1="644.621" y1="234.968" x2="647.744" y2="325.587"/>
<line fill="none" stroke="#000000" stroke-miterlimit="10" x1="687.308" y1="160.854" x2="644.621" y2="234.968"/>
<line fill="none" stroke="#000000" stroke-miterlimit="10" x1="590.2" y1="220.058" x2="687.307" y2="160.853"/>
<line fill="none" stroke="#000000" stroke-miterlimit="10" x1="575.134" y1="110.787" x2="687.308" y2="160.854"/>
<line fill="none" stroke="#000000" stroke-miterlimit="10" x1="690.087" y1="105.179" x2="575.134" y2="110.787"/>
<line fill="none" stroke="#000000" stroke-miterlimit="10" x1="634.12" y1="75.485" x2="614.521" y2="107.982"/>
<line fill="none" stroke="#000000" stroke-miterlimit="10" x1="572.183" y1="65.229" x2="634.12" y2="75.485"/>
<line fill="none" stroke="#000000" stroke-miterlimit="10" x1="605.288" y1="92.741" x2="572.182" y2="65.229"/>
<line fill="none" stroke="#000000" stroke-miterlimit="10" x1="675.875" y1="83.591" x2="690.087" y2="105.179"/>
<line fill="none" stroke="#000000" stroke-miterlimit="10" x1="735.073" y1="85.718" x2="675.874" y2="83.591"/>
<line fill="none" stroke="#000000" stroke-miterlimit="10" x1="690.087" y1="105.179" x2="735.073" y2="85.719"/>
<line fill="none" stroke="#000000" stroke-miterlimit="10" x1="789.677" y1="141.417" x2="690.087" y2="105.178"/>
<line fill="none" stroke="#000000" stroke-miterlimit="10" x1="687.308" y1="160.854" x2="690.087" y2="105.178"/>
<line fill="none" stroke="#000000" stroke-miterlimit="10" x1="789.677" y1="141.417" x2="687.308" y2="160.854"/>
<line fill="none" stroke="#000000" stroke-miterlimit="10" x1="732.641" y1="194.219" x2="727.208" y2="153.277"/>
<line fill="none" stroke="#000000" stroke-miterlimit="10" x1="789.677" y1="141.417" x2="732.641" y2="194.219"/>
<line fill="none" stroke="#000000" stroke-miterlimit="10" x1="687.308" y1="160.854" x2="692.761" y2="216.944"/>
<line fill="none" stroke="#000000" stroke-miterlimit="10" x1="644.621" y1="234.968" x2="692.761" y2="216.945"/>
<line fill="none" stroke="#000000" stroke-miterlimit="10" x1="663.352" y1="251.923" x2="692.76" y2="216.944"/>
<line fill="none" stroke="#000000" stroke-miterlimit="10" x1="684.739" y1="252.146" x2="692.761" y2="216.944"/>
<line fill="none" stroke="#000000" stroke-miterlimit="10" x1="663.352" y1="251.923" x2="684.739" y2="252.146"/>
<line fill="none" stroke="#000000" stroke-miterlimit="10" x1="366.24" y1="268.366" x2="400.972" y2="254.66"/>
<line fill="none" stroke="#000000" stroke-miterlimit="10" x1="406.877" y1="339.03" x2="400.972" y2="254.66"/>
<line fill="none" stroke="#000000" stroke-miterlimit="10" x1="366.24" y1="268.366" x2="406.877" y2="339.031"/>
<line fill="none" stroke="#000000" stroke-miterlimit="10" x1="344.571" y1="317.644" x2="366.24" y2="268.366"/>
<line fill="none" stroke="#000000" stroke-miterlimit="10" x1="406.877" y1="339.03" x2="344.571" y2="317.644"/>
<line fill="none" stroke="#000000" stroke-miterlimit="10" x1="369.582" y1="343.068" x2="344.571" y2="317.644"/>
<line fill="none" stroke="#000000" stroke-miterlimit="10" x1="406.877" y1="339.03" x2="369.582" y2="343.068"/>
<line fill="none" stroke="#000000" stroke-miterlimit="10" x1="400.972" y1="254.66" x2="482.438" y2="344.456"/>
<line fill="none" stroke="#000000" stroke-miterlimit="10" x1="446.669" y1="268.366" x2="415.135" y2="270.271"/>
<line fill="none" stroke="#000000" stroke-miterlimit="10" x1="482.438" y1="344.455" x2="446.669" y2="268.366"/>
<line fill="none" stroke="#000000" stroke-miterlimit="10" x1="498.716" y1="322.373" x2="463.384" y2="303.921"/>
<line fill="none" stroke="#000000" stroke-miterlimit="10" x1="482.438" y1="344.455" x2="498.716" y2="322.373"/>
<line fill="none" stroke="#000000" stroke-miterlimit="10" x1="406.877" y1="339.03" x2="482.438" y2="344.455"/>
<line fill="none" stroke="#000000" stroke-miterlimit="10" x1="472.07" y1="404.766" x2="482.438" y2="344.455"/>
<line fill="none" stroke="#000000" stroke-miterlimit="10" x1="406.877" y1="339.03" x2="472.069" y2="404.766"/>
<line fill="none" stroke="#000000" stroke-miterlimit="10" x1="418.816" y1="393.931" x2="406.876" y2="339.031"/>
<line fill="none" stroke="#000000" stroke-miterlimit="10" x1="472.07" y1="404.766" x2="418.816" y2="393.931"/>
<line fill="none" stroke="#000000" stroke-miterlimit="10" x1="444.657" y1="431.636" x2="418.816" y2="393.931"/>
<line fill="none" stroke="#000000" stroke-miterlimit="10" x1="472.07" y1="404.766" x2="444.657" y2="431.636"/>
<line fill="none" stroke="#000000" stroke-miterlimit="10" x1="502.624" y1="360.002" x2="487.889" y2="401.948"/>
<line fill="none" stroke="#000000" stroke-miterlimit="10" x1="504.141" y1="388.73" x2="487.889" y2="401.948"/>
<line fill="none" stroke="#000000" stroke-miterlimit="10" x1="502.624" y1="360.002" x2="504.141" y2="388.729"/>
<line fill="none" stroke="#000000" stroke-miterlimit="10" x1="635.031" y1="393.113" x2="674.46" y2="361.802"/>
<line fill="none" stroke="#000000" stroke-miterlimit="10" x1="681.709" y1="405" x2="674.461" y2="361.802"/>
<line fill="none" stroke="#000000" stroke-miterlimit="10" x1="635.031" y1="393.113" x2="681.708" y2="405"/>
<line fill="none" stroke="#000000" stroke-miterlimit="10" x1="646.183" y1="425.585" x2="635.031" y2="393.113"/>
<line fill="none" stroke="#000000" stroke-miterlimit="10" x1="681.709" y1="405" x2="646.183" y2="425.584"/>
<line fill="none" stroke="#000000" stroke-miterlimit="10" x1="707.512" y1="458.056" x2="681.709" y2="405"/>
<line fill="none" stroke="#000000" stroke-miterlimit="10" x1="729.546" y1="418.2" x2="707.512" y2="458.056"/>
<line fill="none" stroke="#000000" stroke-miterlimit="10" x1="681.709" y1="405" x2="729.546" y2="418.2"/>
<line fill="none" stroke="#000000" stroke-miterlimit="10" x1="674.461" y1="361.802" x2="729.546" y2="418.2"/>
<line fill="none" stroke="#000000" stroke-miterlimit="10" x1="714.76" y1="378.907" x2="674.461" y2="361.802"/>
<line fill="none" stroke="#000000" stroke-miterlimit="10" x1="729.546" y1="418.2" x2="714.76" y2="378.907"/>
<line fill="none" stroke="#000000" stroke-miterlimit="10" x1="730.706" y1="472.262" x2="761.728" y2="435.732"/>
<line fill="none" stroke="#000000" stroke-miterlimit="10" x1="774.773" y1="453.997" x2="761.727" y2="435.732"/>
<line fill="none" stroke="#000000" stroke-miterlimit="10" x1="730.706" y1="472.262" x2="774.773" y2="453.997"/>
<g display="none">
	<defs>
		<rect id="SVGID_3_" width="841.89" height="595.28"/>
	</defs>
	<clipPath id="SVGID_4_" display="inline">
		<use xlink:href="#SVGID_3_"  overflow="visible"/>
	</clipPath>
	<path display="inline" clip-path="url(#SVGID_4_)" fill="#403D3A" d="M215.167,263.432c-12.621-5.725-25.242-11.45-37.862-17.175
		c0.04-0.404-0.023-0.855,0.135-1.206c6.578-14.547,13.173-29.086,19.786-43.617c0.159-0.35,0.541-0.6,0.818-0.897
		c12.621,5.725,25.241,11.45,37.862,17.175c-0.04,0.405,0.023,0.856-0.136,1.206c-6.577,14.547-13.173,29.087-19.785,43.618
		C215.825,262.886,215.444,263.136,215.167,263.432 M214.697,261.451c6.491-14.31,12.949-28.545,19.394-42.753
		c-11.919-5.407-23.773-10.784-35.608-16.153c-6.481,14.287-12.929,28.501-19.394,42.754
		C190.971,250.688,202.804,256.056,214.697,261.451"/>
	<path display="inline" clip-path="url(#SVGID_4_)" fill="#CEEAF6" d="M214.697,261.452c-11.893-5.395-23.726-10.763-35.608-16.153
		c6.465-14.252,12.913-28.466,19.394-42.753c11.835,5.368,23.689,10.746,35.608,16.152
		C227.646,232.907,221.188,247.142,214.697,261.452 M193.228,221.602c-2.078,4.581-4.157,9.161-6.233,13.743
		c-0.538,1.185-0.494,1.301,0.699,1.842c9.162,4.157,18.323,8.313,27.485,12.468c1.148,0.52,1.283,0.472,1.79-0.643
		c4.171-9.191,8.34-18.382,12.508-27.574c0.51-1.126,0.458-1.263-0.675-1.777c-9.161-4.158-18.323-8.313-27.485-12.468
		c-1.232-0.559-1.314-0.526-1.895,0.756C197.356,212.5,195.292,217.051,193.228,221.602"/>
	<path display="inline" clip-path="url(#SVGID_4_)" fill="#403D3A" d="M193.228,221.602c2.065-4.551,4.129-9.102,6.194-13.653
		c0.582-1.282,0.663-1.315,1.895-0.756c9.162,4.155,18.324,8.31,27.485,12.468c1.134,0.514,1.186,0.651,0.675,1.777
		c-4.168,9.192-8.337,18.383-12.508,27.574c-0.506,1.115-0.642,1.163-1.79,0.643c-9.162-4.155-18.323-8.311-27.484-12.468
		c-1.194-0.541-1.237-0.657-0.7-1.842C189.072,230.763,191.149,226.183,193.228,221.602 M188.563,235.785
		c9.068,4.113,18.064,8.194,27.037,12.265c4.11-9.06,8.191-18.057,12.265-27.038c-9.047-4.104-18.022-8.175-27.037-12.264
		C196.734,217.77,192.663,226.746,188.563,235.785"/>
	<path display="inline" clip-path="url(#SVGID_4_)" fill="#FFFFFF" d="M200.827,208.747c-4.093,9.023-8.164,17.998-12.265,27.037
		c9.068,4.114,18.065,8.195,27.038,12.265c4.109-9.06,8.19-18.057,12.264-27.037C218.818,216.908,209.842,212.836,200.827,208.747"
		/>
	<path display="inline" clip-path="url(#SVGID_4_)" fill="#FFD656" d="M211.573,217.38c0.358-0.486,0.721-0.966,1.388-1.043
		l3.91,1.774c0.738,0.979-0.041,1.774-0.317,2.63c-1.527-0.661-1.833-0.545-2.565,0.89c-1.303,2.554-2.619,5.1-3.93,7.649
		c-0.116-0.04-0.232-0.08-0.348-0.12c-0.208-0.321-0.502-0.454-0.881-0.399c-0.109-0.059-0.218-0.117-0.327-0.175
		c1.33-3.272,2.451-6.62,3.63-9.947C212.354,218.018,212.082,217.657,211.573,217.38"/>
	<path display="inline" clip-path="url(#SVGID_4_)" fill="none" stroke="#000000" stroke-miterlimit="10" d="M211.573,217.38
		c0.358-0.486,0.721-0.966,1.388-1.043l3.91,1.774c0.738,0.979-0.041,1.774-0.317,2.63c-1.527-0.661-1.833-0.545-2.565,0.89
		c-1.303,2.554-2.619,5.1-3.93,7.649c-0.116-0.04-0.232-0.08-0.348-0.12c-0.208-0.321-0.502-0.454-0.881-0.399
		c-0.109-0.059-0.218-0.117-0.327-0.175c1.33-3.272,2.451-6.62,3.63-9.947C212.354,218.018,212.082,217.657,211.573,217.38z"/>
	<path display="inline" clip-path="url(#SVGID_4_)" fill="#FFD656" d="M220.072,219.563c0.444,0.574,1.103,0.851,1.701,1.204
		c1.467,0.869,1.569,1.337,0.641,2.758c-1.058,1.622-2.079,3.269-3.116,4.905c-0.6-0.274-1.199-0.548-1.798-0.822
		c0.092-0.206,0.186-0.412,0.275-0.619c0.493-1.154,1.298-2.143,1.737-3.33c0.235-0.636,0.153-1.15-0.404-1.518
		c-0.614-0.405-1.268-0.751-1.905-1.122c0.459-0.779,0.816-1.652,1.802-1.94C219.361,219.24,219.716,219.401,220.072,219.563"/>
	<path display="inline" clip-path="url(#SVGID_4_)" fill="none" stroke="#000000" stroke-miterlimit="10" d="M220.072,219.563
		c0.444,0.574,1.103,0.851,1.701,1.204c1.467,0.869,1.569,1.337,0.641,2.758c-1.058,1.622-2.079,3.269-3.116,4.905
		c-0.6-0.274-1.199-0.548-1.798-0.822c0.092-0.206,0.186-0.412,0.275-0.619c0.493-1.154,1.298-2.143,1.737-3.33
		c0.235-0.636,0.153-1.15-0.404-1.518c-0.614-0.405-1.268-0.751-1.905-1.122c0.459-0.779,0.816-1.652,1.802-1.94
		C219.361,219.24,219.716,219.401,220.072,219.563z"/>
	<path display="inline" clip-path="url(#SVGID_4_)" fill="#E5262B" d="M217.5,227.607c0.599,0.274,1.198,0.548,1.798,0.822
		c0.641,0.556,0.45,1.134,0.057,1.729c-1.732,2.627-3.457,5.258-5.187,7.886c-0.375,0.569-0.759,1.132-1.139,1.697
		c-5.374-2.441-10.747-4.881-16.121-7.322c1.024-3.741,2.061-7.478,3.058-11.225c0.171-0.642,0.529-0.922,1.138-0.983
		c1.745,0.888,3.671,1.409,5.265,2.601c0.391,1.054-0.075,2.032-0.283,3.029c-0.227,1.084,0.062,1.725,1.074,2.198
		c0.437,0.205,0.895,0.366,1.344,0.546c0.109,0.059,0.218,0.117,0.327,0.175c0.294,0.134,0.587,0.267,0.881,0.4
		c0.116,0.04,0.232,0.08,0.348,0.12c0.719,0.233,1.256-0.05,1.689-0.607c0.395-0.51,0.772-1.033,1.172-1.538
		c0.693-0.872,1.235-0.999,2.272-0.547C215.962,226.926,216.73,227.268,217.5,227.607"/>
	<path display="inline" clip-path="url(#SVGID_4_)" fill="none" stroke="#000000" stroke-miterlimit="10" d="M217.5,227.607
		c0.599,0.274,1.198,0.548,1.798,0.822c0.641,0.556,0.45,1.134,0.057,1.729c-1.732,2.627-3.457,5.258-5.187,7.886
		c-0.375,0.569-0.759,1.132-1.139,1.697c-5.374-2.441-10.747-4.881-16.121-7.322c1.024-3.741,2.061-7.478,3.058-11.225
		c0.171-0.642,0.529-0.922,1.138-0.983c1.745,0.888,3.671,1.409,5.265,2.601c0.391,1.054-0.075,2.032-0.283,3.029
		c-0.227,1.084,0.062,1.725,1.074,2.198c0.437,0.205,0.895,0.366,1.344,0.546c0.109,0.059,0.218,0.117,0.327,0.175
		c0.294,0.134,0.587,0.267,0.881,0.4c0.116,0.04,0.232,0.08,0.348,0.12c0.719,0.233,1.256-0.05,1.689-0.607
		c0.395-0.51,0.772-1.033,1.172-1.538c0.693-0.872,1.235-0.999,2.272-0.547C215.962,226.926,216.73,227.268,217.5,227.607z"/>
	<path display="inline" clip-path="url(#SVGID_4_)" fill="#FAB958" d="M208.503,228.586c-0.449-0.181-0.907-0.341-1.344-0.546
		c-1.012-0.474-1.301-1.115-1.074-2.199c0.208-0.996,0.674-1.974,0.283-3.028c0.058-0.183,0.13-0.362,0.173-0.548
		c0.479-2.086,0.953-4.173,1.429-6.26c1.201,0.459,2.402,0.917,3.603,1.375c0.508,0.277,0.78,0.638,0.56,1.259
		C210.955,221.966,209.833,225.314,208.503,228.586"/>
	<path display="inline" clip-path="url(#SVGID_4_)" fill="none" stroke="#000000" stroke-miterlimit="10" d="M208.503,228.586
		c-0.449-0.181-0.907-0.341-1.344-0.546c-1.012-0.474-1.301-1.115-1.074-2.199c0.208-0.996,0.674-1.974,0.283-3.028
		c0.058-0.183,0.13-0.362,0.173-0.548c0.479-2.086,0.953-4.173,1.429-6.26c1.201,0.459,2.402,0.917,3.603,1.375
		c0.508,0.277,0.78,0.638,0.56,1.259C210.955,221.966,209.833,225.314,208.503,228.586z"/>
	<path display="inline" clip-path="url(#SVGID_4_)" fill="#FFD656" d="M207.971,216.005c-0.476,2.087-0.95,4.174-1.429,6.26
		c-0.043,0.186-0.115,0.365-0.173,0.547c-1.594-1.191-3.52-1.713-5.265-2.6c0.44-2.025,0.867-4.052,1.325-6.072
		c0.163-0.715,0.668-1.025,1.387-0.883c1.144,0.225,2.294,0.434,3.416,0.742C208.337,214.302,208.099,215.196,207.971,216.005"/>
	<path display="inline" clip-path="url(#SVGID_4_)" fill="none" stroke="#000000" stroke-miterlimit="10" d="M207.971,216.005
		c-0.476,2.087-0.95,4.174-1.429,6.26c-0.043,0.186-0.115,0.365-0.173,0.547c-1.594-1.191-3.52-1.713-5.265-2.6
		c0.44-2.025,0.867-4.052,1.325-6.072c0.163-0.715,0.668-1.025,1.387-0.883c1.144,0.225,2.294,0.434,3.416,0.742
		C208.337,214.302,208.099,215.196,207.971,216.005z"/>
	<path display="inline" clip-path="url(#SVGID_4_)" fill="#E5262B" d="M212.044,241.205c-0.902,1.48-1.248,1.585-2.836,0.865
		c-3.85-1.746-7.7-3.492-11.55-5.239c-1.598-0.725-1.717-0.987-1.229-2.706C201.634,236.485,206.839,238.845,212.044,241.205"/>
	<path display="inline" clip-path="url(#SVGID_4_)" fill="none" stroke="#000000" stroke-miterlimit="10" d="M212.044,241.205
		c-0.902,1.48-1.248,1.585-2.836,0.865c-3.85-1.746-7.7-3.492-11.55-5.239c-1.598-0.725-1.717-0.987-1.229-2.706
		C201.634,236.485,206.839,238.845,212.044,241.205z"/>
	<path display="inline" clip-path="url(#SVGID_4_)" fill="#FFD656" d="M212.044,241.205c-5.205-2.36-10.41-4.72-15.615-7.08
		c0.135-0.576,0.181-1.176,0.478-1.705c5.374,2.44,10.748,4.881,16.122,7.322C212.7,240.23,212.372,240.717,212.044,241.205"/>
	<path display="inline" clip-path="url(#SVGID_4_)" fill="none" stroke="#000000" stroke-miterlimit="10" d="M212.044,241.205
		c-5.205-2.36-10.41-4.72-15.615-7.08c0.135-0.576,0.181-1.176,0.478-1.705c5.374,2.44,10.748,4.881,16.122,7.322
		C212.7,240.23,212.372,240.717,212.044,241.205z"/>
	<path display="inline" clip-path="url(#SVGID_4_)" fill="#FAB958" d="M217.5,227.607c-0.769-0.34-1.537-0.682-2.307-1.019
		c-1.037-0.452-1.579-0.325-2.272,0.547c-0.4,0.505-0.777,1.028-1.172,1.538c-0.433,0.557-0.97,0.84-1.689,0.607
		c1.31-2.55,2.627-5.096,3.929-7.649c0.732-1.436,1.039-1.552,2.566-0.89c0.216,0.092,0.432,0.185,0.648,0.277
		c0.637,0.371,1.291,0.717,1.905,1.122c0.557,0.368,0.639,0.882,0.404,1.518c-0.439,1.187-1.244,2.176-1.737,3.33
		C217.686,227.196,217.592,227.402,217.5,227.607"/>
	<path display="inline" clip-path="url(#SVGID_4_)" fill="none" stroke="#000000" stroke-miterlimit="10" d="M217.5,227.607
		c-0.769-0.34-1.537-0.682-2.307-1.019c-1.037-0.452-1.579-0.325-2.272,0.547c-0.4,0.505-0.777,1.028-1.172,1.538
		c-0.433,0.557-0.97,0.84-1.689,0.607c1.31-2.55,2.627-5.096,3.929-7.649c0.732-1.436,1.039-1.552,2.566-0.89
		c0.216,0.092,0.432,0.185,0.648,0.277c0.637,0.371,1.291,0.717,1.905,1.122c0.557,0.368,0.639,0.882,0.404,1.518
		c-0.439,1.187-1.244,2.176-1.737,3.33C217.686,227.196,217.592,227.402,217.5,227.607z"/>
	<path display="inline" clip-path="url(#SVGID_4_)" fill="#FAB958" d="M209.711,229.16c-0.294-0.133-0.587-0.266-0.881-0.399
		C209.209,228.706,209.503,228.839,209.711,229.16"/>
	<path display="inline" clip-path="url(#SVGID_4_)" fill="none" stroke="#000000" stroke-miterlimit="10" d="M209.711,229.16
		c-0.294-0.133-0.587-0.266-0.881-0.399C209.209,228.706,209.503,228.839,209.711,229.16z"/>
	
		<rect x="220.356" y="187.981" transform="matrix(0.9512 0.3086 -0.3086 0.9512 71.2426 -59.0417)" display="inline" clip-path="url(#SVGID_4_)" fill="#F0D2B3" width="3.829" height="15.437"/>
	
		<rect x="220.356" y="187.981" transform="matrix(0.9512 0.3086 -0.3086 0.9512 71.2426 -59.0417)" display="inline" clip-path="url(#SVGID_4_)" fill="none" stroke="#683C10" stroke-miterlimit="10" width="3.829" height="15.437"/>
	<path display="inline" clip-path="url(#SVGID_4_)" fill="#BCBCBB" d="M218.697,202.896c0.779,0.245,1.559,0.486,2.336,0.738
		c0.536,0.173,0.828,0.053,1.079-0.456c0.212-0.431,0.338-0.893,0.492-1.343c0.261-0.763,0.496-1.533,0.748-2.298
		c0.17-0.518,0.346-1.034,0.528-1.547c0.04-0.11,0.06-0.244,0.192-0.307c0.121,0.096,0.022,0.188-0.006,0.272
		c-0.421,1.294-0.829,2.592-1.275,3.877c-0.199,0.576-0.322,1.189-0.708,1.689c-0.273,0.355-0.567,0.453-0.984,0.316
		c-0.711-0.235-1.421-0.473-2.132-0.707c-0.085-0.028-0.175-0.044-0.263-0.065C218.636,203.011,218.651,202.954,218.697,202.896"/>
	<path display="inline" clip-path="url(#SVGID_4_)" fill="none" stroke="#000000" stroke-miterlimit="10" d="M218.697,202.896
		c0.779,0.245,1.559,0.486,2.336,0.738c0.536,0.173,0.828,0.053,1.079-0.456c0.212-0.431,0.338-0.893,0.492-1.343
		c0.261-0.763,0.496-1.533,0.748-2.298c0.17-0.518,0.346-1.034,0.528-1.547c0.04-0.11,0.06-0.244,0.192-0.307
		c0.121,0.096,0.022,0.188-0.006,0.272c-0.421,1.294-0.829,2.592-1.275,3.877c-0.199,0.576-0.322,1.189-0.708,1.689
		c-0.273,0.355-0.567,0.453-0.984,0.316c-0.711-0.235-1.421-0.473-2.132-0.707c-0.085-0.028-0.175-0.044-0.263-0.065
		C218.636,203.011,218.651,202.954,218.697,202.896z"/>
	<path display="inline" clip-path="url(#SVGID_4_)" fill="#BCBCBB" d="M217.831,202.748c-0.18-0.144-0.151-0.341-0.132-0.533
		c0.054-0.557,0.256-1.078,0.422-1.606c0.369-1.178,0.745-2.353,1.122-3.529c0.163-0.507,0.329-1.012,0.503-1.516
		c0.033-0.095,0.037-0.228,0.209-0.263c0.044,0.244-0.091,0.446-0.153,0.644c-0.366,1.18-0.776,2.346-1.142,3.526
		c-0.262,0.843-0.589,1.668-0.757,2.539c-0.039,0.198-0.094,0.402,0.012,0.6C217.887,202.656,217.859,202.702,217.831,202.748"/>
	<path display="inline" clip-path="url(#SVGID_4_)" fill="none" stroke="#000000" stroke-miterlimit="10" d="M217.831,202.748
		c-0.18-0.144-0.151-0.341-0.132-0.533c0.054-0.557,0.256-1.078,0.422-1.606c0.369-1.178,0.745-2.353,1.122-3.529
		c0.163-0.507,0.329-1.012,0.503-1.516c0.033-0.095,0.037-0.228,0.209-0.263c0.044,0.244-0.091,0.446-0.153,0.644
		c-0.366,1.18-0.776,2.346-1.142,3.526c-0.262,0.843-0.589,1.668-0.757,2.539c-0.039,0.198-0.094,0.402,0.012,0.6
		C217.887,202.656,217.859,202.702,217.831,202.748z"/>
	
		<rect x="216.318" y="203.329" transform="matrix(0.9512 0.3086 -0.3086 0.9512 74.8849 -57.1883)" display="inline" clip-path="url(#SVGID_4_)" fill="#F0D2B3" width="3.829" height="9.623"/>
	
		<rect x="216.318" y="203.329" transform="matrix(0.9512 0.3086 -0.3086 0.9512 74.8849 -57.1883)" display="inline" clip-path="url(#SVGID_4_)" fill="none" stroke="#683C10" stroke-miterlimit="10" width="3.829" height="9.623"/>
	<path display="inline" clip-path="url(#SVGID_4_)" fill="#E6E6E6" d="M361.181,210.851c0.492-0.155,0.984-0.211,1.473,0.013
		c0.542,0.402,0.824,0.921,0.773,1.614c-0.028,0.384-0.006,0.771-0.006,1.156c-0.981-0.001-1.962-0.001-2.943-0.002
		C360.516,212.655,360.219,211.594,361.181,210.851"/>
	<path display="inline" clip-path="url(#SVGID_4_)" fill="#403D3A" d="M343.332,233.966c-1.355-4.842-2.711-9.683-4.066-14.524
		c-0.381-1.364-0.341-1.442,0.97-1.81c9.746-2.73,19.492-5.459,29.238-8.186c1.206-0.337,1.335-0.266,1.671,0.932
		c2.739,9.777,5.477,19.555,8.213,29.333c0.332,1.187,0.258,1.311-0.962,1.653c-9.746,2.73-19.492,5.459-29.238,8.187
		c-1.27,0.355-1.378,0.295-1.732-0.966C346.06,243.712,344.697,238.839,343.332,233.966 M348.919,247.909
		c9.646-2.701,19.217-5.381,28.762-8.053c-2.699-9.638-5.378-19.209-8.053-28.762c-9.624,2.694-19.172,5.368-28.762,8.053
		C343.553,228.746,346.227,238.293,348.919,247.909"/>
	<path display="inline" clip-path="url(#SVGID_4_)" fill="#403D3A" d="M387.304,251.984c-13.426,3.759-26.851,7.518-40.277,11.278
		c-0.231-0.338-0.571-0.644-0.676-1.017c-4.349-15.462-8.68-30.928-12.992-46.4c-0.104-0.373,0.028-0.812,0.05-1.22
		c13.426-3.759,26.851-7.518,40.277-11.278c0.231,0.338,0.571,0.644,0.676,1.017c4.349,15.462,8.68,30.928,12.992,46.4
		C387.458,251.138,387.326,251.577,387.304,251.984 M385.66,250.763c-4.262-15.223-8.502-30.366-12.734-45.48
		c-12.68,3.55-25.29,7.081-37.88,10.606c4.256,15.198,8.489,30.318,12.735,45.48C360.42,257.83,373.008,254.305,385.66,250.763"/>
	<path display="inline" clip-path="url(#SVGID_4_)" fill="#EBD8EB" d="M385.66,250.762c-12.651,3.543-25.239,7.067-37.879,10.607
		c-4.245-15.162-8.479-30.283-12.734-45.481c12.589-3.525,25.2-7.056,37.879-10.606C377.158,220.397,381.397,235.54,385.66,250.762
		 M343.333,233.966c1.364,4.873,2.728,9.746,4.094,14.619c0.354,1.261,0.462,1.321,1.731,0.966
		c9.747-2.728,19.493-5.456,29.238-8.187c1.221-0.342,1.295-0.466,0.962-1.653c-2.736-9.778-5.473-19.556-8.213-29.333
		c-0.335-1.198-0.464-1.269-1.67-0.932c-9.746,2.728-19.492,5.457-29.238,8.187c-1.311,0.367-1.352,0.445-0.97,1.809
		C340.621,224.283,341.977,229.125,343.333,233.966"/>
	<path display="inline" clip-path="url(#SVGID_4_)" fill="#FFFFFF" d="M340.866,219.147c2.688,9.598,5.361,19.146,8.053,28.762
		c9.647-2.701,19.217-5.38,28.762-8.053c-2.698-9.638-5.378-19.209-8.053-28.762C360.004,213.788,350.456,216.462,340.866,219.147"
		/>
	<path display="inline" clip-path="url(#SVGID_4_)" fill="#A5703F" d="M359.69,215.624c0.431,0.054,0.77,0.234,0.914,0.676
		c0.086,0.308,0.171,0.615,0.257,0.922c0.101,0.558-0.128,0.921-0.703,1.083c-1.988,0.56-3.977,1.116-5.967,1.67
		c-0.581,0.162-0.922-0.003-1.172-0.55c-0.06-0.32-0.147-0.633-0.263-0.938c-0.095-0.434,0.097-0.757,0.403-1.035
		C355.336,216.842,357.514,216.233,359.69,215.624"/>
	<path display="inline" clip-path="url(#SVGID_4_)" fill="none" stroke="#000000" stroke-miterlimit="10" d="M359.69,215.624
		c0.431,0.054,0.77,0.234,0.914,0.676c0.086,0.308,0.171,0.615,0.257,0.922c0.101,0.558-0.128,0.921-0.703,1.083
		c-1.988,0.56-3.977,1.116-5.967,1.67c-0.581,0.162-0.922-0.003-1.172-0.55c-0.06-0.32-0.147-0.633-0.263-0.938
		c-0.095-0.434,0.097-0.757,0.403-1.035C355.336,216.842,357.514,216.233,359.69,215.624z"/>
	<path display="inline" clip-path="url(#SVGID_4_)" fill="#E6E6E6" d="M369.455,226.923c0.02,0.073,0.079,0.087,0.142,0.098
		c0.64,0.111,0.748,0.486,0.781,0.935c0.044,0.612,0.038,1.227,0.12,1.836c0.013,0.095,0.034,0.191,0.06,0.283
		c0.482,1.726,0.97,3.45,1.446,5.177c0.371,1.348-0.469,2.868-1.821,3.248c-0.19,0.053-0.438,0.017-0.544,0.258
		c-0.087-0.067-0.17-0.011-0.252,0.011c-0.298,0.08-0.595,0.165-0.893,0.248c-3.945,1.106-7.891,2.211-11.836,3.317
		c-0.147-0.04-0.282,0.016-0.413,0.062c-1.226,0.434-2.637-0.219-3.222-1.35c-0.112-0.215-0.145-0.452-0.219-0.677
		c-0.038-0.117-0.057-0.242-0.149-0.334c-0.189-0.678-0.374-1.356-0.566-2.033c-0.177-0.625-0.361-1.249-0.542-1.874
		c0.062-0.283-0.067-0.535-0.163-0.778c-0.251-0.633-0.587-1.227-0.928-1.817c-0.267-0.462-0.214-0.817,0.163-1.209
		c0.03-0.031,0.05-0.069,0.075-0.104c0.111-0.029,0.223-0.055,0.333-0.086c6.023-1.685,12.045-3.37,18.068-5.053
		C369.224,227.044,369.342,226.991,369.455,226.923"/>
	<path display="inline" clip-path="url(#SVGID_4_)" fill="none" stroke="#000000" stroke-miterlimit="10" d="M369.455,226.923
		c0.02,0.073,0.079,0.087,0.142,0.098c0.64,0.111,0.748,0.486,0.781,0.935c0.044,0.612,0.038,1.227,0.12,1.836
		c0.013,0.095,0.034,0.191,0.06,0.283c0.482,1.726,0.97,3.45,1.446,5.177c0.371,1.348-0.469,2.868-1.821,3.248
		c-0.19,0.053-0.438,0.017-0.544,0.258c-0.087-0.067-0.17-0.011-0.252,0.011c-0.298,0.08-0.595,0.165-0.893,0.248
		c-3.945,1.106-7.891,2.211-11.836,3.317c-0.147-0.04-0.282,0.016-0.413,0.062c-1.226,0.434-2.637-0.219-3.222-1.35
		c-0.112-0.215-0.145-0.452-0.219-0.677c-0.038-0.117-0.057-0.242-0.149-0.334c-0.189-0.678-0.374-1.356-0.566-2.033
		c-0.177-0.625-0.361-1.249-0.542-1.874c0.062-0.283-0.067-0.535-0.163-0.778c-0.251-0.633-0.587-1.227-0.928-1.817
		c-0.267-0.462-0.214-0.817,0.163-1.209c0.03-0.031,0.05-0.069,0.075-0.104c0.111-0.029,0.223-0.055,0.333-0.086
		c6.023-1.685,12.045-3.37,18.068-5.053C369.224,227.044,369.342,226.991,369.455,226.923z"/>
	<path display="inline" clip-path="url(#SVGID_4_)" fill="#AFAEAF" d="M369.455,226.923c-0.113,0.068-0.231,0.121-0.36,0.158
		c-6.023,1.683-12.045,3.368-18.068,5.053c-0.11,0.031-0.222,0.057-0.333,0.086c-0.314-0.242-0.328-0.308-0.132-0.657
		c0.158-0.284,0.336-0.559,0.474-0.853c0.313-0.661,0.794-1.126,1.491-1.361c0.578-0.162,1.156-0.323,1.734-0.485l1.326-0.373
		c2.603-0.728,5.205-1.455,7.808-2.183c0.442-0.124,0.885-0.248,1.327-0.372c0.578-0.161,1.156-0.323,1.735-0.484
		c0.702-0.221,1.388-0.227,2.03,0.182c0.311,0.198,0.608,0.419,0.903,0.641C369.616,226.445,369.628,226.643,369.455,226.923"/>
	<path display="inline" clip-path="url(#SVGID_4_)" fill="none" stroke="#000000" stroke-miterlimit="10" d="M369.455,226.923
		c-0.113,0.068-0.231,0.121-0.36,0.158c-6.023,1.683-12.045,3.368-18.068,5.053c-0.11,0.031-0.222,0.057-0.333,0.086
		c-0.314-0.242-0.328-0.308-0.132-0.657c0.158-0.284,0.336-0.559,0.474-0.853c0.313-0.661,0.794-1.126,1.491-1.361
		c0.578-0.162,1.156-0.323,1.734-0.485l1.326-0.373c2.603-0.728,5.205-1.455,7.808-2.183c0.442-0.124,0.885-0.248,1.327-0.372
		c0.578-0.161,1.156-0.323,1.735-0.484c0.702-0.221,1.388-0.227,2.03,0.182c0.311,0.198,0.608,0.419,0.903,0.641
		C369.616,226.445,369.628,226.643,369.455,226.923z"/>
	<path display="inline" clip-path="url(#SVGID_4_)" fill="#AFAEAF" d="M356.657,242.333c3.945-1.105,7.891-2.211,11.836-3.316
		c0.298-0.084,0.595-0.169,0.894-0.249c0.081-0.022,0.165-0.077,0.251-0.01c-0.181,0.486-0.417,0.952-0.536,1.461
		c-3.726,1.042-7.452,2.084-11.178,3.126C357.502,243.008,357.08,242.67,356.657,242.333"/>
	<path display="inline" clip-path="url(#SVGID_4_)" fill="none" stroke="#000000" stroke-miterlimit="10" d="M356.657,242.333
		c3.945-1.105,7.891-2.211,11.836-3.316c0.298-0.084,0.595-0.169,0.894-0.249c0.081-0.022,0.165-0.077,0.251-0.01
		c-0.181,0.486-0.417,0.952-0.536,1.461c-3.726,1.042-7.452,2.084-11.178,3.126C357.502,243.008,357.08,242.67,356.657,242.333z"/>
	<path display="inline" clip-path="url(#SVGID_4_)" fill="#AFAEAF" d="M351.546,236.128c0.181,0.625,0.365,1.248,0.542,1.874
		c0.192,0.677,0.378,1.355,0.566,2.033c-0.572-0.572-1.144-1.143-1.715-1.717c-0.844-0.848-1.687-1.698-2.53-2.548
		c-0.074-0.075-0.147-0.152-0.212-0.234c-0.244-0.309-0.142-0.675,0.228-0.798c0.235-0.078,0.476-0.134,0.713-0.204
		c0.095-0.028,0.159,0.001,0.24,0.056C350.109,235.091,350.792,235.66,351.546,236.128"/>
	<path display="inline" clip-path="url(#SVGID_4_)" fill="none" stroke="#000000" stroke-miterlimit="10" d="M351.546,236.128
		c0.181,0.625,0.365,1.248,0.542,1.874c0.192,0.677,0.378,1.355,0.566,2.033c-0.572-0.572-1.144-1.143-1.715-1.717
		c-0.844-0.848-1.687-1.698-2.53-2.548c-0.074-0.075-0.147-0.152-0.212-0.234c-0.244-0.309-0.142-0.675,0.228-0.798
		c0.235-0.078,0.476-0.134,0.713-0.204c0.095-0.028,0.159,0.001,0.24,0.056C350.109,235.091,350.792,235.66,351.546,236.128z"/>
	<path display="inline" clip-path="url(#SVGID_4_)" fill="#AFAEAF" d="M352.757,218.487c0.116,0.305,0.203,0.618,0.263,0.939
		c-0.282,0.024-0.489,0.193-0.678,0.377c-0.624,0.607-0.721,1.346-0.499,2.148c0.5,1.804,1.008,3.605,1.512,5.408
		c-0.328-0.066-0.603,0.072-0.871,0.231c-0.505-1.801-1.01-3.603-1.514-5.405c-0.45-1.607,0.173-2.95,1.691-3.653
		C352.692,218.517,352.725,218.502,352.757,218.487"/>
	<path display="inline" clip-path="url(#SVGID_4_)" fill="none" stroke="#000000" stroke-miterlimit="10" d="M352.757,218.487
		c0.116,0.305,0.203,0.618,0.263,0.939c-0.282,0.024-0.489,0.193-0.678,0.377c-0.624,0.607-0.721,1.346-0.499,2.148
		c0.5,1.804,1.008,3.605,1.512,5.408c-0.328-0.066-0.603,0.072-0.871,0.231c-0.505-1.801-1.01-3.603-1.514-5.405
		c-0.45-1.607,0.173-2.95,1.691-3.653C352.692,218.517,352.725,218.502,352.757,218.487z"/>
	<path display="inline" clip-path="url(#SVGID_4_)" fill="#E6E6E6" d="M352.483,227.59c0.269-0.159,0.543-0.297,0.871-0.232
		c0.384,0.149,0.636,0.408,0.72,0.824c0.046,0.231,0.123,0.455,0.187,0.682c-0.579,0.161-1.157,0.323-1.735,0.484
		c-0.04-0.144-0.07-0.291-0.123-0.431C352.231,228.461,352.175,228.017,352.483,227.59"/>
	<path display="inline" clip-path="url(#SVGID_4_)" fill="none" stroke="#000000" stroke-miterlimit="10" d="M352.483,227.59
		c0.269-0.159,0.543-0.297,0.871-0.232c0.384,0.149,0.636,0.408,0.72,0.824c0.046,0.231,0.123,0.455,0.187,0.682
		c-0.579,0.161-1.157,0.323-1.735,0.484c-0.04-0.144-0.07-0.291-0.123-0.431C352.231,228.461,352.175,228.017,352.483,227.59z"/>
	<path display="inline" clip-path="url(#SVGID_4_)" fill="#AFAEAF" d="M360.861,217.223c-0.086-0.307-0.171-0.615-0.257-0.922
		c1.339-0.248,2.548,0.332,3.19,1.525c0.102,0.189,0.15,0.395,0.207,0.598c0.517,1.84,1.031,3.682,1.546,5.523
		c-0.325-0.052-0.605,0.062-0.87,0.235c-0.509-1.818-1.02-3.636-1.526-5.455c-0.074-0.265-0.175-0.514-0.324-0.747
		C362.437,217.368,361.527,217.013,360.861,217.223"/>
	<path display="inline" clip-path="url(#SVGID_4_)" fill="none" stroke="#000000" stroke-miterlimit="10" d="M360.861,217.223
		c-0.086-0.307-0.171-0.615-0.257-0.922c1.339-0.248,2.548,0.332,3.19,1.525c0.102,0.189,0.15,0.395,0.207,0.598
		c0.517,1.84,1.031,3.682,1.546,5.523c-0.325-0.052-0.605,0.062-0.87,0.235c-0.509-1.818-1.02-3.636-1.526-5.455
		c-0.074-0.265-0.175-0.514-0.324-0.747C362.437,217.368,361.527,217.013,360.861,217.223z"/>
	<path display="inline" clip-path="url(#SVGID_4_)" fill="#E6E6E6" d="M359.856,225.427c0.569-0.159,1.136-0.322,1.706-0.477
		c0.675-0.183,1.262,0.038,1.593,0.605c0.135,0.23,0.156,0.503,0.239,0.753c-2.602,0.727-5.205,1.455-7.808,2.182
		c-0.036-0.127-0.06-0.259-0.109-0.381c-0.302-0.763,0.166-1.49,0.964-1.725c0.557-0.165,1.119-0.316,1.679-0.474
		C358.7,225.75,359.277,225.588,359.856,225.427"/>
	<path display="inline" clip-path="url(#SVGID_4_)" fill="none" stroke="#000000" stroke-miterlimit="10" d="M359.856,225.427
		c0.569-0.159,1.136-0.322,1.706-0.477c0.675-0.183,1.262,0.038,1.593,0.605c0.135,0.23,0.156,0.503,0.239,0.753
		c-2.602,0.727-5.205,1.455-7.808,2.182c-0.036-0.127-0.06-0.259-0.109-0.381c-0.302-0.763,0.166-1.49,0.964-1.725
		c0.557-0.165,1.119-0.316,1.679-0.474C358.7,225.75,359.277,225.588,359.856,225.427z"/>
	<path display="inline" clip-path="url(#SVGID_4_)" fill="#E6E6E6" d="M357.767,224.638c-0.444,0.121-0.885,0.215-1.342,0.036
		c-0.467-0.184-0.712-0.555-0.634-0.992c0.045-0.254,0.193-0.416,0.431-0.483c1.291-0.366,2.582-0.729,3.876-1.084
		c0.437-0.12,0.878,0.299,0.815,0.777c-0.065,0.492-0.349,0.829-0.797,1.033c-0.2,0.09-0.4,0.182-0.618,0.226
		C358.92,224.313,358.344,224.476,357.767,224.638"/>
	<path display="inline" clip-path="url(#SVGID_4_)" fill="none" stroke="#000000" stroke-miterlimit="10" d="M357.767,224.638
		c-0.444,0.121-0.885,0.215-1.342,0.036c-0.467-0.184-0.712-0.555-0.634-0.992c0.045-0.254,0.193-0.416,0.431-0.483
		c1.291-0.366,2.582-0.729,3.876-1.084c0.437-0.12,0.878,0.299,0.815,0.777c-0.065,0.492-0.349,0.829-0.797,1.033
		c-0.2,0.09-0.4,0.182-0.618,0.226C358.92,224.313,358.344,224.476,357.767,224.638z"/>
	<path display="inline" clip-path="url(#SVGID_4_)" fill="#AFAEAF" d="M357.767,224.638c0.577-0.162,1.154-0.325,1.731-0.487
		c0.12,0.425,0.239,0.851,0.359,1.277c-0.579,0.161-1.157,0.322-1.736,0.483C358.002,225.487,357.885,225.062,357.767,224.638"/>
	<path display="inline" clip-path="url(#SVGID_4_)" fill="none" stroke="#000000" stroke-miterlimit="10" d="M357.767,224.638
		c0.577-0.162,1.154-0.325,1.731-0.487c0.12,0.425,0.239,0.851,0.359,1.277c-0.579,0.161-1.157,0.322-1.736,0.483
		C358.002,225.487,357.885,225.062,357.767,224.638z"/>
	
		<rect x="374.309" y="185.05" transform="matrix(0.9512 0.3087 -0.3087 0.9512 77.882 -106.7111)" display="inline" clip-path="url(#SVGID_4_)" fill="#F0D2B3" width="3.852" height="15.531"/>
	
		<rect x="374.309" y="185.05" transform="matrix(0.9512 0.3087 -0.3087 0.9512 77.882 -106.7111)" display="inline" clip-path="url(#SVGID_4_)" fill="none" stroke="#683C10" stroke-miterlimit="10" width="3.852" height="15.531"/>
	<path display="inline" clip-path="url(#SVGID_4_)" fill="#BCBCBB" d="M372.64,200.056c0.784,0.247,1.569,0.489,2.35,0.742
		c0.539,0.175,0.833,0.054,1.086-0.458c0.213-0.434,0.339-0.898,0.495-1.352c0.262-0.767,0.499-1.542,0.752-2.312
		c0.171-0.52,0.348-1.039,0.532-1.555c0.039-0.111,0.06-0.246,0.192-0.309c0.123,0.096,0.022,0.188-0.005,0.274
		c-0.424,1.301-0.834,2.607-1.283,3.9c-0.201,0.579-0.325,1.195-0.712,1.699c-0.275,0.357-0.571,0.456-0.99,0.317
		c-0.716-0.236-1.43-0.475-2.145-0.71c-0.086-0.029-0.176-0.044-0.265-0.066C372.579,200.172,372.594,200.115,372.64,200.056"/>
	<path display="inline" clip-path="url(#SVGID_4_)" fill="none" stroke="#000000" stroke-miterlimit="10" d="M372.64,200.056
		c0.784,0.247,1.569,0.489,2.35,0.742c0.539,0.175,0.833,0.054,1.086-0.458c0.213-0.434,0.339-0.898,0.495-1.352
		c0.262-0.767,0.499-1.542,0.752-2.312c0.171-0.52,0.348-1.039,0.532-1.555c0.039-0.111,0.06-0.246,0.192-0.309
		c0.123,0.096,0.022,0.188-0.005,0.274c-0.424,1.301-0.834,2.607-1.283,3.9c-0.201,0.579-0.325,1.195-0.712,1.699
		c-0.275,0.357-0.571,0.456-0.99,0.317c-0.716-0.236-1.43-0.475-2.145-0.71c-0.086-0.029-0.176-0.044-0.265-0.066
		C372.579,200.172,372.594,200.115,372.64,200.056z"/>
	<path display="inline" clip-path="url(#SVGID_4_)" fill="#BCBCBB" d="M371.769,199.907c-0.181-0.144-0.152-0.343-0.133-0.536
		c0.055-0.561,0.258-1.084,0.425-1.616c0.371-1.185,0.75-2.367,1.129-3.55c0.163-0.51,0.331-1.019,0.506-1.525
		c0.033-0.096,0.037-0.229,0.21-0.264c0.044,0.245-0.092,0.447-0.154,0.647c-0.369,1.187-0.781,2.36-1.149,3.547
		c-0.264,0.848-0.592,1.678-0.762,2.554c-0.038,0.199-0.094,0.405,0.012,0.604C371.825,199.814,371.797,199.861,371.769,199.907"/>
	<path display="inline" clip-path="url(#SVGID_4_)" fill="none" stroke="#000000" stroke-miterlimit="10" d="M371.769,199.907
		c-0.181-0.144-0.152-0.343-0.133-0.536c0.055-0.561,0.258-1.084,0.425-1.616c0.371-1.185,0.75-2.367,1.129-3.55
		c0.163-0.51,0.331-1.019,0.506-1.525c0.033-0.096,0.037-0.229,0.21-0.264c0.044,0.245-0.092,0.447-0.154,0.647
		c-0.369,1.187-0.781,2.36-1.149,3.547c-0.264,0.848-0.592,1.678-0.762,2.554c-0.038,0.199-0.094,0.405,0.012,0.604
		C371.825,199.814,371.797,199.861,371.769,199.907z"/>
	
		<rect x="370.247" y="200.492" transform="matrix(0.9512 0.3087 -0.3087 0.9512 81.547 -104.8461)" display="inline" clip-path="url(#SVGID_4_)" fill="#F0D2B3" width="3.852" height="9.681"/>
	
		<rect x="370.247" y="200.492" transform="matrix(0.9512 0.3087 -0.3087 0.9512 81.547 -104.8461)" display="inline" clip-path="url(#SVGID_4_)" fill="none" stroke="#683C10" stroke-miterlimit="10" width="3.852" height="9.681"/>
	<path display="inline" clip-path="url(#SVGID_4_)" fill="#403D3A" d="M419.206,229.892c0.133-5.099,0.265-10.199,0.398-15.299
		c0.038-1.436,0.101-1.5,1.482-1.464c10.267,0.266,20.532,0.533,30.798,0.802c1.271,0.033,1.373,0.141,1.342,1.403
		c-0.268,10.299-0.535,20.598-0.805,30.897c-0.032,1.251-0.142,1.349-1.428,1.316c-10.266-0.266-20.531-0.533-30.797-0.801
		c-1.337-0.035-1.424-0.126-1.39-1.455C418.938,240.158,419.072,235.025,419.206,229.892 M420.455,245.082
		c10.161,0.264,20.242,0.527,30.296,0.789c0.265-10.153,0.527-20.234,0.789-30.297c-10.137-0.264-20.195-0.525-30.296-0.788
		C420.98,224.896,420.719,234.953,420.455,245.082"/>
	<path display="inline" clip-path="url(#SVGID_4_)" fill="#403D3A" d="M456.457,260.507c-14.142-0.368-28.284-0.736-42.426-1.104
		c-0.123-0.396-0.361-0.795-0.351-1.188c0.404-16.292,0.828-32.584,1.272-48.875c0.01-0.392,0.269-0.779,0.413-1.168
		c14.142,0.368,28.283,0.736,42.425,1.104c0.123,0.397,0.362,0.796,0.352,1.189c-0.403,16.292-0.827,32.583-1.271,48.874
		C456.859,259.732,456.6,260.118,456.457,260.507 M455.228,258.831c0.417-16.035,0.832-31.986,1.247-47.907
		c-13.355-0.347-26.639-0.693-39.899-1.038c-0.417,16.009-0.831,31.936-1.247,47.907
		C428.642,258.139,441.901,258.484,455.228,258.831"/>
	<path display="inline" clip-path="url(#SVGID_4_)" fill="#D3D3EB" d="M455.229,258.831c-13.327-0.347-26.587-0.692-39.9-1.039
		c0.416-15.97,0.83-31.898,1.247-47.906c13.261,0.345,26.544,0.691,39.899,1.038C456.061,226.845,455.646,242.796,455.229,258.831
		 M419.206,229.892c-0.134,5.133-0.268,10.266-0.4,15.399c-0.034,1.328,0.053,1.419,1.39,1.454
		c10.266,0.269,20.532,0.536,30.798,0.802c1.285,0.033,1.394-0.065,1.427-1.316c0.271-10.299,0.538-20.598,0.804-30.897
		c0.033-1.262-0.07-1.37-1.341-1.403c-10.266-0.269-20.531-0.536-30.798-0.802c-1.381-0.036-1.444,0.028-1.481,1.464
		C419.471,219.693,419.339,224.792,419.206,229.892"/>
	<path display="inline" clip-path="url(#SVGID_4_)" fill="#FFFFFF" d="M421.244,214.786c-0.264,10.11-0.525,20.168-0.789,30.296
		c10.161,0.265,20.242,0.527,30.297,0.789c0.264-10.152,0.525-20.233,0.788-30.297C441.402,215.311,431.346,215.049,421.244,214.786
		"/>
	<path display="inline" clip-path="url(#SVGID_4_)" fill="#403D3A" d="M434.736,219.176c0.376,0.509,1.076,0.685,1.254,1.325
		c1.686-0.358,2.218-0.125,2.938,1.321c0.137,0.276,0.306,0.293,0.547,0.334c0.795,0.137,1.304,0.612,1.413,1.413
		c0.099,0.719-0.197,1.309-0.863,1.616c-0.374,0.172-0.344,0.439-0.349,0.735c-0.063,4.205-0.123,8.409-0.192,12.614
		c-0.005,0.313,0.039,0.565,0.282,0.805c0.303,0.299,0.435,0.706,0.511,1.129c0.3,1.647,0.111,1.877-1.549,1.852
		c-3.664-0.055-7.328-0.136-10.992-0.143c-0.832-0.002-1.032-0.296-0.977-1.049c0.056-0.757,0.066-1.5,0.681-2.068
		c0.309-0.284,0.199-0.647,0.161-0.991c-2.464-0.313-3.382-1.388-3.345-3.893c0.019-1.351,0.039-2.703,0.06-4.054
		c0.038-2.456,0.995-3.508,3.457-3.733c0.053-0.591,0.26-1.154-0.509-1.573c-0.572-0.311-0.66-0.954-0.531-1.593
		c0.127-0.627,0.53-1.06,1.117-1.146c0.585-0.084,0.812-0.374,1.058-0.861c0.468-0.923,1.375-1.15,2.712-0.777
		c0.352-0.569,0.933-0.917,1.494-1.288C433.654,219.159,434.195,219.167,434.736,219.176 M432.132,225.297
		c-1.153-0.017-2.306-0.035-3.43-0.051c-0.067,4.474-0.133,8.837-0.197,13.251c3.283,0.012,6.509,0.217,9.74,0.117
		c0.105,0.007,0.213,0.013,0.318,0.02c0.271-0.045,0.185-0.266,0.187-0.418c0.066-4.124,0.128-8.247,0.184-12.371
		c0.002-0.153,0.102-0.368-0.16-0.435C436.56,225.372,434.346,225.334,432.132,225.297 M429.276,222.825
		c-0.351,0.104-0.602,0.002-0.866-0.047c-0.479-0.09-0.826,0.145-0.94,0.612c-0.114,0.464,0.065,0.838,0.531,1.008
		c0.19,0.07,0.41,0.082,0.616,0.085c3.455,0.056,6.91,0.107,10.365,0.157c0.15,0.002,0.307,0.011,0.448-0.026
		c0.508-0.133,0.772-0.465,0.68-0.996c-0.091-0.53-0.43-0.765-0.965-0.668c-0.289,0.053-0.576,0.192-0.838-0.051
		c-0.111-1.735-0.609-2.061-2.179-1.414c-0.431,0.177-0.592-0.018-0.721-0.39c-0.248-0.726-0.781-1.163-1.538-1.181
		c-0.749-0.019-1.326,0.356-1.599,1.087c-0.197,0.528-0.436,0.611-0.935,0.288c-0.776-0.502-1.593-0.284-1.86,0.449
		C429.356,222.067,429.345,222.434,429.276,222.825 M427.6,241.39c3.991,0.06,7.912,0.118,11.827,0.177
		c0.246-1.667-0.142-2.154-1.721-2.175c-2.73-0.036-5.46-0.063-8.189-0.097C427.887,239.275,427.525,239.651,427.6,241.39
		 M427.603,236.185c-1.267-0.377-1.398-0.559-1.38-1.902c0.018-1.29,0.07-2.581,0.048-3.871c-0.019-1.106,0.047-2.102,1.479-2.13
		c0.023-0.42,0.131-0.743-0.06-1.042c-1.306-0.076-2.373,0.624-2.488,1.802c-0.206,2.089-0.242,4.196-0.093,6.29
		c0.087,1.222,1.25,1.991,2.497,1.812C427.672,236.823,427.701,236.502,427.603,236.185 M427.733,229.194
		c-0.582-0.127-0.684,0.191-0.69,0.6c-0.026,1.621-0.054,3.243-0.07,4.865c-0.005,0.406,0.11,0.723,0.671,0.595
		C427.673,233.258,427.703,231.257,427.733,229.194"/>
	<path display="inline" clip-path="url(#SVGID_4_)" fill="#F7F4CA" d="M429.277,222.825c0.067-0.39,0.079-0.758,0.199-1.086
		c0.268-0.734,1.085-0.952,1.859-0.45c0.5,0.324,0.739,0.24,0.936-0.288c0.271-0.73,0.849-1.105,1.599-1.087
		c0.757,0.018,1.29,0.455,1.539,1.181c0.127,0.373,0.289,0.567,0.72,0.39c1.57-0.647,2.068-0.321,2.18,1.415
		c0.262,0.242,0.549,0.103,0.838,0.051c0.533-0.097,0.874,0.137,0.965,0.667c0.091,0.531-0.173,0.863-0.68,0.996
		c-0.143,0.038-0.3,0.028-0.448,0.026c-3.455-0.05-6.91-0.101-10.365-0.156c-0.207-0.004-0.427-0.016-0.618-0.086
		c-0.465-0.17-0.644-0.544-0.531-1.007c0.115-0.468,0.463-0.703,0.941-0.613C428.675,222.828,428.925,222.929,429.277,222.825"/>
	<path display="inline" clip-path="url(#SVGID_4_)" fill="#FFFFFF" d="M427.6,241.39c-0.073-1.739,0.287-2.115,1.917-2.095
		c2.729,0.033,5.459,0.061,8.188,0.097c1.579,0.021,1.967,0.507,1.722,2.174C435.511,241.508,431.591,241.449,427.6,241.39"/>
	<path display="inline" clip-path="url(#SVGID_4_)" fill="#FEFEFE" d="M438.563,238.634c-0.106-0.007-0.212-0.014-0.319-0.021
		c-0.258-0.219-0.57-0.128-0.859-0.134c-1.581-0.034-3.164-0.05-4.745-0.078c-0.343-0.006-0.778,0.094-0.697-0.505
		c1.738,0.016,3.477,0.015,5.213,0.059c0.657,0.016,0.91-0.226,0.916-0.886c0.032-3.387,0.084-6.774,0.15-10.16
		c0.011-0.596-0.159-0.875-0.811-0.866c-1.317,0.018-2.637-0.024-3.956-0.051c-0.342-0.007-0.667-0.02-0.821,0.37
		c-0.175-0.011-0.351-0.022-0.525-0.033c0.008-0.344,0.016-0.688,0.023-1.032c2.214,0.037,4.428,0.075,6.642,0.113
		C438.703,229.818,438.634,234.226,438.563,238.634"/>
	<path display="inline" clip-path="url(#SVGID_4_)" fill="#FFFFFF" d="M431.942,237.896c-0.081,0.599,0.354,0.5,0.696,0.506
		c1.582,0.028,3.164,0.044,4.746,0.077c0.289,0.006,0.602-0.084,0.859,0.135c-3.23,0.1-6.457-0.105-9.739-0.117
		c0.065-4.414,0.13-8.777,0.196-13.251c1.125,0.017,2.277,0.034,3.431,0.051c-0.007,0.344-0.016,0.688-0.023,1.033
		c-0.109,0.006-0.221,0.011-0.331,0.017c-0.439-0.708-1.144-0.271-1.719-0.389c-0.542-0.11-0.753,0.179-0.76,0.703
		c-0.045,3.468-0.098,6.937-0.154,10.406c-0.009,0.519,0.202,0.771,0.739,0.771C430.569,237.839,431.257,237.875,431.942,237.896"/>
	<path display="inline" clip-path="url(#SVGID_4_)" fill="#FFFFFF" d="M427.603,236.185c0.098,0.317,0.068,0.639,0.004,0.959
		c-1.247,0.18-2.409-0.589-2.497-1.812c-0.149-2.094-0.113-4.2,0.092-6.29c0.116-1.177,1.184-1.878,2.49-1.802
		c0.19,0.299,0.083,0.622,0.059,1.042c-1.433,0.028-1.499,1.024-1.479,2.131c0.021,1.289-0.03,2.58-0.048,3.87
		C426.203,235.625,426.336,235.808,427.603,236.185"/>
	<path display="inline" clip-path="url(#SVGID_4_)" fill="#B4BFD0" d="M438.563,238.634c0.07-4.408,0.14-8.816,0.21-13.224
		c0.261,0.067,0.163,0.282,0.161,0.435c-0.056,4.124-0.118,8.247-0.186,12.371C438.747,238.368,438.835,238.589,438.563,238.634"/>
	<path display="inline" clip-path="url(#SVGID_4_)" fill="#403D3A" d="M431.777,226.346c-0.362,0.716-1.044,0.183-1.6,0.441
		c-0.049,3.32-0.101,6.692-0.151,10.152c2.358,0.228,4.737,0.183,7.19,0.231c0.052-3.462,0.102-6.859,0.154-10.38
		c-1.262-0.019-2.537-0.039-3.813-0.056c-0.359-0.004-0.736,0.046-0.925-0.372c0.153-0.39,0.479-0.378,0.821-0.37
		c1.319,0.027,2.639,0.069,3.956,0.05c0.651-0.009,0.821,0.271,0.811,0.867c-0.066,3.386-0.118,6.773-0.15,10.16
		c-0.006,0.66-0.259,0.902-0.916,0.886c-1.736-0.044-3.475-0.043-5.213-0.06c-0.686-0.02-1.373-0.057-2.059-0.057
		c-0.537-0.001-0.748-0.252-0.739-0.772c0.057-3.469,0.109-6.937,0.154-10.406c0.007-0.523,0.218-0.813,0.76-0.702
		C430.634,226.075,431.338,225.639,431.777,226.346"/>
	<path display="inline" clip-path="url(#SVGID_4_)" fill="#F2A656" d="M433.558,226.734c-0.358-0.004-0.734,0.046-0.925-0.373
		c-0.174-0.01-0.349-0.021-0.524-0.032c-0.11,0.006-0.221,0.011-0.331,0.017c-0.362,0.716-1.044,0.183-1.6,0.441
		c-0.05,3.32-0.1,6.692-0.151,10.152c2.358,0.227,4.737,0.182,7.19,0.231c0.051-3.462,0.102-6.859,0.154-10.38
		C436.109,226.771,434.834,226.751,433.558,226.734 M433.293,231.784c0.034-0.002,0.064-0.001,0.094,0.002
		C433.358,231.783,433.328,231.782,433.293,231.784c-0.209,0.029-0.338,0.138-0.358,0.327
		C432.955,231.922,433.084,231.813,433.293,231.784 M433.427,231.793c-0.004-0.001-0.009-0.002-0.013-0.002
		C433.418,231.792,433.423,231.792,433.427,231.793 M432.948,232.288c0.008,0.028,0.018,0.052,0.029,0.074
		C432.966,232.339,432.956,232.315,432.948,232.288 M432.999,232.392c0.015,0.019,0.032,0.035,0.05,0.05
		C433.031,232.426,433.014,232.41,432.999,232.392"/>
	<path display="inline" clip-path="url(#SVGID_4_)" fill="#403D3A" d="M433.079,237.46c0.41-0.979,0.802-1.969,1.717-2.709
		c-0.56-0.272-1.008-0.58-0.977-1.244c0.037-0.751,0.664-1.25,1.396-1.089c0.132,0.029,0.274,0.058,0.384,0.13
		c0.758,0.492,1.312,0.267,1.861-0.394c0.576-0.693,1.303-1.22,2.212-1.443c1.192-0.291,2.273-0.058,3.247,0.675
		c0.248,0.188,0.506,0.383,0.688,0.628c0.603,0.801,1.231,1.207,2.269,0.633c0.588-0.324,1.255,0.06,1.479,0.639
		c0.255,0.657-0.029,1.185-0.896,1.614c0.592,0.717,1.159,1.435,1.391,2.364c0.489,1.965,0.003,3.653-1.513,4.956
		c-1.613,1.387-3.454,1.583-5.38,0.659c-0.324-0.155-0.564-0.201-0.909-0.032c-2.738,1.342-5.936-0.113-6.791-3.06
		c-0.045-0.153-0.021-0.357-0.205-0.456C433.06,238.708,433.069,238.084,433.079,237.46 M446.704,233.451l0.005,0.006
		c-0.34-0.435-0.689-0.411-1.675,0.201c0.245,0.187,0.494,0.321,0.67,0.52c0.315,0.36,0.609,0.144,0.877-0.011
		C446.865,234.002,446.942,233.738,446.704,233.451 M447.448,238.532c-0.023-0.889-0.265-1.821-0.922-2.596
		c-1.146-1.352-2.396-2.613-3.683-3.827c-1.381-1.301-3.146-1.254-4.557,0.057c-1.112,1.033-2.203,2.091-3.27,3.173
		c-1.605,1.629-1.817,3.962-0.55,5.634c1.372,1.812,3.576,2.29,5.606,1.185c0.382-0.208,0.639-0.093,0.959,0.093
		C443.831,243.876,447.377,241.877,447.448,238.532 M436.277,233.431c-0.476-0.183-0.741-0.281-1.004-0.387
		c-0.329-0.132-0.626-0.097-0.798,0.23c-0.136,0.258-0.115,0.548,0.163,0.713c0.289,0.171,0.591,0.392,0.917,0.009
		C435.715,233.809,435.947,233.685,436.277,233.431"/>
	<path display="inline" clip-path="url(#SVGID_4_)" fill="#F3B03A" d="M436.277,233.431c-0.33,0.254-0.563,0.378-0.722,0.565
		c-0.326,0.383-0.628,0.162-0.917-0.009c-0.278-0.165-0.299-0.455-0.163-0.713c0.172-0.327,0.469-0.362,0.798-0.23
		C435.536,233.15,435.802,233.248,436.277,233.431"/>
	<path display="inline" clip-path="url(#SVGID_4_)" fill="#403D3A" d="M443.804,235.594c-0.277-0.305-0.51-0.561-0.757-0.832
		c-0.863,0.677-1.508,1.467-2.026,2.37c-0.109,0.191-0.162,0.473-0.467,0.459c-0.296-0.013-0.339-0.292-0.444-0.487
		c-0.484-0.901-1.1-1.695-1.902-2.381c-0.333,0.175-0.535,0.486-0.845,0.751c0.888,0.809,1.567,1.718,2.018,2.794
		c0.304,0.727,0.436,1.488,0.542,2.26c0.047,0.343-0.155,0.489-0.399,0.636c-1.233,0.749-2.938,0.502-3.898-0.571
		c-1.011-1.127-1.141-2.843-0.184-3.969c1.187-1.397,2.548-2.632,3.917-3.846c0.763-0.675,1.824-0.653,2.566,0.048
		c1.315,1.244,2.622,2.51,3.763,3.918c0.936,1.154,0.784,2.834-0.252,3.964c-0.967,1.055-2.669,1.268-3.909,0.513
		c-0.352-0.214-0.444-0.458-0.385-0.866C441.423,238.442,442.302,236.869,443.804,235.594 M436.916,235.899
		c-0.357,0.374-0.705,0.69-0.995,1.053c-0.729,0.91-0.696,2.199,0.05,3.123c0.721,0.892,1.986,1.195,3.004,0.708
		c0.18-0.086,0.36-0.144,0.322-0.459C439.087,238.562,438.312,237.118,436.916,235.899 M444.266,236.063
		c-1.26,0.83-2.213,2.465-2.491,4.136c-0.062,0.372,0.035,0.525,0.341,0.664c1.652,0.75,3.546-0.444,3.586-2.258
		C445.725,237.464,445.012,236.757,444.266,236.063 M438.634,234.282c0.783,0.692,1.386,1.489,1.923,2.394
		c0.339-0.449,0.622-0.86,0.944-1.238c0.335-0.393,0.708-0.754,1.061-1.126C441.06,232.514,440.246,232.464,438.634,234.282"/>
	<path display="inline" clip-path="url(#SVGID_4_)" fill="#F3B03A" d="M446.526,235.936c-1.146-1.352-2.396-2.613-3.684-3.827
		c-1.38-1.301-3.145-1.254-4.556,0.057c-1.113,1.033-2.204,2.091-3.27,3.173c-1.605,1.629-1.817,3.962-0.551,5.634
		c1.373,1.813,3.577,2.29,5.607,1.185c0.382-0.208,0.638-0.093,0.958,0.093c2.799,1.625,6.345-0.374,6.415-3.719
		C447.424,237.643,447.184,236.711,446.526,235.936 M446.532,238.738c-0.003,0.044-0.01,0.088-0.011,0.132
		C446.522,238.826,446.529,238.782,446.532,238.738c0.073-0.828-0.164-1.549-0.62-2.177
		C446.368,237.189,446.605,237.91,446.532,238.738 M445.436,240.708c-0.968,1.055-2.67,1.268-3.91,0.513
		c-0.353-0.214-0.445-0.458-0.385-0.866c0.281-1.913,1.16-3.485,2.664-4.76c-0.278-0.306-0.512-0.562-0.758-0.833
		c-0.862,0.678-1.509,1.467-2.026,2.37c-0.109,0.191-0.162,0.473-0.466,0.46c-0.297-0.013-0.34-0.293-0.444-0.488
		c-0.486-0.9-1.101-1.695-1.903-2.381c-0.334,0.175-0.536,0.487-0.845,0.752c0.887,0.808,1.567,1.718,2.018,2.793
		c0.305,0.727,0.437,1.488,0.542,2.261c0.047,0.342-0.155,0.488-0.398,0.636c-1.234,0.749-2.938,0.501-3.9-0.572
		c-1.01-1.126-1.139-2.843-0.183-3.969c1.186-1.396,2.548-2.631,3.918-3.845c0.762-0.676,1.824-0.654,2.565,0.048
		c1.316,1.244,2.621,2.509,3.764,3.917C446.622,237.898,446.47,239.578,445.436,240.708"/>
	<path display="inline" clip-path="url(#SVGID_4_)" fill="#F3B03A" d="M446.708,233.456L446.708,233.456
		c-0.339-0.434-0.688-0.41-1.674,0.202c0.246,0.187,0.495,0.321,0.67,0.52c0.315,0.36,0.609,0.143,0.877-0.012
		C446.863,234.003,446.941,233.741,446.708,233.456"/>
	
		<rect x="427.137" y="191.168" transform="matrix(0.9518 -0.3068 0.3068 0.9518 -40.377 141.2651)" display="inline" clip-path="url(#SVGID_4_)" fill="#F0D2B3" width="3.908" height="15.758"/>
	
		<rect x="427.137" y="191.168" transform="matrix(0.9518 -0.3068 0.3068 0.9518 -40.377 141.2651)" display="inline" clip-path="url(#SVGID_4_)" fill="none" stroke="#683C10" stroke-miterlimit="10" width="3.908" height="15.758"/>
	<path display="inline" clip-path="url(#SVGID_4_)" fill="#BCBCBB" d="M430.436,207.139c0.791-0.262,1.58-0.53,2.373-0.786
		c0.548-0.177,0.718-0.451,0.62-1.022c-0.081-0.483-0.254-0.94-0.395-1.406c-0.24-0.786-0.506-1.565-0.755-2.348
		c-0.169-0.53-0.332-1.062-0.487-1.596c-0.034-0.115-0.097-0.238-0.025-0.368c0.158,0.006,0.131,0.142,0.158,0.228
		c0.425,1.323,0.863,2.641,1.263,3.971c0.179,0.595,0.442,1.176,0.424,1.82c-0.015,0.457-0.198,0.714-0.626,0.85
		c-0.729,0.23-1.458,0.458-2.187,0.689c-0.088,0.028-0.171,0.069-0.257,0.104C430.454,207.271,430.432,207.215,430.436,207.139"/>
	<path display="inline" clip-path="url(#SVGID_4_)" fill="none" stroke="#000000" stroke-miterlimit="10" d="M430.436,207.139
		c0.791-0.262,1.58-0.53,2.373-0.786c0.548-0.177,0.718-0.451,0.62-1.022c-0.081-0.483-0.254-0.94-0.395-1.406
		c-0.24-0.786-0.506-1.565-0.755-2.348c-0.169-0.53-0.332-1.062-0.487-1.596c-0.034-0.115-0.097-0.238-0.025-0.368
		c0.158,0.006,0.131,0.142,0.158,0.228c0.425,1.323,0.863,2.641,1.263,3.971c0.179,0.595,0.442,1.176,0.424,1.82
		c-0.015,0.457-0.198,0.714-0.626,0.85c-0.729,0.23-1.458,0.458-2.187,0.689c-0.088,0.028-0.171,0.069-0.257,0.104
		C430.454,207.271,430.432,207.215,430.436,207.139z"/>
	<path display="inline" clip-path="url(#SVGID_4_)" fill="#BCBCBB" d="M429.63,207.534c-0.234-0.011-0.329-0.192-0.428-0.362
		c-0.288-0.494-0.432-1.045-0.611-1.582c-0.397-1.195-0.789-2.392-1.18-3.59c-0.169-0.517-0.333-1.035-0.49-1.555
		c-0.029-0.098-0.105-0.211,0.017-0.343c0.181,0.176,0.189,0.423,0.258,0.624c0.402,1.195,0.76,2.406,1.162,3.601
		c0.287,0.854,0.51,1.732,0.891,2.553c0.087,0.187,0.163,0.389,0.369,0.489C429.621,207.424,429.626,207.479,429.63,207.534"/>
	<path display="inline" clip-path="url(#SVGID_4_)" fill="none" stroke="#000000" stroke-miterlimit="10" d="M429.63,207.534
		c-0.234-0.011-0.329-0.192-0.428-0.362c-0.288-0.494-0.432-1.045-0.611-1.582c-0.397-1.195-0.789-2.392-1.18-3.59
		c-0.169-0.517-0.333-1.035-0.49-1.555c-0.029-0.098-0.105-0.211,0.017-0.343c0.181,0.176,0.189,0.423,0.258,0.624
		c0.402,1.195,0.76,2.406,1.162,3.601c0.287,0.854,0.51,1.732,0.891,2.553c0.087,0.187,0.163,0.389,0.369,0.489
		C429.621,207.424,429.626,207.479,429.63,207.534z"/>
	
		<rect x="431.232" y="206.845" transform="matrix(0.9518 -0.3067 0.3067 0.9518 -44.0709 143.0779)" display="inline" clip-path="url(#SVGID_4_)" fill="#F0D2B3" width="3.908" height="9.823"/>
	
		<rect x="431.232" y="206.845" transform="matrix(0.9518 -0.3067 0.3067 0.9518 -44.0709 143.0779)" display="inline" clip-path="url(#SVGID_4_)" fill="none" stroke="#683C10" stroke-miterlimit="10" width="3.908" height="9.823"/>
	<path display="inline" clip-path="url(#SVGID_4_)" fill="#403D3A" d="M601.773,225.881c-1.35-4.822-2.7-9.643-4.05-14.466
		c-0.381-1.358-0.34-1.436,0.966-1.802c9.707-2.719,19.414-5.437,29.121-8.154c1.202-0.336,1.33-0.265,1.664,0.929
		c2.729,9.738,5.455,19.476,8.18,29.216c0.331,1.182,0.259,1.306-0.957,1.646c-9.707,2.72-19.414,5.438-29.121,8.154
		c-1.266,0.354-1.373,0.294-1.726-0.962C604.491,235.589,603.133,230.735,601.773,225.881 M607.338,239.77
		c9.607-2.69,19.14-5.359,28.646-8.021c-2.688-9.6-5.356-19.132-8.021-28.648c-9.585,2.684-19.095,5.347-28.647,8.022
		C601.994,220.683,604.656,230.192,607.338,239.77"/>
	<path display="inline" clip-path="url(#SVGID_4_)" fill="#403D3A" d="M645.57,243.828c-13.373,3.744-26.745,7.489-40.117,11.233
		c-0.23-0.336-0.569-0.642-0.673-1.013c-4.332-15.4-8.646-30.805-12.94-46.215c-0.104-0.371,0.027-0.808,0.049-1.215
		c13.372-3.744,26.745-7.488,40.117-11.232c0.229,0.336,0.569,0.641,0.673,1.012c4.332,15.4,8.646,30.805,12.94,46.215
		C645.723,242.985,645.591,243.422,645.57,243.828 M643.932,242.611c-4.244-15.162-8.469-30.245-12.684-45.299
		c-12.628,3.536-25.188,7.053-37.728,10.564c4.238,15.137,8.454,30.198,12.684,45.299
		C618.793,249.65,631.331,246.139,643.932,242.611"/>
	<path display="inline" clip-path="url(#SVGID_4_)" fill="#F9D7CD" d="M643.933,242.611c-12.603,3.529-25.14,7.039-37.729,10.564
		c-4.228-15.101-8.444-30.162-12.683-45.299c12.539-3.511,25.099-7.028,37.729-10.564
		C635.464,212.367,639.687,227.449,643.933,242.611 M601.773,225.882c1.359,4.854,2.717,9.707,4.078,14.561
		c0.352,1.256,0.46,1.316,1.724,0.962c9.707-2.717,19.415-5.435,29.121-8.154c1.216-0.341,1.29-0.465,0.959-1.647
		c-2.725-9.739-5.452-19.478-8.181-29.216c-0.334-1.193-0.462-1.264-1.663-0.928c-9.708,2.716-19.415,5.435-29.122,8.154
		c-1.305,0.365-1.346,0.444-0.966,1.802C599.072,216.238,600.424,221.06,601.773,225.882"/>
	<path display="inline" clip-path="url(#SVGID_4_)" fill="#FFFFFF" d="M599.316,211.122c2.677,9.56,5.34,19.07,8.021,28.647
		c9.607-2.69,19.14-5.359,28.646-8.021c-2.687-9.599-5.355-19.132-8.021-28.647C618.379,205.785,608.868,208.447,599.316,211.122"/>
	<path display="inline" clip-path="url(#SVGID_4_)" fill="#5A2A14" d="M620.416,213.988c0.315-1.684,0.629-3.368,0.944-5.051
		c0.085-0.457,0.172-0.913,0.26-1.369c0.129-0.668,0.477-0.947,1.169-0.695c2.525,0.918,2.217,0.569,1.675,2.917
		c-0.49,2.128-0.987,4.254-1.499,6.454c1.757-0.032,3.078,0.628,3.887,2.167c0.38,0.056,0.692-0.149,1.031-0.226
		c0.695-0.156,1.051,0.071,1.129,0.78c0.455,4.154-0.141,8.02-3.138,11.203c-0.255,0.27-0.246,0.507-0.147,0.813
		c0.183,0.573,0.339,1.155,0.52,1.73c0.184,0.582-0.005,0.954-0.591,1.132c-2.776,0.842-5.551,1.686-8.327,2.527
		c-0.583,0.177-1.006-0.023-1.093-0.631c-0.229-1.585-1.071-2.318-2.649-2.871c-3.444-1.206-5.51-3.985-6.958-7.232
		c-0.452-1.012,0.441-1.093,1.091-1.353c-0.205-1.145-0.231-2.327,0.577-3.185c0.832-0.883,1.365-1.914,2.005-2.908
		c1.26-1.961,3.438-2.617,6.093-2.03c1.064-0.717,1.011-1.633,0.651-2.696c-0.55-1.629-0.985-3.296-1.492-4.94
		c-0.202-0.656-0.035-1.127,0.593-1.395c2.147-0.914,2.482-1.19,2.856,1.265c0.271,1.774,0.883,3.487,1.056,5.286
		c0.012,0.117,0.099,0.227,0.149,0.34C620.277,214.009,620.347,214,620.416,213.988 M608.919,224.431
		c5.754-1.747,11.452-3.478,17.151-5.209c-0.509-1.426-1.581-2.153-2.953-1.941c-0.508,0.079-0.718-0.04-0.926-0.501
		c-0.46-1.018-1.327-1.526-2.423-1.528c-1.091-0.003-1.933,0.503-2.473,1.481c-0.127,0.229-0.112,0.542-0.393,0.692
		c-0.081-0.025-0.161-0.041-0.235-0.072c-2.85-1.191-5.345-0.059-6.271,2.88c-0.107,0.338-0.311,0.463-0.56,0.631
		C608.622,221.685,608.266,223.049,608.919,224.431 M622.11,215.643c0.581-2.481,1.144-4.889,1.709-7.302
		c-0.416-0.239-0.781-0.381-1.168-0.414c-0.235,0.29-0.221,0.604-0.277,0.892c-0.353,1.821-0.661,3.651-1.063,5.461
		C621.146,215.02,621.351,215.41,622.11,215.643 M617.805,207.584c-0.67,0.161-1.358,0.184-1.096,1.148
		c0.525,1.924,1.043,3.85,1.554,5.778c0.107,0.406,0.311,0.513,0.719,0.401c0.413-0.112,0.416-0.355,0.34-0.683
		C618.821,212.048,618.325,209.867,617.805,207.584"/>
	<path display="inline" clip-path="url(#SVGID_4_)" fill="#FBF3D4" d="M608.919,224.431c-0.653-1.381-0.297-2.746,0.919-3.567
		c0.249-0.168,0.452-0.293,0.56-0.631c0.926-2.939,3.421-4.071,6.271-2.881c0.074,0.031,0.154,0.048,0.235,0.073
		c0.28-0.15,0.266-0.463,0.393-0.692c0.54-0.978,1.382-1.484,2.473-1.482c1.096,0.003,1.963,0.511,2.423,1.528
		c0.208,0.462,0.418,0.58,0.926,0.502c1.372-0.212,2.444,0.514,2.953,1.941C620.371,220.953,614.673,222.683,608.919,224.431"/>
	<path display="inline" clip-path="url(#SVGID_4_)" fill="#A18457" d="M622.11,215.643c-0.76-0.234-0.964-0.623-0.8-1.363
		c0.402-1.81,0.711-3.64,1.063-5.461c0.057-0.289,0.042-0.602,0.277-0.892c0.387,0.033,0.752,0.175,1.168,0.414
		C623.254,210.754,622.691,213.162,622.11,215.643"/>
	<path display="inline" clip-path="url(#SVGID_4_)" fill="#A18457" d="M617.805,207.584c0.521,2.282,1.017,4.464,1.517,6.644
		c0.076,0.328,0.073,0.571-0.34,0.683c-0.408,0.112-0.611,0.005-0.719-0.401c-0.511-1.928-1.028-3.854-1.554-5.778
		C616.446,207.769,617.135,207.746,617.805,207.584"/>
	
		<rect x="625.935" y="178.679" transform="matrix(0.9644 0.2643 -0.2643 0.9644 71.6072 -159.3325)" display="inline" clip-path="url(#SVGID_4_)" fill="#F0D2B3" width="3.837" height="15.468"/>
	
		<rect x="625.935" y="178.679" transform="matrix(0.9644 0.2643 -0.2643 0.9644 71.6072 -159.3325)" display="inline" clip-path="url(#SVGID_4_)" fill="none" stroke="#683C10" stroke-miterlimit="10" width="3.837" height="15.468"/>
	<path display="inline" clip-path="url(#SVGID_4_)" fill="#BCBCBB" d="M624.611,193.783c0.791,0.209,1.583,0.414,2.373,0.63
		c0.544,0.148,0.83,0.014,1.059-0.507c0.192-0.441,0.297-0.909,0.43-1.367c0.226-0.775,0.425-1.558,0.642-2.335
		c0.146-0.526,0.298-1.05,0.457-1.573c0.034-0.112,0.049-0.247,0.177-0.316c0.126,0.09,0.031,0.187,0.008,0.273
		c-0.361,1.314-0.709,2.633-1.096,3.94c-0.173,0.585-0.268,1.204-0.63,1.723c-0.257,0.368-0.547,0.48-0.971,0.362
		c-0.722-0.202-1.444-0.407-2.166-0.608c-0.087-0.024-0.178-0.036-0.267-0.053C624.557,193.901,624.568,193.844,624.611,193.783"/>
	<path display="inline" clip-path="url(#SVGID_4_)" fill="none" stroke="#000000" stroke-miterlimit="10" d="M624.611,193.783
		c0.791,0.209,1.583,0.414,2.373,0.63c0.544,0.148,0.83,0.014,1.059-0.507c0.192-0.441,0.297-0.909,0.43-1.367
		c0.226-0.775,0.425-1.558,0.642-2.335c0.146-0.526,0.298-1.05,0.457-1.573c0.034-0.112,0.049-0.247,0.177-0.316
		c0.126,0.09,0.031,0.187,0.008,0.273c-0.361,1.314-0.709,2.633-1.096,3.94c-0.173,0.585-0.268,1.204-0.63,1.723
		c-0.257,0.368-0.547,0.48-0.971,0.362c-0.722-0.202-1.444-0.407-2.166-0.608c-0.087-0.024-0.178-0.036-0.267-0.053
		C624.557,193.901,624.568,193.844,624.611,193.783z"/>
	<path display="inline" clip-path="url(#SVGID_4_)" fill="#BCBCBB" d="M623.738,193.675c-0.188-0.135-0.167-0.335-0.157-0.527
		c0.029-0.561,0.206-1.091,0.348-1.628c0.314-1.196,0.636-2.39,0.959-3.584c0.14-0.515,0.282-1.029,0.433-1.541
		c0.028-0.096,0.026-0.23,0.196-0.272c0.056,0.242-0.069,0.449-0.122,0.651c-0.313,1.198-0.668,2.384-0.979,3.582
		c-0.223,0.856-0.511,1.697-0.64,2.577c-0.029,0.2-0.074,0.407,0.041,0.599C623.79,193.581,623.764,193.627,623.738,193.675"/>
	<path display="inline" clip-path="url(#SVGID_4_)" fill="none" stroke="#000000" stroke-miterlimit="10" d="M623.738,193.675
		c-0.188-0.135-0.167-0.335-0.157-0.527c0.029-0.561,0.206-1.091,0.348-1.628c0.314-1.196,0.636-2.39,0.959-3.584
		c0.14-0.515,0.282-1.029,0.433-1.541c0.028-0.096,0.026-0.23,0.196-0.272c0.056,0.242-0.069,0.449-0.122,0.651
		c-0.313,1.198-0.668,2.384-0.979,3.582c-0.223,0.856-0.511,1.697-0.64,2.577c-0.029,0.2-0.074,0.407,0.041,0.599
		C623.79,193.581,623.764,193.627,623.738,193.675z"/>
	
		<rect x="622.473" y="194.233" transform="matrix(0.9644 0.2643 -0.2643 0.9644 74.8058 -157.9371)" display="inline" clip-path="url(#SVGID_4_)" fill="#F0D2B3" width="3.836" height="9.643"/>
	
		<rect x="622.473" y="194.233" transform="matrix(0.9644 0.2643 -0.2643 0.9644 74.8058 -157.9371)" display="inline" clip-path="url(#SVGID_4_)" fill="none" stroke="#683C10" stroke-miterlimit="10" width="3.836" height="9.643"/>
	<path display="inline" clip-path="url(#SVGID_4_)" fill="#403D3A" d="M756.121,481.004c0.012-5.043,0.022-10.086,0.035-15.129
		c0.004-1.421,0.064-1.485,1.43-1.482c10.152,0.022,20.304,0.045,30.455,0.07c1.256,0.003,1.361,0.106,1.357,1.354
		c-0.021,10.186-0.044,20.369-0.069,30.554c-0.003,1.236-0.108,1.337-1.379,1.335c-10.152-0.022-20.305-0.047-30.455-0.07
		c-1.323-0.003-1.411-0.091-1.408-1.405C756.097,491.154,756.11,486.079,756.121,481.004 M757.712,495.985
		c10.048,0.023,20.016,0.046,29.959,0.069c0.023-10.04,0.046-20.008,0.069-29.96c-10.025-0.023-19.971-0.045-29.959-0.068
		C757.758,476.024,757.735,485.97,757.712,495.985"/>
	<path display="inline" clip-path="url(#SVGID_4_)" fill="#403D3A" d="M793.653,510.386c-13.985-0.032-27.969-0.064-41.954-0.097
		c-0.13-0.389-0.376-0.777-0.375-1.166c0.017-16.109,0.054-32.221,0.11-48.331c0.002-0.389,0.249-0.775,0.381-1.163
		c13.984,0.031,27.969,0.063,41.954,0.096c0.131,0.388,0.376,0.777,0.375,1.166c-0.018,16.109-0.055,32.22-0.11,48.331
		C794.032,509.609,793.785,509.997,793.653,510.386 M792.399,508.758c0.036-15.856,0.071-31.63,0.108-47.374
		c-13.207-0.03-26.343-0.061-39.456-0.09c-0.036,15.83-0.072,31.58-0.108,47.373C766.109,508.697,779.221,508.728,792.399,508.758"
		/>
	<path display="inline" clip-path="url(#SVGID_4_)" fill="#DDE8B2" d="M792.399,508.757c-13.178-0.029-26.29-0.06-39.456-0.09
		c0.036-15.793,0.072-31.543,0.107-47.374c13.114,0.03,26.25,0.061,39.456,0.091C792.472,477.127,792.436,492.901,792.399,508.757
		 M756.121,481.003c-0.012,5.076-0.023,10.152-0.034,15.229c-0.003,1.313,0.085,1.4,1.408,1.403
		c10.151,0.025,20.303,0.049,30.455,0.07c1.271,0.003,1.376-0.097,1.379-1.334c0.025-10.184,0.049-20.369,0.07-30.554
		c0.003-1.247-0.103-1.352-1.358-1.355c-10.151-0.023-20.303-0.047-30.455-0.069c-1.365-0.003-1.426,0.062-1.43,1.481
		C756.145,470.917,756.133,475.96,756.121,481.003"/>
	<path display="inline" clip-path="url(#SVGID_4_)" fill="#FFFFFF" d="M757.78,466.026c-0.022,9.998-0.046,19.942-0.068,29.959
		c10.048,0.022,20.017,0.046,29.96,0.068c0.022-10.038,0.045-20.008,0.067-29.959C777.716,466.072,767.77,466.049,757.78,466.026"/>
	<path display="inline" clip-path="url(#SVGID_4_)" fill="#473528" d="M760.96,479.667c0.837-1.382,2.202-2.03,3.669-2.324
		c2.806-0.563,5.301-1.822,7.805-3.112c1.518-0.782,2.977-1.69,4.627-2.205c3.289-1.027,6.403,0.547,7.196,3.661
		c0.627,2.463-0.516,4.745-3.026,6.055c-0.728,0.38-1.479,0.7-2.474,0.97c1.411,0.314,2.659,0.383,3.824,0.813
		c0.372,0.137,0.756,0.26,1.097,0.455c1.023,0.585,1.118,1.279,0.305,2.138c-1.977,2.089-4.072,4.025-7.007,4.648
		c-5.106,1.082-9.93,0.734-14.074-2.909c-0.766-0.673-1.229-1.584-1.941-2.293v-0.921c1.011-1.031,2.378-1.254,3.952-1.599
		c-1.643-0.45-3.104-0.722-3.952-2.087V479.667z M777.372,484.646c0.068-0.181-0.077-0.141-0.165-0.161
		c-0.317-0.188-0.636-0.375-0.952-0.563c0.033-0.155-0.063-0.199-0.188-0.218l0.015,0.013c-2.116-1.729-7.334-1.242-9.148,0.853
		c-0.564,0.653-0.307,1.37,0.615,1.713c3.141,0.442,6.296,0.285,9.44,0.133c1.099-0.054,2.241-0.069,3.304-0.487
		c-0.687-1.102-1.886-1.043-2.944-1.302L777.372,484.646z M765.418,485.004c0.102-0.271,0.203-0.543,0.343-0.914
		c-1.251,0.269-2.43,0.371-3.49,1.002c0.416,0.352,0.887,0.468,1.371,0.549c0.573,0.299,1.214,0.3,1.927,0.475
		C765.513,485.702,765.465,485.354,765.418,485.004 M765.023,487.949l-0.005-0.009c0.107,0.338,0.444,0.403,0.694,0.548
		c2.358,1.371,4.962,1.716,7.617,1.63c2.31-0.075,4.568-0.477,6.508-1.896c0.356-0.284,0.841-0.445,1.033-1.085
		c-5.755,0.897-11.409,0.782-17.327-0.16c0.566,0.384,0.903,0.613,1.241,0.841C764.864,487.861,764.943,487.905,765.023,487.949
		 M762.573,480.932c0.313,0.393,0.794,0.41,1.31,0.609c0.154-1.348,1.068-2.014,2.226-2.279c3.273-0.752,6.119-2.454,9.064-3.942
		c0.819-0.414,1.636-0.84,2.522-1.091c1.427-0.404,2.684-0.121,3.65,1.045c0.918,1.106,0.804,2.324,0.232,3.537
		c-0.372,0.792-0.936,1.458-1.615,2.115c1.761-0.391,3.255-2.074,3.279-3.695c0.027-1.803-0.651-3.386-2.914-4.016
		c-0.514-0.309-1.077-0.298-1.647-0.273c-1.555,0.063-2.84,0.848-4.164,1.535c-3.166,1.64-6.276,3.408-9.844,4.094
		c-0.746,0.143-1.476,0.444-2.052,0.963C762.162,479.945,761.809,480.44,762.573,480.932 M780.307,476.003
		c-0.493-0.896-1.32-0.877-2.132-0.694c-0.831,0.187-1.587,0.608-2.351,0.989c-2.991,1.488-5.846,3.295-9.185,3.989
		c-0.293,0.062-0.572,0.213-0.839,0.357c-0.323,0.174-0.711,0.38-0.612,0.81c0.101,0.438,0.519,0.445,0.897,0.417
		c1.161,0.243,2.29,0.46,3.496,0.044c1.673-0.578,3.471-0.806,5.135-0.166c1.373,0.528,2.333,0.179,3.346-0.653
		c1.124-0.923,2.2-1.873,2.669-3.308C780.947,477.128,781.022,476.46,780.307,476.003 M783.264,485.061
		c-0.902-0.45-1.781-0.706-2.946-0.779c0.772,0.376,1.059,0.922,1.439,1.374C782.225,485.418,782.805,485.539,783.264,485.061"/>
	<path display="inline" clip-path="url(#SVGID_4_)" fill="#C2A670" d="M780.307,476.003c-0.492-0.896-1.32-0.877-2.132-0.694
		c-0.831,0.187-1.587,0.608-2.351,0.989c-2.992,1.488-5.846,3.295-9.185,3.989c-0.292,0.062-0.572,0.213-0.84,0.357
		c-0.322,0.174-0.711,0.38-0.611,0.81c0.1,0.438,0.518,0.445,0.897,0.417c1.161,0.243,2.289,0.46,3.495,0.044
		c1.674-0.578,3.472-0.806,5.136-0.166c1.372,0.528,2.333,0.179,3.347-0.653c1.123-0.923,2.2-1.873,2.668-3.308
		C780.947,477.128,781.022,476.46,780.307,476.003"/>
	<path display="inline" clip-path="url(#SVGID_4_)" fill="#DCC5A3" d="M763.544,486.977c0.566,0.384,0.903,0.612,1.241,0.841
		c0.116-0.025,0.218-0.026,0.237,0.123c-0.001,0-0.002,0-0.004,0c0.107,0.338,0.443,0.402,0.694,0.548
		c2.359,1.371,4.962,1.717,7.617,1.631c2.309-0.075,4.569-0.478,6.507-1.897c0.358-0.284,0.841-0.446,1.034-1.086
		C775.116,488.035,769.461,487.919,763.544,486.977"/>
	<path display="inline" clip-path="url(#SVGID_4_)" fill="#DCC5A3" d="M780.328,473.214c-0.514-0.308-1.077-0.297-1.647-0.272
		c-1.555,0.063-2.84,0.848-4.164,1.534c-3.166,1.641-6.275,3.409-9.844,4.095c-0.746,0.144-1.475,0.443-2.052,0.963
		c-0.459,0.413-0.813,0.908-0.047,1.397c0.312,0.394,0.794,0.41,1.309,0.61c0.154-1.348,1.069-2.014,2.226-2.28
		c3.273-0.752,6.119-2.454,9.064-3.94c0.82-0.414,1.636-0.84,2.522-1.092c1.427-0.404,2.684-0.121,3.65,1.045
		c0.918,1.107,0.804,2.324,0.233,3.537c-0.373,0.792-0.937,1.458-1.616,2.114c1.761-0.39,3.255-2.072,3.28-3.694
		C783.27,475.428,782.591,473.844,780.328,473.214"/>
	<path display="inline" clip-path="url(#SVGID_4_)" fill="#EF892C" d="M777.349,484.627l0.023,0.02
		c-0.056-0.054-0.11-0.107-0.165-0.161c-0.317-0.188-0.635-0.375-0.952-0.563c-0.094-0.044-0.234-0.047-0.189-0.209
		c0.005,0.002,0.012,0.003,0.017,0.004l-0.015-0.013v0.001c-2.125-1.715-7.323-1.227-9.134,0.864
		c-0.564,0.653-0.307,1.37,0.615,1.713c3.141,0.442,6.296,0.285,9.441,0.132c1.098-0.053,2.24-0.068,3.303-0.486
		C779.314,485.487,778.172,485.419,777.349,484.627"/>
	<path display="inline" clip-path="url(#SVGID_4_)" fill="#C2A670" d="M783.264,485.061c-0.459,0.479-1.039,0.357-1.507,0.595
		c-0.381-0.452-0.667-0.998-1.439-1.374C781.482,484.354,782.361,484.61,783.264,485.061"/>
	<path display="inline" clip-path="url(#SVGID_4_)" fill="#856036" d="M780.293,485.929c-0.978-0.441-2.121-0.51-2.943-1.302
		C778.408,484.886,779.606,484.827,780.293,485.929"/>
	<path display="inline" clip-path="url(#SVGID_4_)" fill="#856036" d="M765.761,484.089c-1.252,0.271-2.431,0.372-3.489,1.002
		c0.416,0.353,0.886,0.47,1.371,0.549c0.572,0.3,1.214,0.301,1.927,0.476c-0.057-0.413-0.104-0.762-0.152-1.111
		C765.52,484.733,765.621,484.462,765.761,484.089"/>
	<path display="inline" clip-path="url(#SVGID_4_)" fill="#FEFEFE" d="M776.254,483.922c-0.096-0.044-0.24-0.045-0.187-0.217
		C776.192,483.725,776.288,483.768,776.254,483.922"/>
	<path display="inline" clip-path="url(#SVGID_4_)" fill="#FEFEFE" d="M777.372,484.646c-0.056-0.054-0.11-0.106-0.165-0.16
		C777.295,484.505,777.44,484.465,777.372,484.646"/>
	<path display="inline" clip-path="url(#SVGID_4_)" fill="#86BD94" d="M764.785,487.817c0.118-0.026,0.223-0.027,0.238,0.132
		C764.943,487.905,764.864,487.861,764.785,487.817"/>
	
		<rect x="753.874" y="442.849" transform="matrix(0.9446 -0.3283 0.3283 0.9446 -106.0446 273.0683)" display="inline" clip-path="url(#SVGID_4_)" fill="#F0D2B3" width="3.865" height="15.578"/>
	
		<rect x="753.874" y="442.849" transform="matrix(0.9446 -0.3283 0.3283 0.9446 -106.0446 273.0683)" display="inline" clip-path="url(#SVGID_4_)" fill="none" stroke="#683C10" stroke-miterlimit="10" width="3.865" height="15.578"/>
	<path display="inline" clip-path="url(#SVGID_4_)" fill="#BCBCBB" d="M757.316,458.604c0.775-0.276,1.551-0.559,2.328-0.83
		c0.536-0.187,0.698-0.461,0.59-1.023c-0.092-0.477-0.271-0.924-0.423-1.38c-0.254-0.772-0.534-1.535-0.798-2.305
		c-0.179-0.52-0.352-1.042-0.517-1.565c-0.036-0.113-0.102-0.233-0.033-0.364c0.156,0.003,0.132,0.137,0.161,0.223
		c0.45,1.298,0.912,2.591,1.337,3.896c0.188,0.584,0.464,1.152,0.459,1.79c-0.004,0.452-0.18,0.71-0.6,0.853
		c-0.715,0.245-1.431,0.486-2.146,0.731c-0.086,0.029-0.167,0.071-0.251,0.107C757.338,458.734,757.314,458.68,757.316,458.604"/>
	<path display="inline" clip-path="url(#SVGID_4_)" fill="none" stroke="#000000" stroke-miterlimit="10" d="M757.316,458.604
		c0.775-0.276,1.551-0.559,2.328-0.83c0.536-0.187,0.698-0.461,0.59-1.023c-0.092-0.477-0.271-0.924-0.423-1.38
		c-0.254-0.772-0.534-1.535-0.798-2.305c-0.179-0.52-0.352-1.042-0.517-1.565c-0.036-0.113-0.102-0.233-0.033-0.364
		c0.156,0.003,0.132,0.137,0.161,0.223c0.45,1.298,0.912,2.591,1.337,3.896c0.188,0.584,0.464,1.152,0.459,1.79
		c-0.004,0.452-0.18,0.71-0.6,0.853c-0.715,0.245-1.431,0.486-2.146,0.731c-0.086,0.029-0.167,0.071-0.251,0.107
		C757.338,458.734,757.314,458.68,757.316,458.604z"/>
	<path display="inline" clip-path="url(#SVGID_4_)" fill="#BCBCBB" d="M756.529,459.013c-0.232-0.006-0.329-0.183-0.431-0.348
		c-0.296-0.481-0.45-1.022-0.64-1.55c-0.421-1.172-0.834-2.347-1.246-3.521c-0.179-0.507-0.353-1.016-0.52-1.525
		c-0.032-0.098-0.109-0.206,0.008-0.339c0.184,0.169,0.198,0.413,0.27,0.609c0.424,1.173,0.805,2.361,1.229,3.533
		c0.303,0.838,0.543,1.7,0.938,2.504c0.09,0.183,0.17,0.38,0.375,0.475C756.519,458.905,756.523,458.959,756.529,459.013"/>
	<path display="inline" clip-path="url(#SVGID_4_)" fill="none" stroke="#000000" stroke-miterlimit="10" d="M756.529,459.013
		c-0.232-0.006-0.329-0.183-0.431-0.348c-0.296-0.481-0.45-1.022-0.64-1.55c-0.421-1.172-0.834-2.347-1.246-3.521
		c-0.179-0.507-0.353-1.016-0.52-1.525c-0.032-0.098-0.109-0.206,0.008-0.339c0.184,0.169,0.198,0.413,0.27,0.609
		c0.424,1.173,0.805,2.361,1.229,3.533c0.303,0.838,0.543,1.7,0.938,2.504c0.09,0.183,0.17,0.38,0.375,0.475
		C756.519,458.905,756.523,458.959,756.529,459.013z"/>
	
		<rect x="758.206" y="458.251" transform="matrix(0.9446 -0.3283 0.3283 0.9446 -109.9129 275.2532)" display="inline" clip-path="url(#SVGID_4_)" fill="#F0D2B3" width="3.864" height="9.711"/>
	
		<rect x="758.206" y="458.251" transform="matrix(0.9446 -0.3283 0.3283 0.9446 -109.9129 275.2532)" display="inline" clip-path="url(#SVGID_4_)" fill="none" stroke="#683C10" stroke-miterlimit="10" width="3.864" height="9.711"/>
</g>
</svg>
